<?xml version="1.0" standalone="no"?>
<!DOCTYPE svg PUBLIC "-//W3C//DTD SVG 1.1//EN" "http://www.w3.org/Graphics/SVG/1.1/DTD/svg11.dtd" >
<svg>
<metadata>
Created by FontForge 20120731 at Sun Nov  5 22:53:56 2017
 By www-data
</metadata>
<defs>
<font id="MF-ZheHei-Noncommercial-Regular" horiz-adv-x="1000" >
  <font-face 
    font-family="MF ZheHei (Noncommercial) Regular"
    font-weight="400"
    font-stretch="normal"
    units-per-em="1000"
    panose-1="0 0 0 0 0 0 0 0 0 0"
    ascent="880"
    descent="-120"
    x-height="378"
    cap-height="567"
    bbox="-78 -143 1000 850"
    underline-thickness="0"
    underline-position="0"
    unicode-range="U+0001-FFE5"
  />
<missing-glyph 
d="M850 30h-700v700h700v-700zM190 660v-560l280 280zM220 70h560l-280 280zM500 410l280 280h-560zM810 100v560l-280 -280z" />
    <glyph glyph-name=".notdef" 
d="M850 30h-700v700h700v-700zM190 660v-560l280 280zM220 70h560l-280 280zM500 410l280 280h-560zM810 100v560l-280 -280z" />
    <glyph glyph-name=".null" horiz-adv-x="0" 
 />
    <glyph glyph-name="nonmarkingreturn" horiz-adv-x="333" 
 />
    <glyph glyph-name="cid1" horiz-adv-x="250" 
 />
    <glyph glyph-name="cid1" unicode="&#xa0;" horiz-adv-x="250" 
 />
    <glyph glyph-name="cid1" unicode=" " horiz-adv-x="250" 
 />
    <glyph glyph-name="cid1" horiz-adv-x="250" 
 />
    <glyph glyph-name="cid1" horiz-adv-x="250" 
 />
    <glyph glyph-name="cid1" horiz-adv-x="250" 
 />
    <glyph glyph-name="cid1" horiz-adv-x="250" 
 />
    <glyph glyph-name="cid1" horiz-adv-x="250" 
 />
    <glyph glyph-name="cid1" horiz-adv-x="250" 
 />
    <glyph glyph-name="cid1" horiz-adv-x="250" 
 />
    <glyph glyph-name="cid1" horiz-adv-x="250" 
 />
    <glyph glyph-name="cid1" horiz-adv-x="250" 
 />
    <glyph glyph-name="cid1" horiz-adv-x="250" 
 />
    <glyph glyph-name="cid1" horiz-adv-x="250" 
 />
    <glyph glyph-name="cid1" horiz-adv-x="250" 
 />
    <glyph glyph-name="cid1" horiz-adv-x="250" 
 />
    <glyph glyph-name="cid1" horiz-adv-x="250" 
 />
    <glyph glyph-name="cid1" horiz-adv-x="250" 
 />
    <glyph glyph-name="cid1" horiz-adv-x="250" 
 />
    <glyph glyph-name="cid1" horiz-adv-x="250" 
 />
    <glyph glyph-name="cid1" horiz-adv-x="250" 
 />
    <glyph glyph-name="cid1" unicode="&#xd;" horiz-adv-x="250" 
 />
    <glyph glyph-name="cid1" horiz-adv-x="250" 
 />
    <glyph glyph-name="cid1" horiz-adv-x="250" 
 />
    <glyph glyph-name="cid1" unicode="&#xa;" horiz-adv-x="250" 
 />
    <glyph glyph-name="cid1" unicode="&#x9;" horiz-adv-x="250" 
 />
    <glyph glyph-name="cid1" horiz-adv-x="250" 
 />
    <glyph glyph-name="cid1" horiz-adv-x="250" 
 />
    <glyph glyph-name="cid1" horiz-adv-x="250" 
 />
    <glyph glyph-name="cid1" horiz-adv-x="250" 
 />
    <glyph glyph-name="cid1" horiz-adv-x="250" 
 />
    <glyph glyph-name="cid1" horiz-adv-x="250" 
 />
    <glyph glyph-name="cid1" horiz-adv-x="250" 
 />
    <glyph glyph-name="cid1" horiz-adv-x="250" 
 />
    <glyph glyph-name="cid2" unicode="!" horiz-adv-x="220" 
d="M183 184h-146v423h146v-423zM183 -2h-146v113h146v-113z" />
    <glyph glyph-name="cid3" unicode="&#x22;" horiz-adv-x="388" 
d="M151 465h-111l12 142h132zM321 465h-111l12 142h131z" />
    <glyph glyph-name="cid4" unicode="#" horiz-adv-x="820" 
d="M796 354h-141l-30 -104h125v-104h-155l-42 -148h-146l42 148h-169l-42 -148h-146l42 148h-110v104h140l29 104h-124v104h154l43 149h147l-43 -149h168l43 149h147l-43 -149h111v-104zM310 250h169l29 104h-168z" />
    <glyph glyph-name="cid5" unicode="$" horiz-adv-x="675" 
d="M264 607h146v-62h234v-100h-234v-93h152q35 0 58.5 -24t23.5 -58v-211h-234v-61h-146v61h-234v100h234v92h-152q-34 0 -58 24t-24 58v212h234v62zM171 445v-93h93v93h-93zM503 159v92h-93v-92h93z" />
    <glyph glyph-name="cid6" unicode="%" horiz-adv-x="633" 
d="M398 607h136l-300 -609h-136zM269 420h-185q-23 0 -38.5 15.5t-15.5 38.5v125h182q23 0 40 -17t17 -40v-122zM123 486h53v47h-53v-47zM602 5h-185q-22 0 -38 16t-16 38v125h182q23 0 40 -16.5t17 -40.5v-122zM456 71h53v47h-53v-47z" />
    <glyph glyph-name="cid7" unicode="&#x26;" horiz-adv-x="773" 
d="M528 336h-77q17 -3 37.5 -12t34.5 -23l24 -26l137 89v-144l-56 -37l124 -141h-171l-62 69l-105 -69h-283q-37 0 -63.5 26.5t-26.5 63.5v180h82q-34 2 -58 28t-24 62v165h403q17 0 32.5 -6.5t27 -18t18 -27t6.5 -33.5v-146zM436 202l-49 54h-200v-110h162zM382 362v101
h-195v-101h195z" />
    <glyph glyph-name="cid8" unicode="'" horiz-adv-x="219" 
d="M158 465h-121l12 142h142z" />
    <glyph glyph-name="cid9" unicode="(" horiz-adv-x="344" 
d="M321 607q-75 -60 -112 -140t-37 -164.5t37 -165t112 -139.5h-157q-56 64 -84.5 143t-28.5 161t28.5 161t84.5 144h157z" />
    <glyph glyph-name="cid10" unicode=")" horiz-adv-x="343" 
d="M180 607q56 -65 84 -144t28 -161t-28 -161t-84 -143h-157q75 59 112 139.5t37 165t-37 164.5t-112 140h157z" />
    <glyph glyph-name="cid11" unicode="*" horiz-adv-x="300" 
d="M119 526v66h62v-66l57 33l30 -53l-57 -33l57 -33l-30 -53l-57 32v-65h-62v65l-57 -32l-30 53l57 32l-57 34l30 53z" />
    <glyph glyph-name="cid12" unicode="+" horiz-adv-x="650" 
d="M618 250h-219v-188h-148v188h-219v104h219v188h148v-188h219v-104z" />
    <glyph glyph-name="cid13" unicode="," horiz-adv-x="226" 
d="M163 -2h-126l15 153h146z" />
    <glyph glyph-name="cid14" unicode="-" horiz-adv-x="619" 
d="M576 250h-534v104h534v-104z" />
    <glyph glyph-name="cid15" unicode="." horiz-adv-x="232" 
d="M188 -2h-146v128h146v-128z" />
    <glyph glyph-name="cid16" unicode="/" horiz-adv-x="320" 
d="M212 607h86l-189 -609h-87z" />
    <glyph glyph-name="cid17" unicode="0" horiz-adv-x="572" 
d="M528 42h-485v525h396q37 0 63 -26.5t26 -63.5v-435zM190 146h192v317h-192v-317z" />
    <glyph glyph-name="cid18" unicode="1" horiz-adv-x="390" 
d="M44 567h154q35 0 60 -25t25 -60v-336h83v-104h-322v104h93v317h-93v104z" />
    <glyph glyph-name="cid19" unicode="2" horiz-adv-x="572" 
d="M43 463v104h396q37 0 63 -26.5t26 -63.5v-225h-338v-106h338v-104h-485v314h339v107h-339z" />
    <glyph glyph-name="cid20" unicode="3" horiz-adv-x="563" 
d="M519 336h-79q33 -3 56 -27t23 -58v-209h-475v104h328v110h-310v106h310v101h-328v104h390q17 0 32.5 -6.5t27 -18t18.5 -27t7 -33.5v-146z" />
    <glyph glyph-name="cid21" unicode="4" horiz-adv-x="556" 
d="M172 567v-319h193v319h146v-525h-146v102h-339v423h146z" />
    <glyph glyph-name="cid22" unicode="5" horiz-adv-x="572" 
d="M190 463v-74h254q17 0 32.5 -6.5t27 -18t18 -27t6.5 -33.5v-262h-485v178h147v-74h192v139h-339v282h485v-104h-338z" />
    <glyph glyph-name="cid23" unicode="6" horiz-adv-x="572" 
d="M189 463v-83h254q35 0 60 -25t25 -60v-253h-485v525h479v-104h-333zM189 276v-130h193v130h-193z" />
    <glyph glyph-name="cid24" unicode="7" horiz-adv-x="560" 
d="M320 42h-144l202 421h-356v104h418q25 0 44 -9t29 -24.5t11.5 -36t-7.5 -42.5z" />
    <glyph glyph-name="cid25" unicode="8" horiz-adv-x="574" 
d="M530 336h-79q34 -3 56.5 -27t22.5 -58v-209h-487v270h82q-35 2 -58.5 28t-23.5 62v165h402q35 0 60 -25t25 -60v-146zM384 146v110h-195v-110h195zM384 362v101h-195v-101h195z" />
    <glyph glyph-name="cid26" unicode="9" horiz-adv-x="572" 
d="M382 146v83h-339v338h395q38 0 64 -26.5t26 -63.5v-435h-479v104h333zM382 333v130h-193v-130h193z" />
    <glyph glyph-name="cid27" unicode=":" horiz-adv-x="210" 
d="M178 80h-146v128h146v-128zM178 396h-146v129h146v-129z" />
    <glyph glyph-name="cid28" unicode=";" horiz-adv-x="230" 
d="M193 396h-146v129h146v-129zM163 55h-126l15 153h146z" />
    <glyph glyph-name="cid29" unicode="&#x3c;" horiz-adv-x="283" 
d="M183 607h91l-155 -305l155 -304h-91l-155 304z" />
    <glyph glyph-name="cid30" unicode="=" horiz-adv-x="610" 
d="M572 355h-534v104h534v-104zM572 145h-534v104h534v-104z" />
    <glyph glyph-name="cid31" unicode="&#x3e;" horiz-adv-x="283" 
d="M255 302l-154 -304h-92l155 304l-155 305h92z" />
    <glyph glyph-name="cid32" unicode="?" horiz-adv-x="612" 
d="M443 330v133h-272v-75h-147v179h475q38 0 64 -26.5t26 -63.5v-251h-247v-83h-146v187h247zM342 -2h-146v113h146v-113z" />
    <glyph glyph-name="cid33" unicode="@" horiz-adv-x="865" 
d="M685 246v268h-506v-424h644v-98h-781v620h696q35 0 60 -25t25 -60v-379h-584v308h303q33 0 56.5 -23.5t23.5 -56.5v-130h63zM372 246h117v112h-117v-112z" />
    <glyph glyph-name="cid34" unicode="A" horiz-adv-x="680" 
d="M441 567l228 -525h-162l-38 96h-258l-38 -96h-162l231 525h199zM247 227h187l-92 237z" />
    <glyph glyph-name="cid35" unicode="B" horiz-adv-x="625" 
d="M567 342h-66q33 -3 55.5 -27t22.5 -58v-215h-534v525h438q17 0 32.5 -6.5t27 -18t18 -27t6.5 -33.5v-140zM433 146v110h-242v-110h242zM421 362v101h-230v-101h230z" />
    <glyph glyph-name="cid36" unicode="C" horiz-adv-x="566" 
d="M550 463h-360v-317h360v-104h-506v525h506v-104z" />
    <glyph glyph-name="cid37" unicode="D" horiz-adv-x="625" 
d="M43 42v525h388q31 0 58 -12t47.5 -32.5t32.5 -47.5t12 -58v-225q0 -31 -12 -58t-32.5 -47.5t-47.5 -32.5t-58 -12h-388zM434 463h-244v-317h244v317z" />
    <glyph glyph-name="cid38" unicode="E" horiz-adv-x="574" 
d="M538 253h-348v-107h360v-104h-506v525h506v-104h-360v-107h348v-103z" />
    <glyph glyph-name="cid39" unicode="F" horiz-adv-x="561" 
d="M538 253h-348v-211h-146v525h506v-104h-360v-107h348v-103z" />
    <glyph glyph-name="cid40" unicode="G" horiz-adv-x="625" 
d="M576 463h-386v-317h246v108h-166v104h227q35 0 60 -25t25 -60v-231h-539v525h533v-104z" />
    <glyph glyph-name="cid41" unicode="H" horiz-adv-x="625" 
d="M581 567v-525h-146v212h-246v-212h-146v525h146v-209h246v209h146z" />
    <glyph glyph-name="cid42" unicode="I" horiz-adv-x="336" 
d="M301 42h-257v104h55v317h-55v104h257v-104h-56v-317h56v-104z" />
    <glyph glyph-name="cid43" unicode="J" horiz-adv-x="404" 
d="M373 463h-62v-421h-282v104h136v317h-61v104h269v-104z" />
    <glyph glyph-name="cid44" unicode="K" horiz-adv-x="604" 
d="M570 42h-173l-207 246v-246h-146v525h146v-207l207 207h173l-240 -240z" />
    <glyph glyph-name="cid45" unicode="L" horiz-adv-x="498" 
d="M188 146h302v-104h-448v525h146v-421z" />
    <glyph glyph-name="cid46" unicode="M" horiz-adv-x="888" 
d="M582 567h263v-525h-146v426l-150 -398h-213l-147 390v-418h-146v525h259l140 -380z" />
    <glyph glyph-name="cid47" unicode="N" horiz-adv-x="625" 
d="M303 567l132 -448v448h146v-525h-263l-129 449v-449h-146v525h260z" />
    <glyph glyph-name="cid48" unicode="O" horiz-adv-x="625" 
d="M582 42h-539v525h454q35 0 60 -25t25 -60v-440zM189 463v-317h247v317h-247z" />
    <glyph glyph-name="cid49" unicode="P" horiz-adv-x="625" 
d="M189 463v-149h247v149h-247zM43 567h454q35 0 60 -25t25 -60v-272h-393v-168h-146v525z" />
    <glyph glyph-name="cid50" unicode="Q" horiz-adv-x="625" 
d="M535 -131q-73 6 -117 22.5t-68.5 39.5t-34 51.5t-13.5 59.5h-259v525h454q35 0 60 -25t25 -60v-440h-188q6 -12 18 -22t33 -17t52.5 -11t76.5 -4zM190 463v-317h98q-6 15 -18.5 25t-35.5 14v64q34 -3 58.5 -10t41.5 -19t27.5 -30t15.5 -44h59v317h-246z" />
    <glyph glyph-name="cid51" unicode="R" horiz-adv-x="625" 
d="M37 567h454q35 0 60 -25t25 -60v-242h-90l102 -198h-155l-102 198h-148v-198h-146v525zM183 463v-119h247v119h-247z" />
    <glyph glyph-name="cid52" unicode="S" horiz-adv-x="625" 
d="M206 463v-107h274q35 0 60 -25t25 -60v-229h-506v104h360v106h-360v315h506v-104h-359z" />
    <glyph glyph-name="cid53" unicode="T" horiz-adv-x="625" 
d="M59 463v104h506v-104h-180v-421h-146v421h-180z" />
    <glyph glyph-name="cid54" unicode="U" horiz-adv-x="625" 
d="M189 567v-421h246v421h146v-525h-538v525h146z" />
    <glyph glyph-name="cid55" unicode="V" horiz-adv-x="710" 
d="M177 567l176 -446l179 446h162l-213 -525h-255l-210 525h161z" />
    <glyph glyph-name="cid56" unicode="W" horiz-adv-x="970" 
d="M944 567l-117 -525h-253l-89 370l-91 -370h-253l-116 525h155l89 -456l107 441h216l107 -441l89 456h156z" />
    <glyph glyph-name="cid57" unicode="X" horiz-adv-x="650" 
d="M26 42l211 260l-215 265h177l126 -157l128 157h175l-215 -265l211 -260h-175l-124 151l-122 -151h-177z" />
    <glyph glyph-name="cid58" unicode="Y" horiz-adv-x="658" 
d="M15 567h161l153 -182l153 182h161l-241 -283v-242h-146v242z" />
    <glyph glyph-name="cid59" unicode="Z" horiz-adv-x="699" 
d="M635 146v-104h-505q-24 0 -41 13t-24.5 31.5t-5 39t19.5 35.5l340 302h-353v104h503q23 0 40 -13t25 -31.5t5 -39t-20 -35.5l-339 -302h355z" />
    <glyph glyph-name="cid60" unicode="[" horiz-adv-x="300" 
d="M274 514h-95v-424h95v-98h-148q-35 0 -60 25t-25 60v535h233v-98z" />
    <glyph glyph-name="cid61" unicode="\" horiz-adv-x="366" 
d="M5 607h86l270 -609h-86z" />
    <glyph glyph-name="cid62" unicode="]" horiz-adv-x="300" 
d="M22 90h95v424h-95v98h149q17 0 32.5 -6.5t27 -18t18 -27t6.5 -33.5v-535h-233v98z" />
    <glyph glyph-name="cid63" unicode="^" horiz-adv-x="493" 
d="M174 607h145l152 -162h-131l-94 99l-93 -99h-131z" />
    <glyph glyph-name="cid64" unicode="_" horiz-adv-x="485" 
d="M42 90h400v-98h-400v98z" />
    <glyph glyph-name="cid65" unicode="`" horiz-adv-x="253" 
d="M23 607h165l32 -162h-141z" />
    <glyph glyph-name="cid66" unicode="a" horiz-adv-x="573" 
d="M540 146v-104h-499v336h362q35 0 60 -25t25 -60v-147h52zM187 146h155v128h-155v-128z" />
    <glyph glyph-name="cid67" unicode="b" horiz-adv-x="530" 
d="M489 42h-448v525h147v-189h216q35 0 60 -25t25 -60v-251zM343 146v128h-155v-128h155z" />
    <glyph glyph-name="cid68" unicode="c" horiz-adv-x="448" 
d="M422 42h-381v336h381v-104h-235v-128h235v-104z" />
    <glyph glyph-name="cid69" unicode="d" horiz-adv-x="530" 
d="M41 35v336h301v189h146v-525h-447zM187 267v-128h155v128h-155z" />
    <glyph glyph-name="cid70" unicode="e" horiz-adv-x="530" 
d="M187 131h301v-89h-447v336h362q35 0 60 -25t25 -60v-122h-301v-40zM342 254v35h-155v-35h155z" />
    <glyph glyph-name="cid71" unicode="f" horiz-adv-x="479" 
d="M130 35v232h-113v104h113v183h307v-104h-160v-79h183v-104h-183v-232h-147z" />
    <glyph glyph-name="cid72" unicode="g" horiz-adv-x="530" 
d="M488 -140h-444v103h298v79h-301v336h362q35 0 60 -25t25 -60v-433zM342 146v128h-155v-128h155z" />
    <glyph glyph-name="cid73" unicode="h" horiz-adv-x="530" 
d="M488 42h-146v232h-155v-232h-146v525h146v-189h216q35 0 60 -25t25 -60v-251z" />
    <glyph glyph-name="cid74" unicode="i" horiz-adv-x="232" 
d="M188 378v-336h-146v336h146zM188 567v-126h-146v126h146z" />
    <glyph glyph-name="cid75" unicode="j" horiz-adv-x="314" 
d="M271 567v-126h-146v126h146zM271 -140h-256v103h110v415h146v-518z" />
    <glyph glyph-name="cid76" unicode="k" horiz-adv-x="556" 
d="M550 42h-200l-162 138v-138h-146v525h146v-307l171 118h191l-225 -154z" />
    <glyph glyph-name="cid77" unicode="l" horiz-adv-x="232" 
d="M188 567v-525h-146v525h146z" />
    <glyph glyph-name="cid78" unicode="m" horiz-adv-x="733" 
d="M691 42h-146v232h-106v-232h-146v232h-105v-232h-146v336h564q35 0 60 -25t25 -60v-251z" />
    <glyph glyph-name="cid79" unicode="n" horiz-adv-x="530" 
d="M489 42h-146v232h-155v-232h-147v336h363q35 0 60 -25t25 -60v-251z" />
    <glyph glyph-name="cid80" unicode="o" horiz-adv-x="530" 
d="M489 42h-448v336h363q35 0 60 -25t25 -60v-251zM342 146v128h-155v-128h155z" />
    <glyph glyph-name="cid81" unicode="p" horiz-adv-x="530" 
d="M489 42h-301v-182h-147v518h363q35 0 60 -25t25 -60v-251zM188 146h155v128h-155v-128z" />
    <glyph glyph-name="cid82" unicode="q" horiz-adv-x="530" 
d="M489 -140h-147v182h-301v336h363q35 0 60 -25t25 -60v-433zM342 146v128h-155v-128h155z" />
    <glyph glyph-name="cid83" unicode="r" horiz-adv-x="405" 
d="M394 274h-109q-42 0 -65.5 -26.5t-31.5 -67.5v-138h-146v336h146v-73q17 32 39 52.5t54 20.5h113v-104z" />
    <glyph glyph-name="cid84" unicode="s" horiz-adv-x="530" 
d="M489 289h-301v-33h216q35 0 60 -25t25 -60v-129h-448v89h302v36h-302v211h448v-89z" />
    <glyph glyph-name="cid85" unicode="t" horiz-adv-x="511" 
d="M488 274h-198v-128h180v-104h-326v232h-128v104h128v108h146v-108h198v-104z" />
    <glyph glyph-name="cid86" unicode="u" horiz-adv-x="530" 
d="M489 378v-336h-448v336h147v-232h155v232h146z" />
    <glyph glyph-name="cid87" unicode="v" horiz-adv-x="570" 
d="M174 378l110 -254l110 254h159l-153 -336h-231l-153 336h158z" />
    <glyph glyph-name="cid88" unicode="w" horiz-adv-x="870" 
d="M172 378l62 -254l92 254h216l92 -254l63 254h149l-96 -336h-222l-94 258l-93 -258h-222l-96 336h149z" />
    <glyph glyph-name="cid89" unicode="x" horiz-adv-x="600" 
d="M213 378l86 -80l85 80h180l-174 -164l186 -172h-186l-91 86l-92 -86h-183l184 172l-172 164h177z" />
    <glyph glyph-name="cid90" unicode="y" horiz-adv-x="616" 
d="M181 378l122 -197l125 197h168l-331 -518h-164l120 191l-205 327h165z" />
    <glyph glyph-name="cid91" unicode="z" horiz-adv-x="568" 
d="M59 378h387q33 0 50 -13.5t20.5 -31.5t-4 -36t-24.5 -28l-219 -138h244v-89h-403q-25 0 -39.5 13t-17.5 31t5.5 37t28.5 30l223 136h-251v89z" />
    <glyph glyph-name="cid92" unicode="{" horiz-adv-x="300" 
d="M215 90h70v-98h-208v261h-62v98h62v261h208v-98h-70v-186h-75q31 -2 53 -22t22 -51v-165z" />
    <glyph glyph-name="cid93" unicode="|" horiz-adv-x="224" 
d="M180 -8h-138v620h138v-620z" />
    <glyph glyph-name="cid94" unicode="}" horiz-adv-x="300" 
d="M85 514h-70v98h123q17 0 32.5 -6.5t27 -18t18 -27t6.5 -33.5v-176h63v-98h-63v-261h-207v98h70v186h74q-30 2 -52 22t-22 51v165z" />
    <glyph glyph-name="cid95" unicode="~" horiz-adv-x="340" 
d="M19 386q37 27 64.5 32.5t50 0t42.5 -16t41 -16t46 -0.5t58 32v-92q-34 -24 -59.5 -28.5t-47 1t-40.5 16t-41.5 15t-49.5 -1.5t-64 -33v91z" />
    <glyph glyph-name="cid22354" unicode="&#xa5;" horiz-adv-x="667" 
d="M406 46h-146v122h-176v104h176v75h-231v104h136l-88 114h146l86 -114h47l87 114h146l-88 -114h137v-104h-232v-75h177v-104h-177v-122z" />
    <glyph glyph-name="cid7713" unicode="&#xa9;" horiz-adv-x="850" 
d="M425 700q82 0 154 -31t126 -85t85 -126.5t31 -154.5q0 -83 -31 -155t-84.5 -125.5t-126 -84.5t-154.5 -31q-83 0 -155 31t-125.5 84.5t-84.5 125.5t-31 155q0 82 31 154.5t84.5 126.5t125.5 85t155 31zM424 612q-65 0 -122 -24.5t-99 -66.5t-66.5 -99t-24.5 -121
q0 -65 24.5 -122t67 -99t99 -66.5t121.5 -24.5t121.5 24.5t98.5 67t66.5 99t24.5 121.5q0 64 -24.5 121t-66.5 99t-99 66.5t-121 24.5zM608 132h-296q-18 0 -33.5 7t-27 18.5t-18 27t-6.5 32.5v251h381v-104h-235v-128h235v-104z" />
    <glyph glyph-name="cid162" unicode="&#xb0;" horiz-adv-x="286" 
d="M246 455h-158q-20 0 -33.5 13t-13.5 33v107h156q20 0 34.5 -14.5t14.5 -34.5v-104zM111 501h65v60h-65v-60z" />
    <glyph glyph-name="cid99" unicode="&#xb7;" 
d="M573 238h-146v128h146v-128z" />
    <glyph glyph-name="cid99" unicode="&#x30fb;" 
d="M573 238h-146v128h146v-128z" />
    <glyph glyph-name="cid99" unicode="&#x2022;" 
d="M573 238h-146v128h146v-128z" />
    <glyph glyph-name="cid105" unicode="&#x2014;" 
d="M698 250h-534v104h534v-104z" />
    <glyph glyph-name="cid109" unicode="&#x2018;" 
d="M806 607h142l12 -142h-121z" />
    <glyph glyph-name="cid110" unicode="&#x2019;" 
d="M161 465h-121l12 142h142z" />
    <glyph glyph-name="cid111" unicode="&#x201c;" 
d="M816 607h132l12 -142h-111zM647 607h131l12 -142h-111z" />
    <glyph glyph-name="cid112" unicode="&#x201d;" 
d="M151 465h-111l12 142h132zM321 465h-111l12 142h131z" />
    <glyph glyph-name="cid108" unicode="&#x2026;" 
d="M240 238h-146v128h146v-128zM839 238h-147v128h147v-128zM539 238h-146v128h146v-128z" />
    <glyph glyph-name="cid108" unicode="&#x22ef;" 
d="M240 238h-146v128h146v-128zM839 238h-147v128h147v-128zM539 238h-146v128h146v-128z" />
    <glyph glyph-name="cid599" unicode="&#x205d;" horiz-adv-x="1050" 
d="M336 616v155h170v-155h-170zM336 -10v155h170v-155h-170zM336 303v155h170v-155h-170z" />
    <glyph glyph-name="cid599" unicode="&#xfe19;" horiz-adv-x="1050" 
d="M336 616v155h170v-155h-170zM336 -10v155h170v-155h-170zM336 303v155h170v-155h-170z" />
    <glyph glyph-name="cid599" unicode="&#xe796;" horiz-adv-x="1050" 
d="M336 616v155h170v-155h-170zM336 -10v155h170v-155h-170zM336 303v155h170v-155h-170z" />
    <glyph glyph-name="cid22353" unicode="&#x20ac;" horiz-adv-x="662" 
d="M546 327h-244v-45h244v-104h-244v-32h324v-104h-386q-35 0 -60 25t-25 60v51h-123v104h123v45h-123v104h123v136h471v-104h-324v-32h244v-104z" />
    <glyph glyph-name="cid22353" unicode="&#xe76c;" horiz-adv-x="662" 
d="M546 327h-244v-45h244v-104h-244v-32h324v-104h-386q-35 0 -60 25t-25 60v51h-123v104h123v45h-123v104h123v136h471v-104h-324v-32h244v-104z" />
    <glyph glyph-name="cid7714" unicode="&#x2122;" horiz-adv-x="810" 
d="M627 567h141v-271h-78v220l-81 -206h-114l-79 202v-216h-79v271h139l76 -197zM33 513v54h272v-54h-96v-217h-79v217h-97z" />
    <glyph glyph-name="cid4162" unicode="&#x2f00;" 
d="M950 364v-117h-900v117h900z" />
    <glyph glyph-name="cid4162" unicode="&#x4e00;" 
d="M950 364v-117h-900v117h900z" />
    <glyph glyph-name="cid4707" unicode="&#x2f01;" 
d="M418 -47v691h164v-691h-164z" />
    <glyph glyph-name="cid4707" unicode="&#x4e28;" 
d="M418 -47v691h164v-691h-164z" />
    <glyph glyph-name="cid4722" unicode="&#x2f02;" 
d="M538 120q-24 19 -52.5 49.5t-55.5 65.5t-50.5 71t-36.5 66l118 58q15 -25 36.5 -52.5t47.5 -54.5t54.5 -51t56.5 -43z" />
    <glyph glyph-name="cid4722" unicode="&#x4e36;" 
d="M538 120q-24 19 -52.5 49.5t-55.5 65.5t-50.5 71t-36.5 66l118 58q15 -25 36.5 -52.5t47.5 -54.5t54.5 -51t56.5 -43z" />
    <glyph glyph-name="cid4709" unicode="&#x2f03;" 
d="M303 45q65 29 108.5 76.5t69 103t36 114t10.5 110.5v213h170v-207q0 -96 -16.5 -179.5t-47.5 -149t-75.5 -111t-101.5 -66.5z" />
    <glyph glyph-name="cid4709" unicode="&#x4e3f;" 
d="M303 45q65 29 108.5 76.5t69 103t36 114t10.5 110.5v213h170v-207q0 -96 -16.5 -179.5t-47.5 -149t-75.5 -111t-101.5 -66.5z" />
    <glyph glyph-name="cid4185" unicode="&#x2f04;" 
d="M136 -48q-8 0 -11 1q-25 3 -41 17q-3 3 -5.5 6t-4.5 7q-3 2 -4 7q0 1 -0.5 1.5t-0.5 1.5q-6 15 -3 32v4q2 9 6 16q0 2 2 4q4 9 13 20l8 7l518 442h-525v116h709q7 0 10 -1h4q2 -1 5 -1l16 -6q10 -5 20 -15l2 -3q4 -4 8 -14l3 -7q3 -8 3 -16v-8q0 -2 -0.5 -2.5t-0.5 -1.5
q-1 -5 -2 -8.5t-3 -8.5q-5 -13 -15 -23l-8 -7l-520 -444h615v-116h-798z" />
    <glyph glyph-name="cid4185" unicode="&#x4e59;" 
d="M136 -48q-8 0 -11 1q-25 3 -41 17q-3 3 -5.5 6t-4.5 7q-3 2 -4 7q0 1 -0.5 1.5t-0.5 1.5q-6 15 -3 32v4q2 9 6 16q0 2 2 4q4 9 13 20l8 7l518 442h-525v116h709q7 0 10 -1h4q2 -1 5 -1l16 -6q10 -5 20 -15l2 -3q4 -4 8 -14l3 -7q3 -8 3 -16v-8q0 -2 -0.5 -2.5t-0.5 -1.5
q-1 -5 -2 -8.5t-3 -8.5q-5 -13 -15 -23l-8 -7l-520 -444h615v-116h-798z" />
    <glyph glyph-name="cid1597" unicode="&#x2f06;" 
d="M907 581v-113h-815v113h815zM928 110v-113h-857v113h857z" />
    <glyph glyph-name="cid1597" unicode="&#x4e8c;" 
d="M907 581v-113h-815v113h815zM928 110v-113h-857v113h857z" />
    <glyph glyph-name="cid4867" unicode="&#x2f07;" 
d="M955 566v-115h-911v115h374v84h163v-84h374z" />
    <glyph glyph-name="cid4867" unicode="&#x4ea0;" 
d="M955 566v-115h-911v115h374v84h163v-84h374z" />
    <glyph glyph-name="cid3238" unicode="&#x2f08;" 
d="M50 80q102 42 173.5 102.5t116.5 134.5t65.5 158.5t20.5 176.5l165 -11q0 -74 -9 -143q15 -67 44.5 -128t74.5 -114.5t107 -98t142 -77.5l-114 -137q-53 15 -100 44t-88 68.5t-76.5 88.5t-63.5 104q-56 -115 -143.5 -193t-200.5 -112z" />
    <glyph glyph-name="cid3238" unicode="&#x4eba;" 
d="M50 80q102 42 173.5 102.5t116.5 134.5t65.5 158.5t20.5 176.5l165 -11q0 -74 -9 -143q15 -67 44.5 -128t74.5 -114.5t107 -98t142 -77.5l-114 -137q-53 15 -100 44t-88 68.5t-76.5 88.5t-63.5 104q-56 -115 -143.5 -193t-200.5 -112z" />
    <glyph glyph-name="cid1592" unicode="&#x2f09;" 
d="M411 392q0 -95 -20.5 -170t-52 -130.5t-70.5 -92t-76 -55.5l-133 118q39 24 72.5 55t58.5 73.5t39 99.5t14 132v237h168v-267zM769 659v-588h171v-115h-243q-39 0 -65.5 27.5t-26.5 68.5v607h164z" />
    <glyph glyph-name="cid1592" unicode="&#x513f;" 
d="M411 392q0 -95 -20.5 -170t-52 -130.5t-70.5 -92t-76 -55.5l-133 118q39 24 72.5 55t58.5 73.5t39 99.5t14 132v237h168v-267zM769 659v-588h171v-115h-243q-39 0 -65.5 27.5t-26.5 68.5v607h164z" />
    <glyph glyph-name="cid3270" unicode="&#x2f0a;" 
d="M843 -59q-119 44 -200 121.5t-134 177.5q-24 -51 -56 -97t-74.5 -85t-96.5 -69t-122 -48l-113 134q81 27 144.5 68t110 93t76.5 113.5t44 129.5q-18 80 -27 160l151 12q16 -95 42 -181t71.5 -159.5t116.5 -132.5t176 -100z" />
    <glyph glyph-name="cid3270" unicode="&#x5165;" 
d="M843 -59q-119 44 -200 121.5t-134 177.5q-24 -51 -56 -97t-74.5 -85t-96.5 -69t-122 -48l-113 134q81 27 144.5 68t110 93t76.5 113.5t44 129.5q-18 80 -27 160l151 12q16 -95 42 -181t71.5 -159.5t116.5 -132.5t176 -100z" />
    <glyph glyph-name="cid982" unicode="&#x2f0b;" 
d="M729 652q5 -79 20 -167t42 -169.5t67.5 -149.5t96.5 -108l-135 -117q-44 31 -80 78t-63.5 104.5t-47.5 122t-33 131t-19 132.5t-6 126zM416 621q0 -90 -9.5 -191t-35.5 -194.5t-72 -171.5t-120 -123l-135 117q57 39 96.5 101t63.5 137.5t35 161.5t11 173z" />
    <glyph glyph-name="cid982" unicode="&#x516b;" 
d="M729 652q5 -79 20 -167t42 -169.5t67.5 -149.5t96.5 -108l-135 -117q-44 31 -80 78t-63.5 104.5t-47.5 122t-33 131t-19 132.5t-6 126zM416 621q0 -90 -9.5 -191t-35.5 -194.5t-72 -171.5t-120 -123l-135 117q57 39 96.5 101t63.5 137.5t35 161.5t11 173z" />
    <glyph glyph-name="cid4765" unicode="&#x2f0c;" 
d="M82 -53v676h786q20 0 34.5 -14.5t14.5 -37.5v-624h-336v114h172v448h-507v-562h-164z" />
    <glyph glyph-name="cid4765" unicode="&#x5182;" 
d="M82 -53v676h786q20 0 34.5 -14.5t14.5 -37.5v-624h-336v114h172v448h-507v-562h-164z" />
    <glyph glyph-name="cid4884" unicode="&#x2f0d;" 
d="M57 387v251h835q20 0 35 -14t15 -37v-200h-164v139h-557v-139h-164z" />
    <glyph glyph-name="cid4884" unicode="&#x5196;" 
d="M57 387v251h835q20 0 35 -14t15 -37v-200h-164v139h-557v-139h-164z" />
    <glyph glyph-name="cid4879" unicode="&#x2f0e;" 
d="M270 601v-116h-250v116h250zM270 162v-123l-250 -45v121z" />
    <glyph glyph-name="cid4879" unicode="&#x51ab;" 
d="M270 601v-116h-250v116h250zM270 162v-123l-250 -45v121z" />
    <glyph glyph-name="cid2091" unicode="&#x2f0f;" 
d="M54 11q64 40 104.5 106.5t41.5 142.5v359h539q29 0 50 -21t21 -51v-488h135v-115h-236q-27 0 -46 19t-19 47v494h-281v-260q0 -48 -11 -95.5t-31.5 -88.5t-49.5 -72t-65 -44z" />
    <glyph glyph-name="cid2091" unicode="&#x51e0;" 
d="M54 11q64 40 104.5 106.5t41.5 142.5v359h539q29 0 50 -21t21 -51v-488h135v-115h-236q-27 0 -46 19t-19 47v494h-281v-260q0 -48 -11 -95.5t-31.5 -88.5t-49.5 -72t-65 -44z" />
    <glyph glyph-name="cid5017" unicode="&#x2f10;" 
d="M924 627v-669h-794q-23 0 -39 16t-16 41v612h163v-555h523v555h163z" />
    <glyph glyph-name="cid5017" unicode="&#x51f5;" 
d="M924 627v-669h-794q-23 0 -39 16t-16 41v612h163v-555h523v555h163z" />
    <glyph glyph-name="cid1431" unicode="&#x2f11;" 
d="M96 618h785q20 0 34.5 -14.5t14.5 -37.5v-620h-330v115h166v442h-323q-9 -177 -63 -320.5t-154 -236.5l-157 91q42 37 77.5 87.5t63 110.5t45.5 128t24 140h-183v115z" />
    <glyph glyph-name="cid1431" unicode="&#x5200;" 
d="M96 618h785q20 0 34.5 -14.5t14.5 -37.5v-620h-330v115h166v442h-323q-9 -177 -63 -320.5t-154 -236.5l-157 91q42 37 77.5 87.5t63 110.5t45.5 128t24 140h-183v115z" />
    <glyph glyph-name="cid2543" unicode="&#x2f12;" 
d="M92 525h208q5 32 7.5 65t2.5 67h165q0 -34 -2 -67t-5 -65h413q20 0 34.5 -14.5t14.5 -35.5v-533h-330v118h166v353h-315q-16 -79 -39.5 -150t-53 -131.5t-62 -108.5t-66.5 -81l-161 92q31 28 61.5 67.5t57.5 88t49.5 105t39.5 118.5h-185v112z" />
    <glyph glyph-name="cid2543" unicode="&#x529b;" 
d="M92 525h208q5 32 7.5 65t2.5 67h165q0 -34 -2 -67t-5 -65h413q20 0 34.5 -14.5t14.5 -35.5v-533h-330v118h166v353h-315q-16 -79 -39.5 -150t-53 -131.5t-62 -108.5t-66.5 -81l-161 92q31 28 61.5 67.5t57.5 88t49.5 105t39.5 118.5h-185v112z" />
    <glyph glyph-name="cid4860" unicode="&#x2f13;" 
d="M69 408q68 58 110 121t71 128l133 -29q-6 -29 -17 -60h492q32 0 52 -22.5t20 -56.5v-537h-346v116h181v383h-455q-26 -45 -58 -84.5t-67 -69.5z" />
    <glyph glyph-name="cid4860" unicode="&#x52f9;" 
d="M69 408q68 58 110 121t71 128l133 -29q-6 -29 -17 -60h492q32 0 52 -22.5t20 -56.5v-537h-346v116h181v383h-455q-26 -45 -58 -84.5t-67 -69.5z" />
    <glyph glyph-name="cid4710" unicode="&#x2f14;" 
d="M900 477q-102 -73 -233.5 -125t-292.5 -90l-45 127q61 15 132 40.5t141 57t132.5 66t106.5 67.5zM892 65v-115h-728q-28 0 -46.5 19t-18.5 48v625h167v-577h626z" />
    <glyph glyph-name="cid4710" unicode="&#x5315;" 
d="M900 477q-102 -73 -233.5 -125t-292.5 -90l-45 127q61 15 132 40.5t141 57t132.5 66t106.5 67.5zM892 65v-115h-728q-28 0 -46.5 19t-18.5 48v625h167v-577h626z" />
    <glyph glyph-name="cid4740" unicode="&#x2f15;" 
d="M916 60v-115h-768q-28 0 -46.5 19t-18.5 48v625h833v-114h-668v-463h668z" />
    <glyph glyph-name="cid4740" unicode="&#x531a;" 
d="M916 60v-115h-768q-28 0 -46.5 19t-18.5 48v625h833v-114h-668v-463h668z" />
    <glyph glyph-name="cid3397" unicode="&#x2f17;" 
d="M413 -50v333h-345v116h345v252h173v-252h345v-116h-345v-333h-173z" />
    <glyph glyph-name="cid3397" unicode="&#x5341;" 
d="M413 -50v333h-345v116h345v252h173v-252h345v-116h-345v-333h-173z" />
    <glyph glyph-name="cid1150" unicode="&#x2f18;" 
d="M639 165q-22 22 -44 53.5t-41 66.5t-33.5 71.5t-20.5 68.5l121 41q22 -54 60 -111t87 -102zM231 -55v713h168v-713h-168z" />
    <glyph glyph-name="cid1150" unicode="&#x535c;" 
d="M639 165q-22 22 -44 53.5t-41 66.5t-33.5 71.5t-20.5 68.5l121 41q22 -54 60 -111t87 -102zM231 -55v713h168v-713h-168z" />
    <glyph glyph-name="cid4946" unicode="&#x2f19;" 
d="M732 -60h-169v703h339q33 0 55.5 -22t22.5 -54v-569h-215v107h45v422h-78v-587z" />
    <glyph glyph-name="cid4946" unicode="&#x5369;" 
d="M732 -60h-169v703h339q33 0 55.5 -22t22.5 -54v-569h-215v107h45v422h-78v-587z" />
    <glyph glyph-name="cid1228" unicode="&#x2f1a;" 
d="M59 -11q13 26 22 56.5t14 61.5t7 61t2 56v414h836v-115h-668v-319q0 -63 -10 -132.5t-37 -129.5z" />
    <glyph glyph-name="cid1228" unicode="&#x5382;" 
d="M59 -11q13 26 22 56.5t14 61.5t7 61t2 56v414h836v-115h-668v-319q0 -63 -10 -132.5t-37 -129.5z" />
    <glyph glyph-name="cid5020" unicode="&#x2f1b;" 
d="M748 69l-80 295h157l92 -321q11 -35 -2.5 -62t-57.5 -27h-719q-20 0 -33 9.5t-19.5 24t-6.5 31.5t6 32l239 604h165l-228 -586h487z" />
    <glyph glyph-name="cid5020" unicode="&#x53b6;" 
d="M748 69l-80 295h157l92 -321q11 -35 -2.5 -62t-57.5 -27h-719q-20 0 -33 9.5t-19.5 24t-6.5 31.5t6 32l239 604h165l-228 -586h487z" />
    <glyph glyph-name="cid4283" unicode="&#x2f1c;" 
d="M91 636h734q17 0 31.5 -8t23 -23t9 -36t-10.5 -46q-45 -97 -109 -180t-142 -152q85 -41 169 -67t159 -35l-61 -146q-97 9 -201.5 46t-204.5 96q-94 -60 -192 -96.5t-191 -45.5l-61 146q70 8 145.5 34t150.5 66q-70 59 -126 126t-91 141l134 36q38 -61 95 -115t126 -101
q73 54 134 115.5t103 129.5h-624v115z" />
    <glyph glyph-name="cid4283" unicode="&#x53c8;" 
d="M91 636h734q17 0 31.5 -8t23 -23t9 -36t-10.5 -46q-45 -97 -109 -180t-142 -152q85 -41 169 -67t159 -35l-61 -146q-97 9 -201.5 46t-204.5 96q-94 -60 -192 -96.5t-191 -45.5l-61 146q70 8 145.5 34t150.5 66q-70 59 -126 126t-91 141l134 36q38 -61 95 -115t126 -101
q73 54 134 115.5t103 129.5h-624v115z" />
    <glyph glyph-name="cid2407" unicode="&#x2f1d;" 
d="M800 619q37 0 60.5 -22t23.5 -60v-578h-769v660h685zM718 74v430h-437v-430h437z" />
    <glyph glyph-name="cid2407" unicode="&#x53e3;" 
d="M800 619q37 0 60.5 -22t23.5 -60v-578h-769v660h685zM718 74v430h-437v-430h437z" />
    <glyph glyph-name="cid5523" unicode="&#x2f1e;" 
d="M877 641q21 0 35.5 -15t14.5 -38v-636h-855v689h805zM770 71v452h-541v-452h541z" />
    <glyph glyph-name="cid5523" unicode="&#x56d7;" 
d="M877 641q21 0 35.5 -15t14.5 -38v-636h-855v689h805zM770 71v452h-541v-452h541z" />
    <glyph glyph-name="cid3698" unicode="&#x2f1f;" 
d="M917 468v-118h-336v-274h364v-116h-891v116h364v274h-336v118h336v180h163v-180h336z" />
    <glyph glyph-name="cid3698" unicode="&#x571f;" 
d="M917 468v-118h-336v-274h364v-116h-891v116h364v274h-336v118h336v180h163v-180h336z" />
    <glyph glyph-name="cid3414" unicode="&#x2f20;" 
d="M945 470v-118h-364v-277h334v-115h-831v115h334v277h-364v118h364v186h163v-186h364z" />
    <glyph glyph-name="cid3414" unicode="&#x58eb;" 
d="M945 470v-118h-364v-277h334v-115h-831v115h334v277h-364v118h364v186h163v-186h364z" />
    <glyph glyph-name="cid5660" unicode="&#x2f21;" 
d="M54 391q31 32 57 61.5t47.5 60.5t40.5 66t37 79l148 -17l-20 -55h442q20 0 37 -10t27 -26.5t11.5 -38.5t-9.5 -46q-32 -75 -92 -148.5t-141 -139.5q69 -33 146.5 -56.5t166.5 -36.5l-60 -145q-93 11 -190 51t-189 99q-88 -53 -187 -91.5t-208 -58.5l-70 145q84 9 168 36
t162 69q-43 37 -80.5 75.5t-67.5 78.5q-19 -26 -38 -48t-38 -42zM498 262q66 46 120.5 99t95.5 112h-402q-3 -5 -5.5 -10t-5.5 -10q44 -55 92.5 -102.5t104.5 -88.5z" />
    <glyph glyph-name="cid5660" unicode="&#x5902;" 
d="M54 391q31 32 57 61.5t47.5 60.5t40.5 66t37 79l148 -17l-20 -55h442q20 0 37 -10t27 -26.5t11.5 -38.5t-9.5 -46q-32 -75 -92 -148.5t-141 -139.5q69 -33 146.5 -56.5t166.5 -36.5l-60 -145q-93 11 -190 51t-189 99q-88 -53 -187 -91.5t-208 -58.5l-70 145q84 9 168 36
t162 69q-43 37 -80.5 75.5t-67.5 78.5q-19 -26 -38 -48t-38 -42zM498 262q66 46 120.5 99t95.5 112h-402q-3 -5 -5.5 -10t-5.5 -10q44 -55 92.5 -102.5t104.5 -88.5z" />
    <glyph glyph-name="cid3859" unicode="&#x2f23;" 
d="M77 436q28 19 57.5 44.5t56.5 54.5t49.5 59.5t37.5 59.5l149 -9q-7 -18 -14.5 -36t-16.5 -35h446q23 0 39.5 -10t26 -25.5t12.5 -34.5t-2 -38q-22 -83 -69.5 -153.5t-111 -127.5t-139 -100.5t-154.5 -74t-157 -48t-147 -21.5l-63 151q98 8 202.5 32t199.5 71l-203 45v117
l337 -77q44 36 78.5 79.5t58.5 95.5h-426q-31 -42 -64.5 -75t-66.5 -53z" />
    <glyph glyph-name="cid3859" unicode="&#x5915;" 
d="M77 436q28 19 57.5 44.5t56.5 54.5t49.5 59.5t37.5 59.5l149 -9q-7 -18 -14.5 -36t-16.5 -35h446q23 0 39.5 -10t26 -25.5t12.5 -34.5t-2 -38q-22 -83 -69.5 -153.5t-111 -127.5t-139 -100.5t-154.5 -74t-157 -48t-147 -21.5l-63 151q98 8 202.5 32t199.5 71l-203 45v117
l337 -77q44 36 78.5 79.5t58.5 95.5h-426q-31 -42 -64.5 -75t-66.5 -53z" />
    <glyph glyph-name="cid1398" unicode="&#x2f24;" 
d="M943 487v-114h-353q22 -61 60 -114t87 -93t105 -62.5t113 -22.5l-50 -140q-74 3 -136.5 25.5t-113.5 60t-90.5 88t-66.5 110.5q-68 -131 -169.5 -198.5t-234.5 -85.5l-50 140q60 4 116 27.5t103.5 62t83.5 90t57 112.5h-348v114h362v167h163v-167h362z" />
    <glyph glyph-name="cid1398" unicode="&#x5927;" 
d="M943 487v-114h-353q22 -61 60 -114t87 -93t105 -62.5t113 -22.5l-50 -140q-74 3 -136.5 25.5t-113.5 60t-90.5 88t-66.5 110.5q-68 -131 -169.5 -198.5t-234.5 -85.5l-50 140q60 4 116 27.5t103.5 62t83.5 90t57 112.5h-348v114h362v167h163v-167h362z" />
    <glyph glyph-name="cid2927" unicode="&#x2f25;" 
d="M323 654l166 -34l-53 -86h511v-114h-115q-26 -72 -65.5 -134t-93.5 -114l276 -82l-80 -147l-337 122q-88 -51 -191 -81.5t-221 -40.5l-69 149q75 6 142.5 18t127.5 32l-233 85l106 193h-135v114h198zM366 420l-80 -132l208 -63q52 37 92.5 85t69.5 110h-290z" />
    <glyph glyph-name="cid2927" unicode="&#x5973;" 
d="M323 654l166 -34l-53 -86h511v-114h-115q-26 -72 -65.5 -134t-93.5 -114l276 -82l-80 -147l-337 122q-88 -51 -191 -81.5t-221 -40.5l-69 149q75 6 142.5 18t127.5 32l-233 85l106 193h-135v114h198zM366 420l-80 -132l208 -63q52 37 92.5 85t69.5 110h-290z" />
    <glyph glyph-name="cid4656" unicode="&#x2f26;" 
d="M83 635h738q29 0 47.5 -13t24.5 -31.5t-1.5 -40.5t-31.5 -40l-211 -151h296v-114h-370v-294h-376v116h203v178h-348v114h356l216 160h-543v116z" />
    <glyph glyph-name="cid4656" unicode="&#x5b50;" 
d="M83 635h738q29 0 47.5 -13t24.5 -31.5t-1.5 -40.5t-31.5 -40l-211 -151h296v-114h-370v-294h-376v116h203v178h-348v114h356l216 160h-543v116z" />
    <glyph glyph-name="cid5934" unicode="&#x2f27;" 
d="M781 481h-563v-97h-164v212h364v64h163v-64h292q32 0 52 -22.5t20 -55.5v-134h-164v97z" />
    <glyph glyph-name="cid5934" unicode="&#x5b80;" 
d="M781 481h-563v-97h-164v212h364v64h163v-64h292q32 0 52 -22.5t20 -55.5v-134h-164v97z" />
    <glyph glyph-name="cid1386" unicode="&#x2f28;" 
d="M955 537v-115h-151v-480h-279v117h112v363h-593v115h593v118h167v-118h151zM370 74q-29 14 -60.5 38.5t-61.5 54t-56 60.5t-42 59l106 73q37 -45 93 -91.5t117 -75.5z" />
    <glyph glyph-name="cid1386" unicode="&#x5bf8;" 
d="M955 537v-115h-151v-480h-279v117h112v363h-593v115h593v118h167v-118h151zM370 74q-29 14 -60.5 38.5t-61.5 54t-56 60.5t-42 59l106 73q37 -45 93 -91.5t117 -75.5z" />
    <glyph glyph-name="cid3948" unicode="&#x2f29;" 
d="M799 98q-16 36 -31.5 84t-28.5 102t-23 110t-14 106l138 21q4 -40 15 -87.5t26 -96t33 -95.5t38 -86zM47 156q20 39 38 86t33 95.5t25.5 96t15.5 87.5l138 -21q-5 -50 -14.5 -106t-22.5 -110t-28.5 -102t-31.5 -84zM575 656v-710h-281v117h118v593h163z" />
    <glyph glyph-name="cid3948" unicode="&#x5c0f;" 
d="M799 98q-16 36 -31.5 84t-28.5 102t-23 110t-14 106l138 21q4 -40 15 -87.5t26 -96t33 -95.5t38 -86zM47 156q20 39 38 86t33 95.5t25.5 96t15.5 87.5l138 -21q-5 -50 -14.5 -106t-22.5 -110t-28.5 -102t-31.5 -84zM575 656v-710h-281v117h118v593h163z" />
    <glyph glyph-name="cid5302" unicode="&#x2f2a;" 
d="M951 514v-116h-246v-336h246v-115h-346q-26 0 -46.5 20t-20.5 47v384h-66q-22 -76 -54 -144t-71 -126.5t-84 -106t-93 -81.5l-121 149q72 46 136.5 125.5t108.5 183.5h-239v116h278q8 34 14 69t8 72h158q-3 -74 -15 -141h453z" />
    <glyph glyph-name="cid5302" unicode="&#x5c22;" 
d="M951 514v-116h-246v-336h246v-115h-346q-26 0 -46.5 20t-20.5 47v384h-66q-22 -76 -54 -144t-71 -126.5t-84 -106t-93 -81.5l-121 149q72 46 136.5 125.5t108.5 183.5h-239v116h278q8 34 14 69t8 72h158q-3 -74 -15 -141h453z" />
    <glyph glyph-name="cid3395" unicode="&#x2f2b;" 
d="M777 411v116h-507v-116h507zM57 -13q20 37 32.5 95.5t12.5 125.5v433h770q29 0 50 -21t21 -52v-272h-673v-132q0 -71 -14.5 -130t-39.5 -91z" />
    <glyph glyph-name="cid3395" unicode="&#x5c38;" 
d="M777 411v116h-507v-116h507zM57 -13q20 37 32.5 95.5t12.5 125.5v433h770q29 0 50 -21t21 -52v-272h-673v-132q0 -71 -14.5 -130t-39.5 -91z" />
    <glyph glyph-name="cid6004" unicode="&#x2f2c;" 
d="M765 231v306h162v-419h-346v-175h-163v175h-283q-26 0 -44.5 19t-18.5 46v354h162v-306h184v425h163v-425h184z" />
    <glyph glyph-name="cid6004" unicode="&#x5c6e;" 
d="M765 231v306h162v-419h-346v-175h-163v175h-283q-26 0 -44.5 19t-18.5 46v354h162v-306h184v425h163v-425h184z" />
    <glyph glyph-name="cid3318" unicode="&#x2f2d;" 
d="M762 70v484h163v-600h-789q-26 0 -44 20t-18 47v533h163v-484h181v585h163v-585h181z" />
    <glyph glyph-name="cid3318" unicode="&#x5c71;" 
d="M762 70v484h163v-600h-789q-26 0 -44 20t-18 47v533h163v-484h181v585h163v-585h181z" />
    <glyph glyph-name="cid6165" unicode="&#x2f2e;" 
d="M455 646l170 -59l-98 -283l100 -309l-182 -42l-73 366zM766 646l172 -59l-97 -283l99 -309l-180 -42l-79 366zM141 646l175 -59l-99 -283l101 -309l-184 -42l-75 366z" />
    <glyph glyph-name="cid6165" unicode="&#x5ddb;" 
d="M455 646l170 -59l-98 -283l100 -309l-182 -42l-73 366zM766 646l172 -59l-97 -283l99 -309l-180 -42l-79 366zM141 646l175 -59l-99 -283l101 -309l-184 -42l-75 366z" />
    <glyph glyph-name="cid1789" unicode="&#x2f2f;" 
d="M945 74v-115h-891v115h364v445h-342v115h847v-115h-342v-445h364z" />
    <glyph glyph-name="cid1789" unicode="&#x5de5;" 
d="M945 74v-115h-891v115h364v445h-342v115h847v-115h-342v-445h364z" />
    <glyph glyph-name="cid2093" unicode="&#x2f30;" 
d="M73 626h746q35 0 55 -20t20 -54v-300h-644v-182h676v-115h-777q-28 0 -46 19t-18 46v346h642v145h-654v115z" />
    <glyph glyph-name="cid2093" unicode="&#x5df1;" 
d="M73 626h746q35 0 55 -20t20 -54v-300h-644v-182h676v-115h-777q-28 0 -46 19t-18 46v346h642v145h-654v115z" />
    <glyph glyph-name="cid2238" unicode="&#x2f31;" 
d="M418 -58v466h-184v-385h-163v499h347v133h163v-133h297q22 0 36 -14.5t14 -36.5v-448h-260v114h97v271h-184v-466h-163z" />
    <glyph glyph-name="cid2238" unicode="&#x5dfe;" 
d="M418 -58v466h-184v-385h-163v499h347v133h163v-133h297q22 0 36 -14.5t14 -36.5v-448h-260v114h97v271h-184v-466h-163z" />
    <glyph glyph-name="cid1732" unicode="&#x2f32;" 
d="M418 -58v256h-366v112h366v199h-345v116h853v-116h-345v-199h366v-112h-366v-256h-163z" />
    <glyph glyph-name="cid1732" unicode="&#x5e72;" 
d="M418 -58v256h-366v112h366v199h-345v116h853v-116h-345v-199h366v-112h-366v-256h-163z" />
    <glyph glyph-name="cid6163" unicode="&#x2f33;" 
d="M763 67l-52 153h161l59 -179q6 -17 5 -33t-8 -28.5t-21.5 -20t-35.5 -7.5h-690q-21 0 -33.5 11t-17 27t-0.5 32.5t16 27.5l241 252h-272q-21 0 -33.5 11.5t-17 27t-1 32.5t14.5 29l226 252h180l-214 -236h228l125 130h200l-450 -481h390z" />
    <glyph glyph-name="cid6163" unicode="&#x5e7a;" 
d="M763 67l-52 153h161l59 -179q6 -17 5 -33t-8 -28.5t-21.5 -20t-35.5 -7.5h-690q-21 0 -33.5 11t-17 27t-0.5 32.5t16 27.5l241 252h-272q-21 0 -33.5 11.5t-17 27t-1 32.5t14.5 29l226 252h180l-214 -236h228l125 130h200l-450 -481h390z" />
    <glyph glyph-name="cid1852" unicode="&#x2f34;" 
d="M47 -26q21 48 30.5 108.5t9.5 120.5v384h385v64h159v-64h321v-115h-698v-257q0 -33 -3 -72t-8 -76.5t-12 -71t-15 -55.5z" />
    <glyph glyph-name="cid1852" unicode="&#x5e7f;" 
d="M47 -26q21 48 30.5 108.5t9.5 120.5v384h385v64h159v-64h321v-115h-698v-257q0 -33 -3 -72t-8 -76.5t-12 -71t-15 -55.5z" />
    <glyph glyph-name="cid5016" unicode="&#x2f35;" 
d="M93 305q-14 0 -22 7t-12 17t-3 21t7 19l108 171h-113v104h245q19 0 32.5 -7.5t19 -20t3 -27.5t-14.5 -30l-93 -151h85q32 0 45 -21t5 -56q-11 -53 -32.5 -109t-48.5 -110q41 -20 84 -31.5t87 -11.5h483v-115h-519q-50 0 -99.5 13t-96.5 37q-11 -16 -21.5 -31.5
t-21.5 -29.5l-152 52q19 24 37 49t35 51q-22 22 -41.5 46.5t-36.5 52.5l76 78q14 -20 29.5 -38t32.5 -35q14 27 26 53.5t22 52.5h-135z" />
    <glyph glyph-name="cid5016" unicode="&#x5ef4;" 
d="M93 305q-14 0 -22 7t-12 17t-3 21t7 19l108 171h-113v104h245q19 0 32.5 -7.5t19 -20t3 -27.5t-14.5 -30l-93 -151h85q32 0 45 -21t5 -56q-11 -53 -32.5 -109t-48.5 -110q41 -20 84 -31.5t87 -11.5h483v-115h-519q-50 0 -99.5 13t-96.5 37q-11 -16 -21.5 -31.5
t-21.5 -29.5l-152 52q19 24 37 49t35 51q-22 22 -41.5 46.5t-36.5 52.5l76 78q14 -20 29.5 -38t32.5 -35q14 27 26 53.5t22 52.5h-135z" />
    <glyph glyph-name="cid5293" unicode="&#x2f36;" 
d="M945 415v-116h-161v-358h-165v358h-249q-3 -53 -11.5 -106.5t-21.5 -101t-29.5 -86.5t-35.5 -64l-168 62q23 31 40 67t29 74.5t18.5 78t8.5 76.5h-146v116h148v236h169v-236h248v236h165v-236h161z" />
    <glyph glyph-name="cid5293" unicode="&#x5efe;" 
d="M945 415v-116h-161v-358h-165v358h-249q-3 -53 -11.5 -106.5t-21.5 -101t-29.5 -86.5t-35.5 -64l-168 62q23 31 40 67t29 74.5t18.5 78t8.5 76.5h-146v116h148v236h169v-236h248v236h165v-236h161z" />
    <glyph glyph-name="cid5366" unicode="&#x2f37;" 
d="M943 540v-116l-444 -13q31 -73 76.5 -127t102.5 -92.5t124.5 -63t144.5 -39.5l-102 -149q-93 22 -174 61t-147.5 96t-116.5 134t-80 175l-274 -8v116l247 7q-5 30 -8 62t-5 66l156 6q3 -35 7.5 -67.5t11.5 -61.5l200 6l-21 106h159l17 -102z" />
    <glyph glyph-name="cid5366" unicode="&#x5f0b;" 
d="M943 540v-116l-444 -13q31 -73 76.5 -127t102.5 -92.5t124.5 -63t144.5 -39.5l-102 -149q-93 22 -174 61t-147.5 96t-116.5 134t-80 175l-274 -8v116l247 7q-5 30 -8 62t-5 66l156 6q3 -35 7.5 -67.5t11.5 -61.5l200 6l-21 106h159l17 -102z" />
    <glyph glyph-name="cid1798" unicode="&#x2f38;" 
d="M761 133h-677v304h657v78h-666v116h781q21 0 36 -15.5t15 -36.5v-256h-657v-72h625q20 0 34.5 -17t14.5 -37v-250h-391v110h228v76z" />
    <glyph glyph-name="cid1798" unicode="&#x5f13;" 
d="M761 133h-677v304h657v78h-666v116h781q21 0 36 -15.5t15 -36.5v-256h-657v-72h625q20 0 34.5 -17t14.5 -37v-250h-391v110h228v76z" />
    <glyph glyph-name="cid5986" unicode="&#x2f39;" 
d="M89 621h767q27 0 45 -18.5t18 -46.5v-604h-839v114h676v162h-635v118h635v161h-667v114z" />
    <glyph glyph-name="cid5986" unicode="&#x5f50;" 
d="M89 621h767q27 0 45 -18.5t18 -46.5v-604h-839v114h676v162h-635v118h635v161h-667v114z" />
    <glyph glyph-name="cid5614" unicode="&#x2f3a;" 
d="M121 75q41 3 99.5 11t124 18.5t133.5 23t128.5 25t109.5 24t77 20.5l90 -101q-36 -16 -88.5 -32t-114 -31.5t-129.5 -30t-134 -26.5t-127 -21.5t-110 -15.5zM123 306q42 3 98 11t118.5 18.5t126.5 23t122 25t104.5 24t74.5 20.5l90 -99q-36 -16 -86 -32t-109 -31.5
t-122.5 -30t-126.5 -27t-122 -22.5t-108 -16zM117 530q41 3 96.5 10.5t116.5 17t123.5 20.5t119 22t102.5 21.5t74 19.5l90 -99q-35 -16 -84.5 -31t-106.5 -29.5t-119.5 -28t-124.5 -24.5t-120 -20t-107 -15z" />
    <glyph glyph-name="cid5614" unicode="&#x5f61;" 
d="M121 75q41 3 99.5 11t124 18.5t133.5 23t128.5 25t109.5 24t77 20.5l90 -101q-36 -16 -88.5 -32t-114 -31.5t-129.5 -30t-134 -26.5t-127 -21.5t-110 -15.5zM123 306q42 3 98 11t118.5 18.5t126.5 23t122 25t104.5 24t74.5 20.5l90 -99q-36 -16 -86 -32t-109 -31.5
t-122.5 -30t-126.5 -27t-122 -22.5t-108 -16zM117 530q41 3 96.5 10.5t116.5 17t123.5 20.5t119 22t102.5 21.5t74 19.5l90 -99q-35 -16 -84.5 -31t-106.5 -29.5t-119.5 -28t-124.5 -24.5t-120 -20t-107 -15z" />
    <glyph glyph-name="cid5600" unicode="&#x2f3b;" 
d="M146 -60v271q-29 -15 -59 -25l-67 133q67 23 128 62t105 84l98 -71q-43 -71 -110 -123h78v-331h-173zM20 532q34 14 61 28t49.5 30t41.5 34t36 40l117 -43q-14 -33 -39 -66t-58 -62t-71.5 -52.5t-77.5 -37.5z" />
    <glyph glyph-name="cid5600" unicode="&#x5f73;" 
d="M146 -60v271q-29 -15 -59 -25l-67 133q67 23 128 62t105 84l98 -71q-43 -71 -110 -123h78v-331h-173zM20 532q34 14 61 28t49.5 30t41.5 34t36 40l117 -43q-14 -33 -39 -66t-58 -62t-71.5 -52.5t-77.5 -37.5z" />
    <glyph glyph-name="cid3983" unicode="&#x2f3c;" 
d="M607 427q-51 49 -89 102t-61 102l119 42q14 -20 32 -41.5t39 -43t43 -41.5t45 -36zM834 44q-13 32 -23 74t-17 89t-12 97t-7 100l126 19q6 -38 14.5 -82t19.5 -88t23.5 -84t25.5 -70zM16 99q32 66 52 150t31 174l130 -19q-2 -50 -7.5 -100t-14 -97.5t-20 -89t-25.5 -73.5
zM344 -61q-26 0 -42.5 20t-16.5 45v526h171v-490h307v-101h-419z" />
    <glyph glyph-name="cid3983" unicode="&#x5fc3;" 
d="M607 427q-51 49 -89 102t-61 102l119 42q14 -20 32 -41.5t39 -43t43 -41.5t45 -36zM834 44q-13 32 -23 74t-17 89t-12 97t-7 100l126 19q6 -38 14.5 -82t19.5 -88t23.5 -84t25.5 -70zM16 99q32 66 52 150t31 174l130 -19q-2 -50 -7.5 -100t-14 -97.5t-20 -89t-25.5 -73.5
zM344 -61q-26 0 -42.5 20t-16.5 45v526h171v-490h307v-101h-419z" />
    <glyph glyph-name="cid1765" unicode="&#x2f3d;" 
d="M943 544v-114l-385 -15q17 -44 40 -79.5t50 -64.5q55 26 100 52t76 51l109 -67q-35 -34 -79 -66t-96 -63q48 -32 97.5 -56.5t96.5 -47.5l-102 -131q-63 28 -128 64.5t-124 87.5q-112 -51 -225 -87t-207 -52l-90 123q45 8 95.5 21t104.5 29.5t109.5 35.5t109.5 40
q-31 43 -55.5 93t-41.5 110l-350 -13v116l326 12q-4 31 -6 64t-2 69h149q0 -35 3 -67t8 -61l151 6l-28 101h150l24 -96z" />
    <glyph glyph-name="cid1765" unicode="&#x6208;" 
d="M943 544v-114l-385 -15q17 -44 40 -79.5t50 -64.5q55 26 100 52t76 51l109 -67q-35 -34 -79 -66t-96 -63q48 -32 97.5 -56.5t96.5 -47.5l-102 -131q-63 28 -128 64.5t-124 87.5q-112 -51 -225 -87t-207 -52l-90 123q45 8 95.5 21t104.5 29.5t109.5 35.5t109.5 40
q-31 43 -55.5 93t-41.5 110l-350 -13v116l326 12q-4 31 -6 64t-2 69h149q0 -35 3 -67t8 -61l151 6l-28 101h150l24 -96z" />
    <glyph glyph-name="cid3437" unicode="&#x2f3f;" 
d="M907 440v-115h-326v-72h364v-118h-364v-187h-315v115h152v72h-364v118h364v72h-326v115h326v77h-341v115h845v-115h-341v-77h326z" />
    <glyph glyph-name="cid3437" unicode="&#x624b;" 
d="M907 440v-115h-326v-72h364v-118h-364v-187h-315v115h152v72h-364v118h364v72h-326v115h326v77h-341v115h845v-115h-341v-77h326z" />
    <glyph glyph-name="cid4518" unicode="&#x2f40;" 
d="M94 390h324v83h-357v114h357v67h163v-67h357v-114h-357v-83h258q25 0 41 -11.5t22 -29t2.5 -38t-16.5 -38.5q-35 -42 -84.5 -80t-110.5 -73q60 -15 125 -25t138 -14l-48 -140q-120 0 -224 23t-198 62q-99 -35 -200 -57.5t-195 -27.5l-48 140q65 4 130.5 14t129.5 25
q-88 55 -169 115l97 39h-137v116zM506 183q52 20 98 42.5t85 48.5h-372q45 -24 91.5 -47t97.5 -44z" />
    <glyph glyph-name="cid4518" unicode="&#x652f;" 
d="M94 390h324v83h-357v114h357v67h163v-67h357v-114h-357v-83h258q25 0 41 -11.5t22 -29t2.5 -38t-16.5 -38.5q-35 -42 -84.5 -80t-110.5 -73q60 -15 125 -25t138 -14l-48 -140q-120 0 -224 23t-198 62q-99 -35 -200 -57.5t-195 -27.5l-48 140q65 4 130.5 14t129.5 25
q-88 55 -169 115l97 39h-137v116zM506 183q52 20 98 42.5t85 48.5h-372q45 -24 91.5 -47t97.5 -44z" />
    <glyph glyph-name="cid6409" unicode="&#x2f41;" 
d="M94 390h299v264h168v-67h377v-114h-377v-83h286q25 0 41.5 -11.5t23 -29t3 -38t-17.5 -38.5q-35 -42 -86 -80.5t-113 -73.5q59 -14 122.5 -24t135.5 -14l-48 -140q-119 0 -222.5 23t-197.5 61q-100 -35 -202 -57t-195 -27l-48 140q65 4 130.5 14t129.5 25
q-88 55 -169 115l97 39h-137v116zM506 183q52 20 98 42.5t85 48.5h-372q45 -24 91.5 -47t97.5 -44z" />
    <glyph glyph-name="cid6409" unicode="&#x6534;" 
d="M94 390h299v264h168v-67h377v-114h-377v-83h286q25 0 41.5 -11.5t23 -29t3 -38t-17.5 -38.5q-35 -42 -86 -80.5t-113 -73.5q59 -14 122.5 -24t135.5 -14l-48 -140q-119 0 -222.5 23t-197.5 61q-100 -35 -202 -57t-195 -27l-48 140q65 4 130.5 14t129.5 25
q-88 55 -169 115l97 39h-137v116zM506 183q52 20 98 42.5t85 48.5h-372q45 -24 91.5 -47t97.5 -44z" />
    <glyph glyph-name="cid3795" unicode="&#x2f42;" 
d="M943 576v-112h-116q-29 -94 -79 -168t-117 -134q81 -39 164.5 -57.5t159.5 -23.5l-48 -140q-106 11 -209 42.5t-196 85.5q-94 -54 -198.5 -85.5t-211.5 -42.5l-48 140q76 5 160 24t166 58q-68 60 -118.5 135t-79.5 166h-116v112h362v78h163v-78h362zM499 243
q54 42 99.5 96.5t81.5 124.5h-361q35 -70 81 -124.5t99 -96.5z" />
    <glyph glyph-name="cid3795" unicode="&#x6587;" 
d="M943 576v-112h-116q-29 -94 -79 -168t-117 -134q81 -39 164.5 -57.5t159.5 -23.5l-48 -140q-106 11 -209 42.5t-196 85.5q-94 -54 -198.5 -85.5t-211.5 -42.5l-48 140q76 5 160 24t166 58q-68 60 -118.5 135t-79.5 166h-116v112h362v78h163v-78h362zM499 243
q54 42 99.5 96.5t81.5 124.5h-361q35 -70 81 -124.5t99 -96.5z" />
    <glyph glyph-name="cid1526" unicode="&#x2f43;" 
d="M947 174v-112l-198 -5v-116h-166v112l-531 -13v114l531 12v488h166v-485zM515 372v-116l-432 15v116zM515 591v-113l-432 13v115z" />
    <glyph glyph-name="cid1526" unicode="&#x6597;" 
d="M947 174v-112l-198 -5v-116h-166v112l-531 -13v114l531 12v488h166v-485zM515 372v-116l-432 15v116zM515 591v-113l-432 13v115z" />
    <glyph glyph-name="cid2240" unicode="&#x2f44;" 
d="M604 -58v342h-310v-60q0 -35 -4.5 -74t-13.5 -76.5t-23 -71.5t-33 -60l-167 44q35 55 56 122t21 133v390h789v-116h-625v-115h653v-116h-178v-342h-165z" />
    <glyph glyph-name="cid2240" unicode="&#x65a4;" 
d="M604 -58v342h-310v-60q0 -35 -4.5 -74t-13.5 -76.5t-23 -71.5t-33 -60l-167 44q35 55 56 122t21 133v390h789v-116h-625v-115h653v-116h-178v-342h-165z" />
    <glyph glyph-name="cid1626" unicode="&#x2f45;" 
d="M951 584v-113h-550q-1 -25 -2 -48.5t-3 -45.5h441q22 0 37 -15t15 -40v-375h-330v115h164v202h-340q-11 -66 -28.5 -116.5t-41 -89.5t-52 -67.5t-62.5 -49.5l-151 99q46 34 79.5 73t56 89.5t34.5 116t15 152.5h-172v113h363v70h163v-70h364z" />
    <glyph glyph-name="cid1626" unicode="&#x65b9;" 
d="M951 584v-113h-550q-1 -25 -2 -48.5t-3 -45.5h441q22 0 37 -15t15 -40v-375h-330v115h164v202h-340q-11 -66 -28.5 -116.5t-41 -89.5t-52 -67.5t-62.5 -49.5l-151 99q46 34 79.5 73t56 89.5t34.5 116t15 152.5h-172v113h363v70h163v-70h364z" />
    <glyph glyph-name="cid3821" unicode="&#x2f46;" 
d="M933 380v-115h-376q-6 -21 -15 -39h123v-163h275v-115h-375q-30 0 -48.5 18.5t-18.5 46.5v136q-29 -41 -64 -75t-72 -59.5t-74 -43t-70 -26.5l-158 105q43 14 87 35t85 48t76.5 60t61.5 72h-296v115h342q2 11 3 23t1 24v89h-309v116h784v-116h-312v-101q0 -9 -0.5 -18
t-1.5 -17h352z" />
    <glyph glyph-name="cid3821" unicode="&#x65e0;" 
d="M933 380v-115h-376q-6 -21 -15 -39h123v-163h275v-115h-375q-30 0 -48.5 18.5t-18.5 46.5v136q-29 -41 -64 -75t-72 -59.5t-74 -43t-70 -26.5l-158 105q43 14 87 35t85 48t76.5 60t61.5 72h-296v115h342q2 11 3 23t1 24v89h-309v116h784v-116h-312v-101q0 -9 -0.5 -18
t-1.5 -17h352z" />
    <glyph glyph-name="cid3248" unicode="&#x2f47;" 
d="M826 630q23 0 38 -15t15 -37v-627h-759v679h706zM713 66v166h-427v-166h427zM713 515h-427v-165h427v165z" />
    <glyph glyph-name="cid3248" unicode="&#x65e5;" 
d="M826 630q23 0 38 -15t15 -37v-627h-759v679h706zM713 66v166h-427v-166h427zM713 515h-427v-165h427v165z" />
    <glyph glyph-name="cid4350" unicode="&#x2f48;" 
d="M869 629q22 0 36 -14.5t14 -37.5v-622h-839v674h789zM756 70v444h-513v-163h464v-118h-464v-163h513z" />
    <glyph glyph-name="cid4350" unicode="&#x66f0;" 
d="M869 629q22 0 36 -14.5t14 -37.5v-622h-839v674h789zM756 70v444h-513v-163h464v-118h-464v-163h513z" />
    <glyph glyph-name="cid4357" unicode="&#x2f49;" 
d="M77 -12q46 64 70 143t24 163v349h700q22 0 37 -16t15 -36v-647h-299v106h124v70h-424q-12 -59 -30.5 -105t-38.5 -71zM341 279q0 -13 -0.5 -25.5t-1.5 -24.5h409v94h-407v-44zM748 528h-407v-94h407v94z" />
    <glyph glyph-name="cid4357" unicode="&#x6708;" 
d="M77 -12q46 64 70 143t24 163v349h700q22 0 37 -16t15 -36v-647h-299v106h124v70h-424q-12 -59 -30.5 -105t-38.5 -71zM341 279q0 -13 -0.5 -25.5t-1.5 -24.5h409v94h-407v-44zM748 528h-407v-94h407v94z" />
    <glyph glyph-name="cid2849" unicode="&#x2f4a;" 
d="M418 -58v330q-27 -47 -57.5 -91.5t-64 -83.5t-69 -71.5t-71.5 -55.5l-112 112q40 27 82.5 65.5t83.5 83.5t78.5 93.5t68.5 95.5h-301v114h362v121h163v-121h362v-114h-302q31 -47 69 -95.5t79 -93.5t83 -83.5t83 -65.5l-112 -112q-36 23 -71.5 55t-69 71t-64 83.5
t-57.5 91.5v-329h-163z" />
    <glyph glyph-name="cid2849" unicode="&#x6728;" 
d="M418 -58v330q-27 -47 -57.5 -91.5t-64 -83.5t-69 -71.5t-71.5 -55.5l-112 112q40 27 82.5 65.5t83.5 83.5t78.5 93.5t68.5 95.5h-301v114h362v121h163v-121h362v-114h-302q31 -47 69 -95.5t79 -93.5t83 -83.5t83 -65.5l-112 -112q-36 23 -71.5 55t-69 71t-64 83.5
t-57.5 91.5v-329h-163z" />
    <glyph glyph-name="cid3124" unicode="&#x2f4b;" 
d="M43 73q102 29 173.5 65t117 80.5t66.5 97t21 114.5l164 -7q0 -68 -16 -126q23 -32 63.5 -64.5t91.5 -62.5t111 -55t122 -42l-114 -130q-96 23 -183.5 75.5t-156.5 137.5q-57 -80 -145.5 -135t-201.5 -78zM51 363q22 25 46.5 64.5t47 82t40 82t23.5 64.5l159 -12
q-4 -14 -7.5 -28.5t-8.5 -28.5h536q32 0 44.5 -24.5t4.5 -54.5l-69 -205h-169l63 171h-450q-23 -55 -47.5 -101t-46.5 -72z" />
    <glyph glyph-name="cid3124" unicode="&#x6b20;" 
d="M43 73q102 29 173.5 65t117 80.5t66.5 97t21 114.5l164 -7q0 -68 -16 -126q23 -32 63.5 -64.5t91.5 -62.5t111 -55t122 -42l-114 -130q-96 23 -183.5 75.5t-156.5 137.5q-57 -80 -145.5 -135t-201.5 -78zM51 363q22 25 46.5 64.5t47 82t40 82t23.5 64.5l159 -12
q-4 -14 -7.5 -28.5t-8.5 -28.5h536q32 0 44.5 -24.5t4.5 -54.5l-69 -205h-169l63 171h-450q-23 -55 -47.5 -101t-46.5 -72z" />
    <glyph glyph-name="cid4536" unicode="&#x2f4c;" 
d="M938 70v-115h-877v115h108v458h163v-458h143v580h166v-184h283v-118h-283v-278h297z" />
    <glyph glyph-name="cid4536" unicode="&#x6b62;" 
d="M938 70v-115h-877v115h108v458h163v-458h143v580h166v-184h283v-118h-283v-278h297z" />
    <glyph glyph-name="cid1400" unicode="&#x2f4d;" 
d="M67 335q57 35 115 83t103 96h-212v116h860v-116h-482q-19 -35 -40 -63h413q23 0 38.5 -10t24 -25.5t9.5 -34t-5 -36.5q-22 -61 -66 -113.5t-103.5 -96t-130.5 -77.5t-146 -58.5t-151 -39t-144 -17.5l-65 139q84 6 163 18t153 35l-124 63l86 98l188 -100q48 26 92 59.5
t82 77.5h-417q-66 -62 -135 -102z" />
    <glyph glyph-name="cid1400" unicode="&#x6b79;" 
d="M67 335q57 35 115 83t103 96h-212v116h860v-116h-482q-19 -35 -40 -63h413q23 0 38.5 -10t24 -25.5t9.5 -34t-5 -36.5q-22 -61 -66 -113.5t-103.5 -96t-130.5 -77.5t-146 -58.5t-151 -39t-144 -17.5l-65 139q84 6 163 18t153 35l-124 63l86 98l188 -100q48 26 92 59.5
t82 77.5h-417q-66 -62 -135 -102z" />
    <glyph glyph-name="cid6589" unicode="&#x2f4e;" 
d="M81 320h762q22 0 35.5 -10t18 -25t1 -32t-14.5 -30q-35 -35 -81 -66.5t-102 -59.5q54 -9 117 -15.5t139 -11.5l-48 -127q-113 0 -219 18.5t-203 51.5q-98 -29 -199.5 -47t-195.5 -23l-48 127q67 4 130 11t123 18q-44 26 -83 54t-74 60h-58v107zM52 401q36 22 58 43
t33.5 46.5t15.5 59t4 82.5h596q29 0 48.5 -20.5t19.5 -50.5v-108h103v-106h-203q-26 0 -43.5 18t-17.5 45v115h-339q0 -28 -7.5 -57t-22 -55t-35.5 -47t-49 -33zM494 146q89 29 173 67h-336q42 -20 81.5 -36.5t81.5 -30.5z" />
    <glyph glyph-name="cid6589" unicode="&#x6bb3;" 
d="M81 320h762q22 0 35.5 -10t18 -25t1 -32t-14.5 -30q-35 -35 -81 -66.5t-102 -59.5q54 -9 117 -15.5t139 -11.5l-48 -127q-113 0 -219 18.5t-203 51.5q-98 -29 -199.5 -47t-195.5 -23l-48 127q67 4 130 11t123 18q-44 26 -83 54t-74 60h-58v107zM52 401q36 22 58 43
t33.5 46.5t15.5 59t4 82.5h596q29 0 48.5 -20.5t19.5 -50.5v-108h103v-106h-203q-26 0 -43.5 18t-17.5 45v115h-339q0 -28 -7.5 -57t-22 -55t-35.5 -47t-49 -33zM494 146q89 29 173 67h-336q42 -20 81.5 -36.5t81.5 -30.5z" />
    <glyph glyph-name="cid3826" unicode="&#x2f4f;" 
d="M945 410v-109h-64v-102h64v-113h-64v-135h-313v94h147v41h-212q-28 -46 -64.5 -80.5t-79.5 -60.5l-202 20q94 51 153 121h-192v215h-64v109h64v215h710q23 0 38 -14.5t15 -36.5v-164h64zM715 199v102h-143q-6 -53 -20 -102h163zM715 513h-137v-103h137v103zM284 410h133
v103h-133v-103zM284 301v-102h96q21 48 30 102h-126z" />
    <glyph glyph-name="cid3826" unicode="&#x6bcb;" 
d="M945 410v-109h-64v-102h64v-113h-64v-135h-313v94h147v41h-212q-28 -46 -64.5 -80.5t-79.5 -60.5l-202 20q94 51 153 121h-192v215h-64v109h64v215h710q23 0 38 -14.5t15 -36.5v-164h64zM715 199v102h-143q-6 -53 -20 -102h163zM715 513h-137v-103h137v103zM284 410h133
v103h-133v-103zM284 301v-102h96q21 48 30 102h-126z" />
    <glyph glyph-name="cid1073" unicode="&#x2f50;" 
d="M934 68v-115h-362q-29 0 -46.5 20t-17.5 47v634h164v-204l262 34v-112l-262 -35v-269h262zM475 68v-115h-345q-27 0 -45.5 20t-18.5 47v634h164v-207h245v-114h-245v-265h245z" />
    <glyph glyph-name="cid1073" unicode="&#x6bd4;" 
d="M934 68v-115h-362q-29 0 -46.5 20t-17.5 47v634h164v-204l262 34v-112l-262 -35v-269h262zM475 68v-115h-345q-27 0 -45.5 20t-18.5 47v634h164v-207h245v-114h-245v-265h245z" />
    <glyph glyph-name="cid2736" unicode="&#x2f51;" 
d="M920 635v-116h-358v-67h335v-118h-335v-68h383v-114h-383v-89h383v-116h-473q-33 0 -55.5 21.5t-22.5 53.5v130h-340v114h340v68h-292v118h292v67h-314v116h840z" />
    <glyph glyph-name="cid2736" unicode="&#x6bdb;" 
d="M920 635v-116h-358v-67h335v-118h-335v-68h383v-114h-383v-89h383v-116h-473q-33 0 -55.5 21.5t-22.5 53.5v130h-340v114h340v68h-292v118h292v67h-314v116h840z" />
    <glyph glyph-name="cid3430" unicode="&#x2f52;" 
d="M421 61v-116h-282q-34 0 -57 24t-23 59v603h848v-116h-241q3 -68 12 -122h253v-116h-221q32 -76 89 -121.5t141 -76.5l-114 -134q-109 32 -181.5 113.5t-107.5 218.5h-314v-216h198zM223 515v-122h292q-3 29 -5.5 59.5t-3.5 62.5h-283z" />
    <glyph glyph-name="cid3430" unicode="&#x6c0f;" 
d="M421 61v-116h-282q-34 0 -57 24t-23 59v603h848v-116h-241q3 -68 12 -122h253v-116h-221q32 -76 89 -121.5t141 -76.5l-114 -134q-109 32 -181.5 113.5t-107.5 218.5h-314v-216h198zM223 515v-122h292q-3 29 -5.5 59.5t-3.5 62.5h-283z" />
    <glyph glyph-name="cid3095" unicode="&#x2f53;" 
d="M91 359h721q15 0 28 -6t23 -16.5t16 -24t6 -29.5v-142q0 -23 14 -38t40 -15v-141q-50 0 -91 10.5t-69.5 32t-44 54.5t-15.5 77v142h-628v96zM919 623v-97h-660q-9 -26 -21 -48.5t-27 -39.5l-151 66q34 34 54.5 72.5t33.5 80.5l137 -9l-3 -25h637zM864 492v-94h-592v94
h592z" />
    <glyph glyph-name="cid3095" unicode="&#x6c14;" 
d="M91 359h721q15 0 28 -6t23 -16.5t16 -24t6 -29.5v-142q0 -23 14 -38t40 -15v-141q-50 0 -91 10.5t-69.5 32t-44 54.5t-15.5 77v142h-628v96zM919 623v-97h-660q-9 -26 -21 -48.5t-27 -39.5l-151 66q34 34 54.5 72.5t33.5 80.5l137 -9l-3 -25h637zM864 492v-94h-592v94
h592z" />
    <glyph glyph-name="cid3491" unicode="&#x2f54;" 
d="M927 455q-19 -10 -40 -21t-41.5 -22.5t-39 -24t-32.5 -24.5q10 -39 28 -79.5t42 -80t52.5 -76.5t59.5 -69l-131 -109q-30 35 -59.5 84.5t-55 105.5t-45 114t-29.5 110q-5 23 -1 42t24 35q15 15 39 33.5t50 37t51.5 35.5t43.5 28zM61 490h255q19 0 30 -7.5t15.5 -20.5
t4 -29t-3.5 -33q-8 -47 -24.5 -107t-41 -122t-56 -120.5t-68.5 -101.5l-129 112q63 78 102.5 157t58.5 167h-143v105zM583 644v-698h-258v93h96v605h162z" />
    <glyph glyph-name="cid3491" unicode="&#x6c34;" 
d="M927 455q-19 -10 -40 -21t-41.5 -22.5t-39 -24t-32.5 -24.5q10 -39 28 -79.5t42 -80t52.5 -76.5t59.5 -69l-131 -109q-30 35 -59.5 84.5t-55 105.5t-45 114t-29.5 110q-5 23 -1 42t24 35q15 15 39 33.5t50 37t51.5 35.5t43.5 28zM61 490h255q19 0 30 -7.5t15.5 -20.5
t4 -29t-3.5 -33q-8 -47 -24.5 -107t-41 -122t-56 -120.5t-68.5 -101.5l-129 112q63 78 102.5 157t58.5 167h-143v105zM583 644v-698h-258v93h96v605h162z" />
    <glyph glyph-name="cid2053" unicode="&#x2f55;" 
d="M580 656v-207q0 -10 -0.5 -19.5t-1.5 -19.5q19 -65 56 -122t87 -100.5t110 -70.5t124 -33l-89 -141q-57 4 -109 27t-97.5 58.5t-83 81.5t-65.5 98q-31 -54 -73 -101t-92 -82.5t-107.5 -57t-118.5 -24.5l-76 143q71 4 138.5 37.5t119.5 85.5t83.5 116.5t31.5 131.5v199
h163zM149 319q-13 25 -23 55.5t-17 63.5t-12 67t-7 66l145 13q4 -25 10 -55t13.5 -60.5t16.5 -58.5t20 -48zM702 362q10 20 19.5 48t17.5 58.5t14 60.5t9 55l145 -13q-3 -32 -7.5 -66t-12 -67t-17 -63.5t-22.5 -55.5z" />
    <glyph glyph-name="cid2053" unicode="&#x706b;" 
d="M580 656v-207q0 -10 -0.5 -19.5t-1.5 -19.5q19 -65 56 -122t87 -100.5t110 -70.5t124 -33l-89 -141q-57 4 -109 27t-97.5 58.5t-83 81.5t-65.5 98q-31 -54 -73 -101t-92 -82.5t-107.5 -57t-118.5 -24.5l-76 143q71 4 138.5 37.5t119.5 85.5t83.5 116.5t31.5 131.5v199
h163zM149 319q-13 25 -23 55.5t-17 63.5t-12 67t-7 66l145 13q4 -25 10 -55t13.5 -60.5t16.5 -58.5t20 -48zM702 362q10 20 19.5 48t17.5 58.5t14 60.5t9 55l145 -13q-3 -32 -7.5 -66t-12 -67t-17 -63.5t-22.5 -55.5z" />
    <glyph glyph-name="cid4611" unicode="&#x2f56;" 
d="M392 -34v561h-138v-381q0 -62 -12 -114.5t-33 -86.5l-165 47q23 34 33.5 76t10.5 99v474h827v-114h-67q2 -73 8.5 -139.5t19 -130.5t31.5 -128.5t48 -133.5l-163 -50q-27 45 -47 114t-33.5 148.5t-20.5 162.5t-7 157h-124v-561h-168z" />
    <glyph glyph-name="cid4611" unicode="&#x722a;" 
d="M392 -34v561h-138v-381q0 -62 -12 -114.5t-33 -86.5l-165 47q23 34 33.5 76t10.5 99v474h827v-114h-67q2 -73 8.5 -139.5t19 -130.5t31.5 -128.5t48 -133.5l-163 -50q-27 45 -47 114t-33.5 148.5t-20.5 162.5t-7 157h-124v-561h-168z" />
    <glyph glyph-name="cid1715" unicode="&#x2f57;" 
d="M849 369q-33 19 -69 53q-63 -122 -151 -214q69 -41 149 -70t177 -49l-104 -147q-205 50 -352 154q-150 -105 -351 -154l-104 147q96 20 176 48.5t149 70.5q-87 91 -152 214q-17 -16 -34 -29.5t-34 -23.5l-95 129q60 32 100.5 72.5t70.5 82.5l146 -21q-11 -21 -24.5 -45
t-30.5 -49q81 -140 183 -233q102 93 183 233q-17 25 -30.5 48.5t-23.5 45.5l145 21q30 -42 70.5 -82.5t101.5 -72.5z" />
    <glyph glyph-name="cid1715" unicode="&#x7236;" 
d="M849 369q-33 19 -69 53q-63 -122 -151 -214q69 -41 149 -70t177 -49l-104 -147q-205 50 -352 154q-150 -105 -351 -154l-104 147q96 20 176 48.5t149 70.5q-87 91 -152 214q-17 -16 -34 -29.5t-34 -23.5l-95 129q60 32 100.5 72.5t70.5 82.5l146 -21q-11 -21 -24.5 -45
t-30.5 -49q81 -140 183 -233q102 93 183 233q-17 25 -30.5 48.5t-23.5 45.5l145 21q30 -42 70.5 -82.5t101.5 -72.5z" />
    <glyph glyph-name="cid4713" unicode="&#x2f58;" 
d="M877 290q-36 -43 -87.5 -84t-114.5 -79q66 -16 136 -25.5t146 -11.5l-42 -145q-96 -1 -203.5 24.5t-212.5 68.5q-105 -43 -212.5 -68.5t-202.5 -24.5l-41 145q75 2 145 11.5t136 25.5q-62 37 -113 78t-88 85l127 47q58 -47 120 -85t131 -67q132 57 245 149zM938 457
l-53 -122l-361 103q-45 -14 -92 -26.5t-97.5 -25t-106.5 -25.5t-119 -26l-36 129q58 11 110.5 21t103.5 21l-204 58l50 81l375 -88q79 21 157 45t164 56l70 -87q-47 -18 -89 -34.5t-82 -30.5z" />
    <glyph glyph-name="cid4713" unicode="&#x723b;" 
d="M877 290q-36 -43 -87.5 -84t-114.5 -79q66 -16 136 -25.5t146 -11.5l-42 -145q-96 -1 -203.5 24.5t-212.5 68.5q-105 -43 -212.5 -68.5t-202.5 -24.5l-41 145q75 2 145 11.5t136 25.5q-62 37 -113 78t-88 85l127 47q58 -47 120 -85t131 -67q132 57 245 149zM938 457
l-53 -122l-361 103q-45 -14 -92 -26.5t-97.5 -25t-106.5 -25.5t-119 -26l-36 129q58 11 110.5 21t103.5 21l-204 58l50 81l375 -88q79 21 157 45t164 56l70 -87q-47 -18 -89 -34.5t-82 -30.5z" />
    <glyph glyph-name="cid5789" unicode="&#x2f59;" 
d="M737 -56v250h-345q-17 -80 -46 -142t-71 -108l-175 64q27 25 46 47t33.5 43.5t26 45t23.5 50.5h-132v115h640v72h-506q-26 0 -44 20t-18 46v185h163v-135h405v158h166v-711h-166z" />
    <glyph glyph-name="cid5789" unicode="&#x723f;" 
d="M737 -56v250h-345q-17 -80 -46 -142t-71 -108l-175 64q27 25 46 47t33.5 43.5t26 45t23.5 50.5h-132v115h640v72h-506q-26 0 -44 20t-18 46v185h163v-135h405v158h166v-711h-166z" />
    <glyph glyph-name="cid3019" unicode="&#x2f5a;" 
d="M927 500v-115h-627v-82h503q30 0 51 -22t21 -56v-284h-164v247h-411q-2 -36 -7 -73t-13 -70t-18.5 -60t-22.5 -44l-167 49q11 17 22.5 41t20.5 54t15 65t6 73v413h164v-136h268v152h160v-152h199z" />
    <glyph glyph-name="cid3019" unicode="&#x7247;" 
d="M927 500v-115h-627v-82h503q30 0 51 -22t21 -56v-284h-164v247h-411q-2 -36 -7 -73t-13 -70t-18.5 -60t-22.5 -44l-167 49q11 17 22.5 41t20.5 54t15 65t6 73v413h164v-136h268v152h160v-152h199z" />
    <glyph glyph-name="cid4073" unicode="&#x2f5b;" 
d="M924 635v-116h-140v-146h154v-113h-154v-314h-320v110h142v204h-52q-67 -106 -158.5 -187t-212.5 -127l-121 134q91 32 162 77.5t124 102.5h-188q-28 0 -44 18.5t-16 45.5v161h166v-112h340v146h-526v116h844z" />
    <glyph glyph-name="cid4073" unicode="&#x7259;" 
d="M924 635v-116h-140v-146h154v-113h-154v-314h-320v110h142v204h-52q-67 -106 -158.5 -187t-212.5 -127l-121 134q91 32 162 77.5t124 102.5h-188q-28 0 -44 18.5t-16 45.5v161h166v-112h340v146h-526v116h844z" />
    <glyph glyph-name="cid2916" unicode="&#x2f5c;" 
d="M926 547v-114h-322v-160h346v-116h-346v-212h-168v212h-386v116h386v160h-172q-10 -35 -23.5 -65t-31.5 -55l-147 65q16 23 29.5 52t25 61.5t19.5 65.5t13 64l142 -9q-1 -17 -2 -33t-3 -32h150v109h168v-109h322z" />
    <glyph glyph-name="cid2916" unicode="&#x725b;" 
d="M926 547v-114h-322v-160h346v-116h-346v-212h-168v212h-386v116h386v160h-172q-10 -35 -23.5 -65t-31.5 -55l-147 65q16 23 29.5 52t25 61.5t19.5 65.5t13 64l142 -9q-1 -17 -2 -33t-3 -32h150v109h168v-109h322z" />
    <glyph glyph-name="cid3209" unicode="&#x2f5d;" 
d="M943 491v-114h-353q22 -60 60 -112t87 -90t105 -59t113 -21l-49 -150q-71 1 -132.5 22t-113 57t-92 85t-70.5 106q-72 -122 -173.5 -187t-230.5 -83l-50 150q60 4 116 26t103.5 58.5t84 86.5t57.5 111h-348v114h361v167h164v-167h361zM652 628h250v-108h-250v108z" />
    <glyph glyph-name="cid3209" unicode="&#x72ac;" 
d="M943 491v-114h-353q22 -60 60 -112t87 -90t105 -59t113 -21l-49 -150q-71 1 -132.5 22t-113 57t-92 85t-70.5 106q-72 -122 -173.5 -187t-230.5 -83l-50 150q60 4 116 26t103.5 58.5t84 86.5t57.5 111h-348v114h361v167h164v-167h361zM652 628h250v-108h-250v108z" />
    <glyph glyph-name="cid4041" unicode="&#x2f5e;" 
d="M950 598v-116h-536l-128 -141h197l124 93h230l-480 -371h402l-52 153h159l59 -179q6 -17 5.5 -33.5t-8 -29.5t-21.5 -20.5t-35 -7.5h-751q-20 0 -31.5 12t-14.5 28.5t2 33.5t18 26l240 180h-197q-21 0 -34 11t-17.5 27t-1 33t14.5 28l140 157h-185v116h369v57h163v-57
h369z" />
    <glyph glyph-name="cid4041" unicode="&#x7384;" 
d="M950 598v-116h-536l-128 -141h197l124 93h230l-480 -371h402l-52 153h159l59 -179q6 -17 5.5 -33.5t-8 -29.5t-21.5 -20.5t-35 -7.5h-751q-20 0 -31.5 12t-14.5 28.5t2 33.5t18 26l240 180h-197q-21 0 -34 11t-17.5 27t-1 33t14.5 28l140 157h-185v116h369v57h163v-57
h369z" />
    <glyph glyph-name="cid4310" unicode="&#x2f5f;" 
d="M916 380v-113h-334v-193h365v-114h-894v114h365v193h-334v113h334v140h-347v115h858v-115h-347v-140h334zM693 96l-14 138h165l15 -138h-166z" />
    <glyph glyph-name="cid4310" unicode="&#x7389;" 
d="M916 380v-113h-334v-193h365v-114h-894v114h365v193h-334v113h334v140h-347v115h858v-115h-347v-140h334zM693 96l-14 138h165l15 -138h-166z" />
    <glyph glyph-name="cid1832" unicode="&#x2f60;" 
d="M548 65l-24 175h157l30 -224q3 -28 -6 -47t-44 -19h-306q-33 0 -48.5 20t-12.5 54l59 489h-90v-258q0 -94 -13.5 -172.5t-40.5 -138.5l-165 38q29 60 42 131.5t13 137.5v378h828v-116h-76q3 -88 13 -160.5t24.5 -132t31.5 -108t35 -88.5l-154 -80q-22 49 -41.5 105
t-34.5 124.5t-24.5 152t-11.5 187.5h-173l-47 -448h79z" />
    <glyph glyph-name="cid1832" unicode="&#x74dc;" 
d="M548 65l-24 175h157l30 -224q3 -28 -6 -47t-44 -19h-306q-33 0 -48.5 20t-12.5 54l59 489h-90v-258q0 -94 -13.5 -172.5t-40.5 -138.5l-165 38q29 60 42 131.5t13 137.5v378h828v-116h-76q3 -88 13 -160.5t24.5 -132t31.5 -108t35 -88.5l-154 -80q-22 49 -41.5 105
t-34.5 124.5t-24.5 152t-11.5 187.5h-173l-47 -448h79z" />
    <glyph glyph-name="cid3728" unicode="&#x2f61;" 
d="M396 61v-116h-216q-26 0 -45.5 19t-19.5 48v506h-62v116h878v-116h-650v-76h510q29 0 48.5 -20t19.5 -51v-310h88v-116h-189q-29 0 -47.5 19t-18.5 48v313h-411v-264h115zM475 40q-35 43 -55.5 93.5t-34.5 113.5l137 33q5 -21 14.5 -44t21.5 -44.5t25 -41t25 -34.5z" />
    <glyph glyph-name="cid3728" unicode="&#x74e6;" 
d="M396 61v-116h-216q-26 0 -45.5 19t-19.5 48v506h-62v116h878v-116h-650v-76h510q29 0 48.5 -20t19.5 -51v-310h88v-116h-189q-29 0 -47.5 19t-18.5 48v313h-411v-264h115zM475 40q-35 43 -55.5 93.5t-34.5 113.5l137 33q5 -21 14.5 -44t21.5 -44.5t25 -41t25 -34.5z" />
    <glyph glyph-name="cid1733" unicode="&#x2f62;" 
d="M158 576v74h165v-74h354v74h165v-74h106v-113h-106v-511h-603q-34 0 -57.5 24t-23.5 59v428h-106v113h106zM677 66v146h-354v-146h354zM323 325h354v138h-354v-138z" />
    <glyph glyph-name="cid1733" unicode="&#x7518;" 
d="M158 576v74h165v-74h354v74h165v-74h106v-113h-106v-511h-603q-34 0 -57.5 24t-23.5 59v428h-106v113h106zM677 66v146h-354v-146h354zM323 325h354v138h-354v-138z" />
    <glyph glyph-name="cid3379" unicode="&#x2f63;" 
d="M924 566v-118h-335v-133h306v-116h-306v-135h355v-114h-885v114h366v135h-318v116h318v133h-181q-12 -26 -26 -49.5t-29 -43.5l-133 75q35 43 62.5 99t44.5 107l135 -10q-5 -32 -12 -60h139v87h164v-87h335z" />
    <glyph glyph-name="cid3379" unicode="&#x751f;" 
d="M924 566v-118h-335v-133h306v-116h-306v-135h355v-114h-885v114h366v135h-318v116h318v133h-181q-12 -26 -26 -49.5t-29 -43.5l-133 75q35 43 62.5 99t44.5 107l135 -10q-5 -32 -12 -60h139v87h164v-87h335z" />
    <glyph glyph-name="cid4264" unicode="&#x2f64;" 
d="M436 -38v173h-169q-5 -52 -17 -103t-32 -90l-157 44q22 49 31.5 105.5t9.5 111.5v435h788q20 0 34 -15.5t14 -35.5v-641h-247v115h83v74h-169v-173h-169zM774 524h-169v-78h169v78zM270 446h166v78h-166v-78zM605 252h169v76h-169v-76zM270 252h166v76h-166v-76z" />
    <glyph glyph-name="cid4264" unicode="&#x7528;" 
d="M436 -38v173h-169q-5 -52 -17 -103t-32 -90l-157 44q22 49 31.5 105.5t9.5 111.5v435h788q20 0 34 -15.5t14 -35.5v-641h-247v115h83v74h-169v-173h-169zM774 524h-169v-78h169v78zM270 446h166v78h-166v-78zM605 252h169v76h-169v-76zM270 252h166v76h-166v-76z" />
    <glyph glyph-name="cid3650" unicode="&#x2f65;" 
d="M868 611q20 0 34.5 -15t14.5 -38v-596h-834v649h785zM247 345h171v152h-171v-152zM582 497v-152h170v152h-170zM418 76v151h-171v-151h171zM752 76v151h-170v-151h170z" />
    <glyph glyph-name="cid3650" unicode="&#x7530;" 
d="M868 611q20 0 34.5 -15t14.5 -38v-596h-834v649h785zM247 345h171v152h-171v-152zM582 497v-152h170v152h-170zM418 76v151h-171v-151h171zM752 76v151h-170v-151h170z" />
    <glyph glyph-name="cid7110" unicode="&#x2f66;" 
d="M953 62v-116h-507q-66 0 -117 27.5t-89 72.5q-7 -29 -15.5 -54t-18.5 -45l-160 42q17 40 31.5 94t25.5 111t18 112t9 97l147 -15q-1 -43 -4 -91.5t-8 -97.5q15 -24 31.5 -45.5t37 -39t45 -30t55.5 -18.5v454h-362v115h819q20 0 34 -15t14 -36v-154h-164v90h-178v-168h334
v-118h-334v-172h356z" />
    <glyph glyph-name="cid7110" unicode="&#x758b;" 
d="M953 62v-116h-507q-66 0 -117 27.5t-89 72.5q-7 -29 -15.5 -54t-18.5 -45l-160 42q17 40 31.5 94t25.5 111t18 112t9 97l147 -15q-1 -43 -4 -91.5t-8 -97.5q15 -24 31.5 -45.5t37 -39t45 -30t55.5 -18.5v454h-362v115h819q20 0 34 -15t14 -36v-154h-164v90h-178v-168h334
v-118h-334v-172h356z" />
    <glyph glyph-name="cid7008" unicode="&#x2f67;" 
d="M49 257l87 16v111h-87v115h87v110h373v47h164v-47h278v-114h-649l-1 -338q0 -77 -8 -131.5t-23 -80.5l-188 27q13 16 23 39t17 48.5t10.5 51.5t3.5 47l-87 -18v117z" />
    <glyph glyph-name="cid7008" unicode="&#x7592;" 
d="M49 257l87 16v111h-87v115h87v110h373v47h164v-47h278v-114h-649l-1 -338q0 -77 -8 -131.5t-23 -80.5l-188 27q13 16 23 39t17 48.5t10.5 51.5t3.5 47l-87 -18v117z" />
    <glyph glyph-name="cid994" unicode="&#x2f69;" 
d="M818 604q37 0 59 -18t22 -56v-576h-798v650h238l14 53h165l-15 -53h315zM731 488h-462v-155h462v155zM731 69v153h-462v-153h462z" />
    <glyph glyph-name="cid994" unicode="&#x767d;" 
d="M818 604q37 0 59 -18t22 -56v-576h-798v650h238l14 53h165l-15 -53h315zM731 488h-462v-155h462v155zM731 69v153h-462v-153h462z" />
    <glyph glyph-name="cid3011" unicode="&#x2f6a;" 
d="M53 -16q12 25 20.5 56.5t13 66t6.5 70t2 68.5v366h365v45h161v-45h258q27 0 45 -20.5t18 -48.5v-118h-164v72h-157v-94h222q51 0 65 -30t2 -74q-15 -51 -53 -99t-98 -92q47 -13 97.5 -19.5t96.5 -6.5l-52 -137q-81 2 -161 20t-145 50q-31 -14 -66 -26t-70 -21
t-67.5 -15.5t-57.5 -9.5l-73 136q45 4 94 14t85 27q-48 37 -80 78.5t-57 88.5h-41v-51q0 -79 -6 -155t-30 -137zM262 402h198v94h-198v-94zM592 176q53 24 91 51.5t68 58.5h-291q18 -32 52 -59.5t80 -50.5z" />
    <glyph glyph-name="cid3011" unicode="&#x76ae;" 
d="M53 -16q12 25 20.5 56.5t13 66t6.5 70t2 68.5v366h365v45h161v-45h258q27 0 45 -20.5t18 -48.5v-118h-164v72h-157v-94h222q51 0 65 -30t2 -74q-15 -51 -53 -99t-98 -92q47 -13 97.5 -19.5t96.5 -6.5l-52 -137q-81 2 -161 20t-145 50q-31 -14 -66 -26t-70 -21
t-67.5 -15.5t-57.5 -9.5l-73 136q45 4 94 14t85 27q-48 37 -80 78.5t-57 88.5h-41v-51q0 -79 -6 -155t-30 -137zM262 402h198v94h-198v-94zM592 176q53 24 91 51.5t68 58.5h-291q18 -32 52 -59.5t80 -50.5z" />
    <glyph glyph-name="cid2808" unicode="&#x2f6b;" 
d="M55 71h45v565h737q32 0 47 -17.5t15 -45.5v-502h45v-115h-889v115zM266 71h59v449h-59v-449zM733 520h-59v-449h59v449zM474 71h51v449h-51v-449z" />
    <glyph glyph-name="cid2808" unicode="&#x76bf;" 
d="M55 71h45v565h737q32 0 47 -17.5t15 -45.5v-502h45v-115h-889v115zM266 71h59v449h-59v-449zM733 520h-59v-449h59v449zM474 71h51v449h-51v-449z" />
    <glyph glyph-name="cid2850" unicode="&#x2f6c;" 
d="M850 633q21 0 35.5 -15t14.5 -38v-625h-801v678h751zM263 258h473v72h-473v-72zM736 70v70h-473v-70h473zM736 517h-473v-70h473v70z" />
    <glyph glyph-name="cid2850" unicode="&#x76ee;" 
d="M850 633q21 0 35.5 -15t14.5 -38v-625h-801v678h751zM263 258h473v72h-473v-72zM736 70v70h-473v-70h473zM736 517h-473v-70h473v70z" />
    <glyph glyph-name="cid2737" unicode="&#x2f6d;" 
d="M354 497l47 -94h197l101 133h-618v117h741q26 0 43.5 -11.5t25.5 -28.5t6 -37.5t-15 -39.5l-108 -133h112q28 0 44 -15.5t16 -46.5v-222h-157v170h-165v-347h-271v113h110v234h-58q-31 -100 -79 -185t-119 -155l-154 78q72 57 120 122t77 140h-186v114h181l-50 94h159z
" />
    <glyph glyph-name="cid2737" unicode="&#x77db;" 
d="M354 497l47 -94h197l101 133h-618v117h741q26 0 43.5 -11.5t25.5 -28.5t6 -37.5t-15 -39.5l-108 -133h112q28 0 44 -15.5t16 -46.5v-222h-157v170h-165v-347h-271v113h110v234h-58q-31 -100 -79 -185t-119 -155l-154 78q72 57 120 122t77 140h-186v114h181l-50 94h159z
" />
    <glyph glyph-name="cid3407" unicode="&#x2f6e;" 
d="M42 459q43 43 70.5 90t49.5 110l145 -10l-9 -45h605v-116h-311q0 -39 -3.5 -74.5t-9.5 -68.5h360v-115h-287q40 -51 111.5 -84t193.5 -55l-71 -149q-59 5 -114 22t-103.5 44.5t-89 66.5t-70.5 87q-58 -91 -155.5 -144.5t-235.5 -75.5l-71 149q114 25 187 57t116 82h-275
v115h333q8 30 12 65.5t5 77.5h-167q-17 -37 -34.5 -64.5t-34.5 -43.5z" />
    <glyph glyph-name="cid3407" unicode="&#x77e2;" 
d="M42 459q43 43 70.5 90t49.5 110l145 -10l-9 -45h605v-116h-311q0 -39 -3.5 -74.5t-9.5 -68.5h360v-115h-287q40 -51 111.5 -84t193.5 -55l-71 -149q-59 5 -114 22t-103.5 44.5t-89 66.5t-70.5 87q-58 -91 -155.5 -144.5t-235.5 -75.5l-71 149q114 25 187 57t116 82h-275
v115h333q8 30 12 65.5t5 77.5h-167q-17 -37 -34.5 -64.5t-34.5 -43.5z" />
    <glyph glyph-name="cid3398" unicode="&#x2f6f;" 
d="M948 643v-116h-512q-34 -65 -75 -125h486q27 0 46 -19.5t19 -49.5v-379h-724v254q-37 -28 -74 -45l-63 158q68 42 115.5 93.5t88.5 112.5h-188v116h881zM746 69v217h-392v-217h392z" />
    <glyph glyph-name="cid3398" unicode="&#x77f3;" 
d="M948 643v-116h-512q-34 -65 -75 -125h486q27 0 46 -19.5t19 -49.5v-379h-724v254q-37 -28 -74 -45l-63 158q68 42 115.5 93.5t88.5 112.5h-188v116h881zM746 69v217h-392v-217h392z" />
    <glyph glyph-name="cid3413" unicode="&#x2f70;" 
d="M946 411v-116h-364v-351h-257v105h94v246h-366v116h893zM924 637v-115h-849v115h849zM47 29q35 50 59.5 106t44.5 126l134 -19q-8 -85 -33.5 -159.5t-55.5 -125.5zM803 -43q-30 51 -55.5 125.5t-33.5 159.5l134 19q20 -70 44.5 -126t59.5 -106z" />
    <glyph glyph-name="cid3413" unicode="&#x793a;" 
d="M946 411v-116h-364v-351h-257v105h94v246h-366v116h893zM924 637v-115h-849v115h849zM47 29q35 50 59.5 106t44.5 126l134 -19q-8 -85 -33.5 -159.5t-55.5 -125.5zM803 -43q-30 51 -55.5 125.5t-33.5 159.5l134 19q20 -70 44.5 -126t59.5 -106z" />
    <glyph glyph-name="cid1923" unicode="&#x2f72;" 
d="M42 42q35 26 72 60t71.5 72.5t65 78.5t54.5 77h-250v117h363v79h-327v115h817v-115h-327v-79h363v-117h-250q23 -37 54 -77t65.5 -78.5t71.5 -72.5t72 -60l-135 -98q-62 42 -124.5 119.5t-116.5 182.5v-302h-163v302q-54 -105 -116.5 -182.5t-124.5 -119.5z" />
    <glyph glyph-name="cid1923" unicode="&#x79be;" 
d="M42 42q35 26 72 60t71.5 72.5t65 78.5t54.5 77h-250v117h363v79h-327v115h817v-115h-327v-79h363v-117h-250q23 -37 54 -77t65.5 -78.5t71.5 -72.5t72 -60l-135 -98q-62 42 -124.5 119.5t-116.5 182.5v-302h-163v302q-54 -105 -116.5 -182.5t-124.5 -119.5z" />
    <glyph glyph-name="cid4049" unicode="&#x2f73;" 
d="M771 485h-543v-72h-165v188h355v55h163v-55h279q32 0 54 -23.5t22 -58.5v-106h-165v72zM51 32q73 72 124 165t90 211l145 -34q-13 -65 -31.5 -128t-43.5 -120t-55.5 -104.5t-67.5 -80.5zM787 -59q-37 33 -67.5 80.5t-55.5 104.5t-43.5 120t-31.5 128l145 34
q39 -118 90 -211t124 -165z" />
    <glyph glyph-name="cid4049" unicode="&#x7a74;" 
d="M771 485h-543v-72h-165v188h355v55h163v-55h279q32 0 54 -23.5t22 -58.5v-106h-165v72zM51 32q73 72 124 165t90 211l145 -34q-13 -65 -31.5 -128t-43.5 -120t-55.5 -104.5t-67.5 -80.5zM787 -59q-37 33 -67.5 80.5t-55.5 104.5t-43.5 120t-31.5 128l145 34
q39 -118 90 -211t124 -165z" />
    <glyph glyph-name="cid2539" unicode="&#x2f74;" 
d="M936 599v-116h-873v116h355v59h163v-59h355zM950 64v-116h-901v116h901zM211 107q-28 69 -53 146.5t-45 155.5l167 36q19 -74 42 -146.5t49 -143.5zM624 155q26 71 49 143.5t42 146.5l167 -36q-21 -78 -45.5 -155.5t-52.5 -146.5z" />
    <glyph glyph-name="cid2539" unicode="&#x7acb;" 
d="M936 599v-116h-873v116h355v59h163v-59h355zM950 64v-116h-901v116h901zM211 107q-28 69 -53 146.5t-45 155.5l167 36q19 -74 42 -146.5t49 -143.5zM624 155q26 71 49 143.5t42 146.5l167 -36q-21 -78 -45.5 -155.5t-52.5 -146.5z" />
    <glyph glyph-name="cid4592" unicode="&#x2f75;" 
d="M498 421q17 22 33 52.5t30 63t25 64t17 55.5l133 -17q-1 -12 -3 -24.5t-4 -26.5h226v-113h-62v-532h-260v107h92v425h-26q-11 -30 -23 -55.5t-26 -41.5zM239 -57v513q-10 -24 -21 -44t-22 -34l-152 61q18 22 34 50t30 57.5t24.5 57.5t16.5 52l135 -17q-1 -12 -3 -24.5
t-4 -26.5h231v-113h-103v-532h-166z" />
    <glyph glyph-name="cid4592" unicode="&#x7af9;" 
d="M498 421q17 22 33 52.5t30 63t25 64t17 55.5l133 -17q-1 -12 -3 -24.5t-4 -26.5h226v-113h-62v-532h-260v107h92v425h-26q-11 -30 -23 -55.5t-26 -41.5zM239 -57v513q-10 -24 -21 -44t-22 -34l-152 61q18 22 34 50t30 57.5t24.5 57.5t16.5 52l135 -17q-1 -12 -3 -24.5
t-4 -26.5h231v-113h-103v-532h-166z" />
    <glyph glyph-name="cid2780" unicode="&#x2f76;" 
d="M418 -58v208q-53 -68 -127.5 -115.5t-162.5 -90.5l-84 139q39 13 79 32t78 43.5t73 53t64 61.5h-282v111h362v273h163v-273h362v-111h-283q30 -33 65 -61.5t73 -53t78 -43.5t79 -32l-84 -139q-89 43 -163.5 90.5t-126.5 115.5v-208h-163zM168 413q-18 38 -35 84t-28 99
l157 33q11 -45 24 -89t28 -82zM685 458q15 38 28 82t24 89l157 -33q-11 -53 -28 -99t-35 -84z" />
    <glyph glyph-name="cid2780" unicode="&#x7c73;" 
d="M418 -58v208q-53 -68 -127.5 -115.5t-162.5 -90.5l-84 139q39 13 79 32t78 43.5t73 53t64 61.5h-282v111h362v273h163v-273h362v-111h-283q30 -33 65 -61.5t73 -53t78 -43.5t79 -32l-84 -139q-89 43 -163.5 90.5t-126.5 115.5v-208h-163zM168 413q-18 38 -35 84t-28 99
l157 33q11 -45 24 -89t28 -82zM685 458q15 38 28 82t24 89l157 -33q-11 -53 -28 -99t-35 -84z" />
    <glyph glyph-name="cid7399" unicode="&#x2f77;" 
d="M560 579h241l-458 -276h382l-47 117h167l59 -149q6 -16 4 -30t-9.5 -24.5t-20 -17t-28.5 -6.5h-269v-246h-240v101h78v145h-301q-16 0 -28 12t-17 28.5t-1 32.5t19 25l172 106h-130q-15 0 -28 10t-19.5 25t-4.5 31.5t16 28.5l187 165h191l-179 -154h140zM49 69
q56 13 117 40.5t113 67.5l83 -72q-14 -23 -38.5 -46t-55.5 -44.5t-66.5 -39t-71.5 -27.5zM869 -52q-36 10 -71.5 27.5t-66.5 39t-55.5 44.5t-38.5 46l83 72q52 -40 113 -67.5t117 -40.5z" />
    <glyph glyph-name="cid7399" unicode="&#x7cf8;" 
d="M560 579h241l-458 -276h382l-47 117h167l59 -149q6 -16 4 -30t-9.5 -24.5t-20 -17t-28.5 -6.5h-269v-246h-240v101h78v145h-301q-16 0 -28 12t-17 28.5t-1 32.5t19 25l172 106h-130q-15 0 -28 10t-19.5 25t-4.5 31.5t16 28.5l187 165h191l-179 -154h140zM49 69
q56 13 117 40.5t113 67.5l83 -72q-14 -23 -38.5 -46t-55.5 -44.5t-66.5 -39t-71.5 -27.5zM869 -52q-36 10 -71.5 27.5t-66.5 39t-55.5 44.5t-38.5 46l83 72q52 -40 113 -67.5t117 -40.5z" />
    <glyph glyph-name="cid7262" unicode="&#x2f78;" 
d="M60 461q34 46 56 92.5t39 100.5l136 -23l-6 -38h628v-114h-327v-103h369v-115h-369v-192h161v149h166v-264h-766q-22 0 -37 16t-15 36v212h166v-149h162v192h-379v115h379v103h-170q-10 -23 -22 -45t-26 -44z" />
    <glyph glyph-name="cid7262" unicode="&#x7f36;" 
d="M60 461q34 46 56 92.5t39 100.5l136 -23l-6 -38h628v-114h-327v-103h369v-115h-369v-192h161v149h166v-264h-766q-22 0 -37 16t-15 36v212h166v-149h162v192h-379v115h379v103h-170q-10 -23 -22 -45t-26 -44z" />
    <glyph glyph-name="cid3753" unicode="&#x2f79;" 
d="M57 -53v689h836q20 0 35 -15.5t15 -35.5v-638h-277v96h117v49l-98 -32l-33 69q-14 -22 -26.5 -41t-25.5 -35l-91 46l-118 -39l-32 68q-13 -21 -26 -40t-27 -35l-89 45v-151h-160zM783 490v36h-566v-46l87 23l59 -116q15 32 27 62.5t20 58.5l98 -20l-2 -7l82 22l62 -117
q29 67 44 122zM499 449q-12 -44 -29.5 -93t-40.5 -98l66 -131q23 29 46.5 63.5t45.5 72.5zM217 441v-296q20 26 40 56.5t40 63.5zM783 138v305q-11 -42 -27.5 -89t-37.5 -95z" />
    <glyph glyph-name="cid3753" unicode="&#x7f51;" 
d="M57 -53v689h836q20 0 35 -15.5t15 -35.5v-638h-277v96h117v49l-98 -32l-33 69q-14 -22 -26.5 -41t-25.5 -35l-91 46l-118 -39l-32 68q-13 -21 -26 -40t-27 -35l-89 45v-151h-160zM783 490v36h-566v-46l87 23l59 -116q15 32 27 62.5t20 58.5l98 -20l-2 -7l82 22l62 -117
q29 67 44 122zM499 449q-12 -44 -29.5 -93t-40.5 -98l66 -131q23 29 46.5 63.5t45.5 72.5zM217 441v-296q20 26 40 56.5t40 63.5zM783 138v305q-11 -42 -27.5 -89t-37.5 -95z" />
    <glyph glyph-name="cid4123" unicode="&#x2f7a;" 
d="M934 590v-114h-353v-82h335v-116h-335v-81h366v-115h-366v-140h-163v140h-366v115h366v81h-335v116h335v82h-353v114h123l-13 69h161l18 -69h291l18 69h161l-13 -69h123z" />
    <glyph glyph-name="cid4123" unicode="&#x7f8a;" 
d="M934 590v-114h-353v-82h335v-116h-335v-81h366v-115h-366v-140h-163v140h-366v115h366v81h-335v116h335v82h-353v114h123l-13 69h161l18 -69h291l18 69h161l-13 -69h123z" />
    <glyph glyph-name="cid4309" unicode="&#x2f7b;" 
d="M519 238l221 16v-117l-221 -14v115zM519 461h221v-115h-221v115zM519 642h369q21 0 35.5 -16t14.5 -36v-647h-293v106h128v478h-254v115zM61 238l223 16v-117l-223 -14v115zM61 461h223v-115h-223v115zM61 642h368q23 0 37 -16t14 -36v-647h-291v106h127v478h-255v115z
" />
    <glyph glyph-name="cid4309" unicode="&#x7fbd;" 
d="M519 238l221 16v-117l-221 -14v115zM519 461h221v-115h-221v115zM519 642h369q21 0 35.5 -16t14.5 -36v-647h-293v106h128v478h-254v115zM61 238l223 16v-117l-223 -14v115zM61 461h223v-115h-223v115zM61 642h368q23 0 37 -16t14 -36v-647h-291v106h127v478h-255v115z
" />
    <glyph glyph-name="cid2490" unicode="&#x2f7c;" 
d="M909 63v-117h-613q-10 0 -20 5t-18 13t-13 18.5t-5 21.5v119q-32 -11 -65 -22t-67 -20l-58 135q71 12 148 37.5t155 60.5h-293v112h297v54h-234v116h234v61h167v-61h167v-90q42 30 78 60.5t65 60.5l92 -81q-31 -31 -65 -61t-71 -59h159v-112h-318q-68 -44 -148 -85
l408 19v-114l-482 -24v-47h500zM524 480v-54h45q43 25 84 54h-129z" />
    <glyph glyph-name="cid2490" unicode="&#x8001;" 
d="M909 63v-117h-613q-10 0 -20 5t-18 13t-13 18.5t-5 21.5v119q-32 -11 -65 -22t-67 -20l-58 135q71 12 148 37.5t155 60.5h-293v112h297v54h-234v116h234v61h167v-61h167v-90q42 30 78 60.5t65 60.5l92 -81q-31 -31 -65 -61t-71 -59h159v-112h-318q-68 -44 -148 -85
l408 19v-114l-482 -24v-47h500zM524 480v-54h45q43 25 84 54h-129z" />
    <glyph glyph-name="cid1591" unicode="&#x2f7d;" 
d="M537 -43v396h-75v-396h-159v396h-71v-410h-164v518h350v63h-357v115h877v-115h-357v-63h300q21 0 35.5 -16t14.5 -36v-466h-207v106h43v304h-71v-396h-159z" />
    <glyph glyph-name="cid1591" unicode="&#x800c;" 
d="M537 -43v396h-75v-396h-159v396h-71v-410h-164v518h350v63h-357v115h877v-115h-357v-63h300q21 0 35.5 -16t14.5 -36v-466h-207v106h43v304h-71v-396h-159z" />
    <glyph glyph-name="cid7115" unicode="&#x2f7e;" 
d="M418 -59v162q-31 -29 -69 -55t-80.5 -47.5t-87.5 -37t-89 -22.5l-47 144q69 11 147 42.5t145 74.5h-284v111h365v43h-343v110h343v41h-354v110h354v41h164v-41h354v-110h-354v-41h342v-110h-342v-43h365v-111h-284q33 -21 69.5 -40t74.5 -34.5t75 -26.5t72 -16l-47 -144
q-44 7 -88.5 22.5t-87 37t-80.5 47.5t-69 55v-162h-164z" />
    <glyph glyph-name="cid7115" unicode="&#x8012;" 
d="M418 -59v162q-31 -29 -69 -55t-80.5 -47.5t-87.5 -37t-89 -22.5l-47 144q69 11 147 42.5t145 74.5h-284v111h365v43h-343v110h343v41h-354v110h354v41h164v-41h354v-110h-354v-41h342v-110h-342v-43h365v-111h-284q33 -21 69.5 -40t74.5 -34.5t75 -26.5t72 -16l-47 -144
q-44 7 -88.5 22.5t-87 37t-80.5 47.5t-69 55v-162h-164z" />
    <glyph glyph-name="cid1593" unicode="&#x2f7f;" 
d="M679 -57v74h-623v113h99v397h-92v115h873v-115h-92v-397h99v-113h-99v-74h-165zM320 130h359v61h-359v-61zM320 302h359v59h-359v-59zM320 469h359v58h-359v-58z" />
    <glyph glyph-name="cid1593" unicode="&#x8033;" 
d="M679 -57v74h-623v113h99v397h-92v115h873v-115h-92v-397h99v-113h-99v-74h-165zM320 130h359v61h-359v-61zM320 302h359v59h-359v-59zM320 469h359v58h-359v-58z" />
    <glyph glyph-name="cid6686" unicode="&#x2f80;" 
d="M922 219v-105h-341v-34h366v-104h-366v-35h-163v35h-366v104h366v34h-341v105h341v25h-338v101h338v35h-366v105h366v35h-338v100h338v38h163v-38h260q26 0 45.5 -19t19.5 -45v-71h41v-105h-41v-136h-325v-25h341zM749 520h-168v-35h168v35zM749 345v35h-168v-35h168z
" />
    <glyph glyph-name="cid6686" unicode="&#x807f;" 
d="M922 219v-105h-341v-34h366v-104h-366v-35h-163v35h-366v104h366v34h-341v105h341v25h-338v101h338v35h-366v105h366v35h-338v100h338v38h163v-38h260q26 0 45.5 -19t19.5 -45v-71h41v-105h-41v-136h-325v-25h341zM749 520h-168v-35h168v35zM749 345v35h-168v-35h168z
" />
    <glyph glyph-name="cid3261" unicode="&#x2f81;" 
d="M574 658v-62h277q34 0 56.5 -23.5t22.5 -57.5v-574h-308v83l-119 88q-60 -66 -172 -98l-83 116q34 10 64.5 23t54 33.5t38.5 48.5t19 68h150q-1 -23 -4.5 -44.5t-8.5 -41.5l181 -96l-77 -87h101v453h-206l191 -96l-97 -113l-147 106q-61 -75 -176 -106l-83 119
q48 11 86 32.5t61 57.5h-162v-546h-164v655h356v62h149z" />
    <glyph glyph-name="cid3261" unicode="&#x8089;" 
d="M574 658v-62h277q34 0 56.5 -23.5t22.5 -57.5v-574h-308v83l-119 88q-60 -66 -172 -98l-83 116q34 10 64.5 23t54 33.5t38.5 48.5t19 68h150q-1 -23 -4.5 -44.5t-8.5 -41.5l181 -96l-77 -87h101v453h-206l191 -96l-97 -113l-147 106q-61 -75 -176 -106l-83 119
q48 11 86 32.5t61 57.5h-162v-546h-164v655h356v62h149z" />
    <glyph glyph-name="cid1249" unicode="&#x2f82;" 
d="M933 74v-116h-802q-27 0 -45.5 19t-18.5 47v618h866v-116h-273v-78h199q20 0 34.5 -15.5t14.5 -35.5v-245h-248v-78h273zM743 267v66h-512v-66h512zM231 448h254v78h-254v-78zM231 74h254v78h-254v-78z" />
    <glyph glyph-name="cid1249" unicode="&#x81e3;" 
d="M933 74v-116h-802q-27 0 -45.5 19t-18.5 47v618h866v-116h-273v-78h199q20 0 34.5 -15.5t14.5 -35.5v-245h-248v-78h273zM743 267v66h-512v-66h512zM231 448h254v78h-254v-78zM231 74h254v78h-254v-78z" />
    <glyph glyph-name="cid4657" unicode="&#x2f83;" 
d="M842 610q26 0 45.5 -19.5t19.5 -48.5v-584h-815v652h289l12 46h168l-16 -46h297zM258 248h483v71h-483v-71zM741 73v69h-483v-69h483zM741 494h-483v-69h483v69z" />
    <glyph glyph-name="cid4657" unicode="&#x81ea;" 
d="M842 610q26 0 45.5 -19.5t19.5 -48.5v-584h-815v652h289l12 46h168l-16 -46h297zM258 248h483v71h-483v-71zM741 73v69h-483v-69h483zM741 494h-483v-69h483v69z" />
    <glyph glyph-name="cid4544" unicode="&#x2f84;" 
d="M915 248v-118h-327v-60h341v-116h-859v116h341v60h-326v118h326v44h177v-44h327zM734 429l-20 62h159l29 -85q5 -15 6 -30.5t-4.5 -29t-18.5 -22t-34 -8.5h-704q-18 0 -30 8.5t-18.5 22t-7 29t4.5 30.5l41 115h-65v115h855v-115h-634l-30 -92h471z" />
    <glyph glyph-name="cid4544" unicode="&#x81f3;" 
d="M915 248v-118h-327v-60h341v-116h-859v116h341v60h-326v118h326v44h177v-44h327zM734 429l-20 62h159l29 -85q5 -15 6 -30.5t-4.5 -29t-18.5 -22t-34 -8.5h-704q-18 0 -30 8.5t-18.5 22t-7 29t4.5 30.5l41 115h-65v115h855v-115h-634l-30 -92h471z" />
    <glyph glyph-name="cid2297" unicode="&#x2f85;" 
d="M750 70v167h-202v118h202v167h-202v116h314q26 0 44 -19.5t18 -46.5v-618h-849v684h376v-116h-202v-167h202v-118h-202v-167h501z" />
    <glyph glyph-name="cid2297" unicode="&#x81fc;" 
d="M750 70v167h-202v118h202v167h-202v116h314q26 0 44 -19.5t18 -46.5v-618h-849v684h376v-116h-202v-167h202v-118h-202v-167h501z" />
    <glyph glyph-name="cid3353" unicode="&#x2f86;" 
d="M937 458v-118h-358v-66h281q20 0 34 -14.5t14 -37.5v-269h-817v321h329v66h-358v118h358v72h-340v114h839v-114h-340v-72h358zM747 67v93h-495v-93h495z" />
    <glyph glyph-name="cid3353" unicode="&#x820c;" 
d="M937 458v-118h-358v-66h281q20 0 34 -14.5t14 -37.5v-269h-817v321h329v66h-358v118h358v72h-340v114h839v-114h-340v-72h358zM747 67v93h-495v-93h495z" />
    <glyph glyph-name="cid5656" unicode="&#x2f87;" 
d="M719 -54v154h-133q-29 0 -49 20t-20 49v215h151v-168h51v226h-193v117h193v98h175v-98h83v-117h-83v-226h88v-116h-88v-154h-175zM222 348l93 -42q12 32 19 66.5t10 71.5h-116q-19 -48 -41 -90.5t-48 -77.5l-122 73q22 30 42.5 68t39 79.5t34.5 84t28 81.5l130 -20
l-23 -83h164q46 0 60.5 -26.5t9.5 -68.5q-14 -110 -37 -192t-62 -144t-97.5 -107t-144.5 -81l-118 113q75 23 129.5 63t92.5 93l-85 39z" />
    <glyph glyph-name="cid5656" unicode="&#x821b;" 
d="M719 -54v154h-133q-29 0 -49 20t-20 49v215h151v-168h51v226h-193v117h193v98h175v-98h83v-117h-83v-226h88v-116h-88v-154h-175zM222 348l93 -42q12 32 19 66.5t10 71.5h-116q-19 -48 -41 -90.5t-48 -77.5l-122 73q22 30 42.5 68t39 79.5t34.5 84t28 81.5l130 -20
l-23 -83h164q46 0 60.5 -26.5t9.5 -68.5q-14 -110 -37 -192t-62 -144t-97.5 -107t-144.5 -81l-118 113q75 23 129.5 63t92.5 93l-85 39z" />
    <glyph glyph-name="cid4570" unicode="&#x2f88;" 
d="M947 323v-116h-66v-259h-259v110h92v149h-404q-3 -36 -8.5 -74.5t-14 -73.5t-18.5 -66t-21 -52l-169 41q11 16 21.5 40.5t19.5 54.5t16 63.5t12 66.5h-96v116h101v292h247l14 41h169l-12 -41h237q15 0 28 -6t23 -16.5t16 -24.5t6 -30v-215h66zM714 500h-401v-177h401v177
zM438 52l-26 119h163l31 -119h-168zM438 356l-26 116h163l31 -116h-168z" />
    <glyph glyph-name="cid4570" unicode="&#x821f;" 
d="M947 323v-116h-66v-259h-259v110h92v149h-404q-3 -36 -8.5 -74.5t-14 -73.5t-18.5 -66t-21 -52l-169 41q11 16 21.5 40.5t19.5 54.5t16 63.5t12 66.5h-96v116h101v292h247l14 41h169l-12 -41h237q15 0 28 -6t23 -16.5t16 -24.5t6 -30v-215h66zM714 500h-401v-177h401v177
zM438 52l-26 119h163l31 -119h-168zM438 356l-26 116h163l31 -116h-168z" />
    <glyph glyph-name="cid7388" unicode="&#x2f89;" 
d="M127 -51q-26 0 -45 18.5t-19 46.5v622h757q26 0 45 -19t19 -48v-353h-331q32 -24 66 -43t69 -34l27 53h164l-49 -95q55 -12 106 -15l-81 -139q-144 20 -266 84t-220 189h-140v-158h149v-109h-251zM719 326v50h-490v-50h490zM719 526h-490v-44h490v44z" />
    <glyph glyph-name="cid7388" unicode="&#x826e;" 
d="M127 -51q-26 0 -45 18.5t-19 46.5v622h757q26 0 45 -19t19 -48v-353h-331q32 -24 66 -43t69 -34l27 53h164l-49 -95q55 -12 106 -15l-81 -139q-144 20 -266 84t-220 189h-140v-158h149v-109h-251zM719 326v50h-490v-50h490zM719 526h-490v-44h490v44z" />
    <glyph glyph-name="cid3300" unicode="&#x2f8a;" 
d="M166 -59q-27 0 -46.5 21t-19.5 47v423l-46 11q16 21 31.5 48.5t28 56t22.5 57t16 51.5l142 -10l-5 -31h516q18 0 32 -7t23 -19.5t11.5 -29.5t-3.5 -36l-26 -75h24q26 0 44.5 -19t18.5 -47v-262h-661v-67h678v-112h-780zM698 505h-440q-5 -15 -11 -29.5t-13 -27.5h446z
M765 228v110h-167v-110h167zM268 228h162v110h-162v-110z" />
    <glyph glyph-name="cid3300" unicode="&#x8272;" 
d="M166 -59q-27 0 -46.5 21t-19.5 47v423l-46 11q16 21 31.5 48.5t28 56t22.5 57t16 51.5l142 -10l-5 -31h516q18 0 32 -7t23 -19.5t11.5 -29.5t-3.5 -36l-26 -75h24q26 0 44.5 -19t18.5 -47v-262h-661v-67h678v-112h-780zM698 505h-440q-5 -15 -11 -29.5t-13 -27.5h446z
M765 228v110h-167v-110h167zM268 228h162v110h-162v-110z" />
    <glyph glyph-name="cid7152" unicode="&#x2f8c;" 
d="M788 317v58h-535v-189q0 -78 -10 -139t-27 -106l-169 34q21 48 31 108t10 121v286h342v166h168v-28h338v-109h-338v-29h292q26 0 44.5 -19t18.5 -49v-105h-165zM948 290v-114l-335 -7v-106h335v-115h-436q-28 0 -47.5 19.5t-19.5 47.5v151l-154 -3v112l154 3v61h168v-57z
" />
    <glyph glyph-name="cid7152" unicode="&#x864d;" 
d="M788 317v58h-535v-189q0 -78 -10 -139t-27 -106l-169 34q21 48 31 108t10 121v286h342v166h168v-28h338v-109h-338v-29h292q26 0 44.5 -19t18.5 -49v-105h-165zM948 290v-114l-335 -7v-106h335v-115h-436q-28 0 -47.5 19.5t-19.5 47.5v151l-154 -3v112l154 3v61h168v-57z
" />
    <glyph glyph-name="cid1291" unicode="&#x2f8d;" 
d="M851 567q28 0 46.5 -21.5t18.5 -47.5v-324h-329v-101h188v64h164v-179h-878v115h352v101h-330v393h330v89h174v-89h264zM249 287h164v162h-164v-162zM751 287v162h-164v-162h164z" />
    <glyph glyph-name="cid1291" unicode="&#x866b;" 
d="M851 567q28 0 46.5 -21.5t18.5 -47.5v-324h-329v-101h188v64h164v-179h-878v115h352v101h-330v393h330v89h174v-89h264zM249 287h164v162h-164v-162zM751 287v162h-164v-162h164z" />
    <glyph glyph-name="cid4051" unicode="&#x2f8e;" 
d="M945 67v-114h-891v114h37v542h218l11 47h164l-8 -47h368q28 0 46.5 -19.5t18.5 -48.5v-474h36zM256 67h59v432h-59v-432zM743 499h-58v-432h58v432zM474 67h52v432h-52v-432z" />
    <glyph glyph-name="cid4051" unicode="&#x8840;" 
d="M945 67v-114h-891v114h37v542h218l11 47h164l-8 -47h368q28 0 46.5 -19.5t18.5 -48.5v-474h36zM256 67h59v432h-59v-432zM743 499h-58v-432h58v432zM474 67h52v432h-52v-432z" />
    <glyph glyph-name="cid3995" unicode="&#x2f8f;" 
d="M545 -58v118h139v231h-272v116h567v-116h-120v-349h-314zM164 -60v278q-20 -10 -39 -17.5t-38 -14.5l-66 133q33 12 69.5 27.5t71.5 34.5t66 40t53 44l98 -71q-21 -36 -52.5 -66.5t-69.5 -56.5h80v-331h-173zM432 637h526v-116h-526v116zM21 532q67 28 120.5 58t95.5 74
l118 -43q-14 -33 -44.5 -66t-68.5 -62t-81 -52.5t-82 -37.5z" />
    <glyph glyph-name="cid3995" unicode="&#x884c;" 
d="M545 -58v118h139v231h-272v116h567v-116h-120v-349h-314zM164 -60v278q-20 -10 -39 -17.5t-38 -14.5l-66 133q33 12 69.5 27.5t71.5 34.5t66 40t53 44l98 -71q-21 -36 -52.5 -66.5t-69.5 -56.5h80v-331h-173zM432 637h526v-116h-526v116zM21 532q67 28 120.5 58t95.5 74
l118 -43q-14 -33 -44.5 -66t-68.5 -62t-81 -52.5t-82 -37.5z" />
    <glyph glyph-name="cid4169" unicode="&#x2f90;" 
d="M944 601v-116h-345q15 -42 38 -86t52 -87l183 100l56 -110l-156 -87q40 -39 86 -68.5t99 -46.5l-83 -142q-75 25 -136.5 72.5t-110.5 107t-85.5 127.5t-61.5 134q-13 -22 -27.5 -43t-30.5 -42v-256h137v-112h-248q-23 0 -39 18t-16 40v148q-32 -23 -67.5 -44t-73.5 -38
l-72 131q43 21 87 52.5t86 69t79.5 79.5t67.5 83h-307v116h362v56h164v-56h362z" />
    <glyph glyph-name="cid4169" unicode="&#x8863;" 
d="M944 601v-116h-345q15 -42 38 -86t52 -87l183 100l56 -110l-156 -87q40 -39 86 -68.5t99 -46.5l-83 -142q-75 25 -136.5 72.5t-110.5 107t-85.5 127.5t-61.5 134q-13 -22 -27.5 -43t-30.5 -42v-256h137v-112h-248q-23 0 -39 18t-16 40v148q-32 -23 -67.5 -44t-73.5 -38
l-72 131q43 21 87 52.5t86 69t79.5 79.5t67.5 83h-307v116h362v56h164v-56h362z" />
    <glyph glyph-name="cid2200" unicode="&#x2f93;" 
d="M446 -43v130h-173q-6 -44 -15 -81.5t-22 -65.5l-164 42q10 19 19 50.5t16 70.5t11 82t5 87v197l-65 34q41 37 69 74.5t49 79.5l145 -15l-4 -12t-4 -11h497q19 0 31.5 -7t18.5 -19t4.5 -27.5t-10.5 -31.5l-31 -59h48q29 0 49.5 -22t20.5 -52v-454h-256v93h92v47h-164v-130
h-167zM669 515h-409q-7 -11 -14 -21t-14 -19h417zM777 372h-164v-43h164v43zM283 329h163v43h-163v-43zM613 188h164v42h-164v-42zM446 188v42h-163q0 -11 -0.5 -21t-1.5 -21h165z" />
    <glyph glyph-name="cid2200" unicode="&#x89d2;" 
d="M446 -43v130h-173q-6 -44 -15 -81.5t-22 -65.5l-164 42q10 19 19 50.5t16 70.5t11 82t5 87v197l-65 34q41 37 69 74.5t49 79.5l145 -15l-4 -12t-4 -11h497q19 0 31.5 -7t18.5 -19t4.5 -27.5t-10.5 -31.5l-31 -59h48q29 0 49.5 -22t20.5 -52v-454h-256v93h92v47h-164v-130
h-167zM669 515h-409q-7 -11 -14 -21t-14 -19h417zM777 372h-164v-43h164v43zM283 329h163v43h-163v-43zM613 188h164v42h-164v-42zM446 188v42h-163q0 -11 -0.5 -21t-1.5 -21h165z" />
    <glyph glyph-name="cid4093" unicode="&#x2f94;" 
d="M834 206q28 0 46.5 -19t18.5 -49v-188h-799v256h734zM945 626v-104h-891v104h364v29h163v-29h364zM904 345v-106h-809v106h809zM904 485v-104h-809v104h809zM732 57v44h-465v-44h465z" />
    <glyph glyph-name="cid4093" unicode="&#x8a00;" 
d="M834 206q28 0 46.5 -19t18.5 -49v-188h-799v256h734zM945 626v-104h-891v104h364v29h163v-29h364zM904 345v-106h-809v106h809zM904 485v-104h-809v104h809zM732 57v44h-465v-44h465z" />
    <glyph glyph-name="cid1825" unicode="&#x2f95;" 
d="M571 495q21 -18 54 -40.5t79.5 -44t108 -38.5t139.5 -22l-36 -130q-18 0 -36 3q9 -14 9 -29v-241h-779v267q-7 -1 -13.5 -1.5t-13.5 -0.5l-36 128q78 5 139.5 22.5t108 39.5t79.5 45.5t54 41.5h143zM49 540q36 4 77.5 16.5t81.5 29t74.5 35t56.5 35.5l60 -81
q-51 -64 -132 -107.5t-172 -59.5zM904 408q-91 16 -172 59.5t-132 107.5l60 81q22 -17 56.5 -35.5t74.5 -35t81.5 -29t77.5 -16.5zM500 397q-43 -41 -110.5 -83.5t-155.5 -68.5h535q-90 26 -158 68t-111 84zM722 64v71h-445v-71h445z" />
    <glyph glyph-name="cid1825" unicode="&#x8c37;" 
d="M571 495q21 -18 54 -40.5t79.5 -44t108 -38.5t139.5 -22l-36 -130q-18 0 -36 3q9 -14 9 -29v-241h-779v267q-7 -1 -13.5 -1.5t-13.5 -0.5l-36 128q78 5 139.5 22.5t108 39.5t79.5 45.5t54 41.5h143zM49 540q36 4 77.5 16.5t81.5 29t74.5 35t56.5 35.5l60 -81
q-51 -64 -132 -107.5t-172 -59.5zM904 408q-91 16 -172 59.5t-132 107.5l60 81q22 -17 56.5 -35.5t74.5 -35t81.5 -29t77.5 -16.5zM500 397q-43 -41 -110.5 -83.5t-155.5 -68.5h535q-90 26 -158 68t-111 84zM722 64v71h-445v-71h445z" />
    <glyph glyph-name="cid1528" unicode="&#x2f96;" 
d="M850 480q21 0 35.5 -15t14.5 -39v-245h-803v299h753zM945 68v-115h-891v115h111l-21 77h165l21 -77h337l22 77h166l-22 -77h112zM931 634v-116h-863v116h863zM736 297v70h-473v-70h473z" />
    <glyph glyph-name="cid1528" unicode="&#x8c46;" 
d="M850 480q21 0 35.5 -15t14.5 -39v-245h-803v299h753zM945 68v-115h-891v115h111l-21 77h165l21 -77h337l22 77h166l-22 -77h112zM931 634v-116h-863v116h863zM736 297v70h-473v-70h473z" />
    <glyph glyph-name="cid7445" unicode="&#x2f97;" 
d="M944 640v-116h-390q18 -33 33 -73t26 -85q48 38 101.5 73.5t108.5 66.5l100 -86q-18 -8 -38.5 -19.5t-41 -24t-39 -26t-33.5 -25.5q12 -26 33.5 -63t47.5 -75t53 -71t48 -50l-145 -98q-23 23 -47 57t-47.5 74t-45 84t-38.5 88q7 -51 7 -101t-8 -93t-24 -76t-42 -51h-228
v66h81q27 26 40 78l-403 -135v120l413 136q0 25 -3 52l-410 -138v125l391 127l-12 48l-379 -129v120l310 104h-316v116h897z" />
    <glyph glyph-name="cid7445" unicode="&#x8c55;" 
d="M944 640v-116h-390q18 -33 33 -73t26 -85q48 38 101.5 73.5t108.5 66.5l100 -86q-18 -8 -38.5 -19.5t-41 -24t-39 -26t-33.5 -25.5q12 -26 33.5 -63t47.5 -75t53 -71t48 -50l-145 -98q-23 23 -47 57t-47.5 74t-45 84t-38.5 88q7 -51 7 -101t-8 -93t-24 -76t-42 -51h-228
v66h81q27 26 40 78l-403 -135v120l413 136q0 25 -3 52l-410 -138v125l391 127l-12 48l-379 -129v120l310 104h-316v116h897z" />
    <glyph glyph-name="cid7504" unicode="&#x2f98;" 
d="M520 40q2 10 2 20.5t1 21.5l-495 -36v105l485 34q-2 11 -4.5 21.5t-5.5 21.5l-466 -31v105l424 28l-16 29h-417v104h174v56h170v-56h138v56h170v-56h155v-104h-209q30 -49 50 -103t29 -108.5t7.5 -106.5t-12.5 -95h-399v94h219zM44 647h785v-105h-785v105z" />
    <glyph glyph-name="cid7504" unicode="&#x8c78;" 
d="M520 40q2 10 2 20.5t1 21.5l-495 -36v105l485 34q-2 11 -4.5 21.5t-5.5 21.5l-466 -31v105l424 28l-16 29h-417v104h174v56h170v-56h138v56h170v-56h155v-104h-209q30 -49 50 -103t29 -108.5t7.5 -106.5t-12.5 -95h-399v94h219zM44 647h785v-105h-785v105z" />
    <glyph glyph-name="cid1285" unicode="&#x2f9a;" 
d="M945 432v-113h-227v-370h-232v110h76v260h-112v-19q0 -125 -19 -215t-66 -144l-162 61q45 49 66.5 125.5t21.5 169.5v22h-228v113h359v64h-333v114h333v42h164v-42h333v-114h-333v-64h359zM44 81q16 21 30 46.5t24.5 53t18.5 56t13 54.5l121 -17q-2 -34 -8.5 -69.5
t-16.5 -69.5t-23 -64t-28 -52zM824 19q-15 22 -28 52t-23 64t-16.5 69.5t-8.5 69.5l121 17q5 -26 13 -54.5t18.5 -56t24 -53t30.5 -46.5z" />
    <glyph glyph-name="cid1285" unicode="&#x8d64;" 
d="M945 432v-113h-227v-370h-232v110h76v260h-112v-19q0 -125 -19 -215t-66 -144l-162 61q45 49 66.5 125.5t21.5 169.5v22h-228v113h359v64h-333v114h333v42h164v-42h333v-114h-333v-64h359zM44 81q16 21 30 46.5t24.5 53t18.5 56t13 54.5l121 -17q-2 -34 -8.5 -69.5
t-16.5 -69.5t-23 -64t-28 -52zM824 19q-15 22 -28 52t-23 64t-16.5 69.5t-8.5 69.5l121 17q5 -26 13 -54.5t18.5 -56t24 -53t30.5 -46.5z" />
    <glyph glyph-name="cid4668" unicode="&#x2f9b;" 
d="M912 600v-115h-306v-64h340v-114h-874v114h360v64h-329v115h329v57h174v-57h306zM954 67v-115h-524q-42 0 -82.5 16.5t-80.5 48.5q-10 -22 -20.5 -41t-22.5 -36l-179 42q45 56 74.5 130t39.5 156l164 -12q-3 -57 -17 -119q32 -29 69 -47t78 -22v216h177v-43h277v-113
h-277v-61h324z" />
    <glyph glyph-name="cid4668" unicode="&#x8d70;" 
d="M912 600v-115h-306v-64h340v-114h-874v114h360v64h-329v115h329v57h174v-57h306zM954 67v-115h-524q-42 0 -82.5 16.5t-80.5 48.5q-10 -22 -20.5 -41t-22.5 -36l-179 42q45 56 74.5 130t39.5 156l164 -12q-3 -57 -17 -119q32 -29 69 -47t78 -22v216h177v-43h277v-113
h-277v-61h324z" />
    <glyph glyph-name="cid4672" unicode="&#x2f9c;" 
d="M953 68v-115h-537q-40 0 -82.5 15.5t-84.5 44.5q-8 -21 -15.5 -38.5t-15.5 -31.5l-172 39q17 28 32.5 65.5t29 77.5t23.5 80.5t17 75.5l154 -2q-2 -32 -7.5 -69.5t-13.5 -75.5q35 -26 74.5 -43.5t80.5 -21.5v249h-339v327h753q22 0 37 -16t15 -36v-275h-297v-55h311v-115
h-311v-80h348zM736 432v98h-473v-98h473z" />
    <glyph glyph-name="cid4672" unicode="&#x8db3;" 
d="M953 68v-115h-537q-40 0 -82.5 15.5t-84.5 44.5q-8 -21 -15.5 -38.5t-15.5 -31.5l-172 39q17 28 32.5 65.5t29 77.5t23.5 80.5t17 75.5l154 -2q-2 -32 -7.5 -69.5t-13.5 -75.5q35 -26 74.5 -43.5t80.5 -21.5v249h-339v327h753q22 0 37 -16t15 -36v-275h-297v-55h311v-115
h-311v-80h348zM736 432v98h-473v-98h473z" />
    <glyph glyph-name="cid3366" unicode="&#x2f9d;" 
d="M954 224q-19 -14 -42 -27.5t-49 -27.5v-228h-299v96h135v61q-72 -27 -151.5 -51t-158 -43.5t-153.5 -33.5t-138 -20l-53 125q78 6 170.5 21t189.5 38h-350v105h91v394h200l6 23h166l-6 -23h299q22 0 37 -15.5t15 -38.5v-291l22 12t22 13zM311 239h388v37h-388v-37z
M311 369h388v34h-388v-34zM699 527h-388v-33h388v33z" />
    <glyph glyph-name="cid3366" unicode="&#x8eab;" 
d="M954 224q-19 -14 -42 -27.5t-49 -27.5v-228h-299v96h135v61q-72 -27 -151.5 -51t-158 -43.5t-153.5 -33.5t-138 -20l-53 125q78 6 170.5 21t189.5 38h-350v105h91v394h200l6 23h166l-6 -23h299q22 0 37 -15.5t15 -38.5v-291l22 12t22 13zM311 239h388v37h-388v-37z
M311 369h388v34h-388v-34zM699 527h-388v-33h388v33z" />
    <glyph glyph-name="cid7803" unicode="&#x2f9e;" 
d="M418 93v30h-335v370h335v27h-355v105h355v31h163v-31h355v-105h-355v-27h284q21 0 36 -15.5t15 -38.5v-316h-335v-30h364v-105h-364v-47h-163v47h-364v105h364zM418 225v34h-169v-34h169zM750 225v34h-169v-34h169zM581 386v-31h169v31h-169zM249 355h169v31h-169v-31z
" />
    <glyph glyph-name="cid7803" unicode="&#x8eca;" 
d="M418 93v30h-335v370h335v27h-355v105h355v31h163v-31h355v-105h-355v-27h284q21 0 36 -15.5t15 -38.5v-316h-335v-30h364v-105h-364v-47h-163v47h-364v105h364zM418 225v34h-169v-34h169zM750 225v34h-169v-34h169zM581 386v-31h169v31h-169zM249 355h169v31h-169v-31z
" />
    <glyph glyph-name="cid3980" unicode="&#x2f9f;" 
d="M945 373v-114h-364v-84h338v-115h-338v-119h-163v119h-338v115h338v84h-364v114h119l-24 87h165l24 -87h322l25 87h165l-24 -87h119zM919 611v-114h-839v114h338v45h163v-45h338z" />
    <glyph glyph-name="cid3980" unicode="&#x8f9b;" 
d="M945 373v-114h-364v-84h338v-115h-338v-119h-163v119h-338v115h338v84h-364v114h119l-24 87h165l24 -87h322l25 87h165l-24 -87h119zM919 611v-114h-839v114h338v45h163v-45h338z" />
    <glyph glyph-name="cid1250" unicode="&#x2fa0;" 
d="M581 49v-101h-203q-29 0 -46.5 18.5t-17.5 47.5v207h-61v-52q0 -75 -8.5 -129t-27.5 -97l-173 24q11 18 19 42t13.5 50t8 51.5t2.5 46.5v480h849v-115h-683v-192h692v-109h-246q22 -34 52 -61l14 33h150l-44 -103q20 -8 40.5 -14t43.5 -12l-106 -121q-49 13 -92.5 35
t-81.5 55.5t-71 79.5t-60 108h-67v-172h104zM287 489h604v-112h-604v112z" />
    <glyph glyph-name="cid1250" unicode="&#x8fb0;" 
d="M581 49v-101h-203q-29 0 -46.5 18.5t-17.5 47.5v207h-61v-52q0 -75 -8.5 -129t-27.5 -97l-173 24q11 18 19 42t13.5 50t8 51.5t2.5 46.5v480h849v-115h-683v-192h692v-109h-246q22 -34 52 -61l14 33h150l-44 -103q20 -8 40.5 -14t43.5 -12l-106 -121q-49 13 -92.5 35
t-81.5 55.5t-71 79.5t-60 108h-67v-172h104zM287 489h604v-112h-604v112z" />
    <glyph glyph-name="cid4191" unicode="&#x2fa2;" 
d="M66 378h780q34 0 53.5 -21t19.5 -55v-185h-689v-57h704v-106h-805q-26 0 -44.5 19.5t-18.5 47.5v357zM95 647h729q35 0 55 -20.5t20 -55.5v-165h-804v241zM261 506h472v41h-472v-41zM230 217h190v60h-190v-60zM755 217v60h-171v-60h171z" />
    <glyph glyph-name="cid4191" unicode="&#x9091;" 
d="M66 378h780q34 0 53.5 -21t19.5 -55v-185h-689v-57h704v-106h-805q-26 0 -44.5 19.5t-18.5 47.5v357zM95 647h729q35 0 55 -20.5t20 -55.5v-165h-804v241zM261 506h472v41h-472v-41zM230 217h190v60h-190v-60zM755 217v60h-171v-60h171z" />
    <glyph glyph-name="cid4276" unicode="&#x2fa3;" 
d="M944 643v-109h-253v-35h184q23 0 38.5 -16.5t15.5 -41.5v-488h-858v546h238v35h-253v109h888zM767 63v35h-534v-35h534zM242 314q15 14 33 35.5t24 40.5h-66v-180h534v32h-180q-21 0 -39.5 18t-18.5 40v90h-59q-11 -30 -21.5 -54t-23.5 -44t-29.5 -37.5t-38.5 -36.5z
M767 390h-76v-45h76v45zM470 499h59v35h-59v-35z" />
    <glyph glyph-name="cid4276" unicode="&#x9149;" 
d="M944 643v-109h-253v-35h184q23 0 38.5 -16.5t15.5 -41.5v-488h-858v546h238v35h-253v109h888zM767 63v35h-534v-35h534zM242 314q15 14 33 35.5t24 40.5h-66v-180h534v32h-180q-21 0 -39.5 18t-18.5 40v90h-59q-11 -30 -21.5 -54t-23.5 -44t-29.5 -37.5t-38.5 -36.5z
M767 390h-76v-45h76v45zM470 499h59v35h-59v-35z" />
    <glyph glyph-name="cid2522" unicode="&#x2fa5;" 
d="M945 60v-106h-891v106h364v41h-328v107h328v38h-320v401h738q27 0 46 -19.5t19 -47.5v-334h-320v-38h328v-107h-328v-41h364zM264 355h154v45h-154v-45zM735 355v45h-154v-45h154zM735 541h-154v-44h154v44zM264 497h154v44h-154v-44z" />
    <glyph glyph-name="cid2522" unicode="&#x91cc;" 
d="M945 60v-106h-891v106h364v41h-328v107h328v38h-320v401h738q27 0 46 -19.5t19 -47.5v-334h-320v-38h328v-107h-328v-41h364zM264 355h154v45h-154v-45zM735 355v45h-154v-45h154zM735 541h-154v-44h154v44zM264 497h154v44h-154v-44z" />
    <glyph glyph-name="cid2241" unicode="&#x2fa6;" 
d="M939 65v-111h-879v111h85l-13 65h160l14 -65h112v95h-319v110h319v56h-224v75q-46 -7 -98 -12l-49 131q155 10 247.5 48.5t133.5 88.5h143q41 -50 133.5 -86t247.5 -47l-49 -132q-26 2 -50.5 5.5t-47.5 7.5v-79h-224v-56h319v-110h-319v-95h112l14 65h160l-14 -65h86z
M500 548q-63 -74 -175 -113h354q-57 19 -102 46.5t-77 66.5z" />
    <glyph glyph-name="cid2241" unicode="&#x91d1;" 
d="M939 65v-111h-879v111h85l-13 65h160l14 -65h112v95h-319v110h319v56h-224v75q-46 -7 -98 -12l-49 131q155 10 247.5 48.5t133.5 88.5h143q41 -50 133.5 -86t247.5 -47l-49 -132q-26 2 -50.5 5.5t-47.5 7.5v-79h-224v-56h319v-110h-319v-95h112l14 65h160l-14 -65h86z
M500 548q-63 -74 -175 -113h354q-57 19 -102 46.5t-77 66.5z" />
    <glyph glyph-name="cid1714" unicode="&#x2fa9;" 
d="M947 112v-96h-366v-75h-163v75h-366v96h366v40h-327v471h259l13 33h162l-10 -33h325q21 0 36 -15t15 -37v-169h-639v-25h607q20 0 34.5 -15t14.5 -39v-171h-327v-40h366zM747 245v36h-495v-36h495zM727 498v28h-475v-28h475z" />
    <glyph glyph-name="cid1714" unicode="&#x961c;" 
d="M947 112v-96h-366v-75h-163v75h-366v96h366v40h-327v471h259l13 33h162l-10 -33h325q21 0 36 -15t15 -37v-169h-639v-25h607q20 0 34.5 -15t14.5 -39v-171h-327v-40h366zM747 245v36h-495v-36h495zM727 498v28h-475v-28h475z" />
    <glyph glyph-name="cid2542" unicode="&#x2faa;" 
d="M339 -59v100h79v202h-321v101h321v35h-368v110h368v34h-321v100h321v33h163v-33h269q22 0 37 -14.5t15 -35.5v-84h47v-110h-47v-136h-321v-302h-242zM62 -22q14 10 26.5 25.5t22 32t15 33t7.5 28.5l164 -5q-2 -41 -18 -81t-48 -68zM768 -57q-32 28 -48 68t-18 81l164 5
q1 -12 7 -28.5t15.5 -33t22 -32t26.5 -25.5zM702 122l12 99h165l-13 -99h-164zM133 122l-13 99h165l12 -99h-164zM736 344v35h-155v-35h155zM736 523h-155v-34h155v34z" />
    <glyph glyph-name="cid2542" unicode="&#x96b6;" 
d="M339 -59v100h79v202h-321v101h321v35h-368v110h368v34h-321v100h321v33h163v-33h269q22 0 37 -14.5t15 -35.5v-84h47v-110h-47v-136h-321v-302h-242zM62 -22q14 10 26.5 25.5t22 32t15 33t7.5 28.5l164 -5q-2 -41 -18 -81t-48 -68zM768 -57q-32 28 -48 68t-18 81l164 5
q1 -12 7 -28.5t15.5 -33t22 -32t26.5 -25.5zM702 122l12 99h165l-13 -99h-164zM133 122l-13 99h165l12 -99h-164zM736 344v35h-155v-35h155zM736 523h-155v-34h155v34z" />
    <glyph glyph-name="cid7545" unicode="&#x2fab;" 
d="M929 235v-113h-216v-56h230v-117h-780v369q-23 -20 -49 -38l-57 184q29 21 51.5 42t40 44t31.5 49.5t27 58.5l154 -15q-9 -36 -21 -69h207v64h166v-64h230v-113h-230v-57h216v-116h-216v-53h216zM328 404h219v57h-219v-57zM328 66h219v56h-219v-56zM328 235h219v53h-219
v-53z" />
    <glyph glyph-name="cid7545" unicode="&#x96b9;" 
d="M929 235v-113h-216v-56h230v-117h-780v369q-23 -20 -49 -38l-57 184q29 21 51.5 42t40 44t31.5 49.5t27 58.5l154 -15q-9 -36 -21 -69h207v64h166v-64h230v-113h-230v-57h216v-116h-216v-53h216zM328 404h219v57h-219v-57zM328 66h219v56h-219v-56zM328 235h219v53h-219
v-53z" />
    <glyph glyph-name="cid4303" unicode="&#x2fac;" 
d="M418 -57v431h-185v-431h-164v542h349v38h-361v115h886v-115h-361v-38h278q29 0 50.5 -22t21.5 -54v-466h-263v83h98v348h-185v-431h-164zM393 321v-95h-137v95h137zM744 321v-95h-137v95h137zM744 166v-94h-137v94h137zM393 166v-94h-137v94h137z" />
    <glyph glyph-name="cid4303" unicode="&#x96e8;" 
d="M418 -57v431h-185v-431h-164v542h349v38h-361v115h886v-115h-361v-38h278q29 0 50.5 -22t21.5 -54v-466h-263v83h98v348h-185v-431h-164zM393 321v-95h-137v95h137zM744 321v-95h-137v95h137zM744 166v-94h-137v94h137zM393 166v-94h-137v94h137z" />
    <glyph glyph-name="cid1636" unicode="&#x2fae;" 
d="M947 152v-117h-226v-93h-164v717h164v-76h217v-113h-217v-101h196v-115h-196v-102h226zM278 -58v93h-225v117h225v102h-196v115h196v101h-217v113h217v76h164v-717h-164z" />
    <glyph glyph-name="cid1636" unicode="&#x975e;" 
d="M947 152v-117h-226v-93h-164v717h164v-76h217v-113h-217v-101h196v-115h-196v-102h226zM278 -58v93h-225v117h225v102h-196v115h196v101h-217v113h217v76h164v-717h-164z" />
    <glyph glyph-name="cid2795" unicode="&#x2faf;" 
d="M850 484q30 0 51.5 -22t21.5 -53v-456h-847v531h342v45h-364v116h891v-116h-364v-45h269zM759 69v302h-58v-302h58zM240 69h58v302h-58v-302zM450 328h99v43h-99v-43zM450 198h99v39h-99v-39zM450 69h99v39h-99v-39z" />
    <glyph glyph-name="cid2795" unicode="&#x9762;" 
d="M850 484q30 0 51.5 -22t21.5 -53v-456h-847v531h342v45h-364v116h891v-116h-364v-45h269zM759 69v302h-58v-302h58zM240 69h58v302h-58v-302zM450 328h99v43h-99v-43zM450 198h99v39h-99v-39zM450 69h99v39h-99v-39z" />
    <glyph glyph-name="cid1770" unicode="&#x2fb0;" 
d="M945 638v-99h-118v-128h-246v-33h270q23 0 39.5 -15.5t16.5 -39.5v-204h-326v-36h364v-104h-364v-37h-163v37h-364v104h364v36h-326v259h326v33h-192q-23 0 -38.5 16.5t-15.5 42.5v69h-118v99h118v21h162v-21h331v21h162v-21h118zM665 506v33h-331v-33h331zM258 219h160
v59h-160v-59zM741 219v59h-160v-59h160z" />
    <glyph glyph-name="cid1770" unicode="&#x9769;" 
d="M945 638v-99h-118v-128h-246v-33h270q23 0 39.5 -15.5t16.5 -39.5v-204h-326v-36h364v-104h-364v-37h-163v37h-364v104h364v36h-326v259h326v33h-192q-23 0 -38.5 16.5t-15.5 42.5v69h-118v99h118v21h162v-21h331v21h162v-21h118zM665 506v33h-331v-33h331zM258 219h160
v59h-160v-59zM741 219v59h-160v-59h160z" />
    <glyph glyph-name="cid2289" unicode="&#x2fb2;" 
d="M938 618v-115h-217v-71h196v-112h-196v-70h226v-114h-226v-67h234v-115h-911v115h234v67h-226v114h226v70h-196v112h196v71h-217v115h217v39h164v-588h115v588h164v-39h217z" />
    <glyph glyph-name="cid2289" unicode="&#x97ed;" 
d="M938 618v-115h-217v-71h196v-112h-196v-70h226v-114h-226v-67h234v-115h-911v115h234v67h-226v114h226v70h-196v112h196v71h-217v115h217v39h164v-588h115v588h164v-39h217z" />
    <glyph glyph-name="cid4219" unicode="&#x2fb3;" 
d="M820 315q23 0 39 -17t16 -39v-305h-751v361h696zM937 446v-100h-875v100h106l-13 50h165l13 -50h333l13 50h165l-13 -50h106zM899 624v-99h-799v99h318v33h163v-33h318zM707 214h-415v-32h415v32zM707 55v30h-415v-30h415z" />
    <glyph glyph-name="cid4219" unicode="&#x97f3;" 
d="M820 315q23 0 39 -17t16 -39v-305h-751v361h696zM937 446v-100h-875v100h106l-13 50h165l13 -50h333l13 50h165l-13 -50h106zM899 624v-99h-799v99h318v33h163v-33h318zM707 214h-415v-32h415v32zM707 55v30h-415v-30h415z" />
    <glyph glyph-name="cid7936" unicode="&#x2fb5;" 
d="M46 -18q11 21 20 53t15.5 70t10.5 80t5 84v364h728q31 0 52 -21t21 -53v-402q0 -26 14 -41t41 -15v-149q-114 0 -165.5 49.5t-51.5 154.5v361h-483v-268q0 -44 -3.5 -88t-9.5 -84t-15 -74t-19 -59zM659 367q20 0 36 -16t16 -40v-204h-141v-39h27v20h118v-121h-440v101
h148v39h-144v260h144v30h-148v100h440v-100h-145v-30h89zM388 208h35v58h-35v-58zM602 208v58h-32v-58h32z" />
    <glyph glyph-name="cid7936" unicode="&#x98a8;" 
d="M46 -18q11 21 20 53t15.5 70t10.5 80t5 84v364h728q31 0 52 -21t21 -53v-402q0 -26 14 -41t41 -15v-149q-114 0 -165.5 49.5t-51.5 154.5v361h-483v-268q0 -44 -3.5 -88t-9.5 -84t-15 -74t-19 -59zM659 367q20 0 36 -16t16 -40v-204h-141v-39h27v20h118v-121h-440v101
h148v39h-144v260h144v30h-148v100h440v-100h-145v-30h89zM388 208h35v58h-35v-58zM602 208v58h-32v-58h32z" />
    <glyph glyph-name="cid7924" unicode="&#x2fb6;" 
d="M55 293h76v90h-57v115h282v-115h-60v-90h104v205h169v-205h181q14 0 26 -7t20 -18h148v-83h-139v-25h139v-83h-139v-24h139v-100h-248q-23 0 -40 16.5t-17 40.5v168h-70v-230h-169v230h-107q-3 -72 -13 -132.5t-28 -103.5l-170 40q14 33 26 84.5t18 111.5h-71v115z
M55 647h695q15 0 27.5 -8t19.5 -20h147v-82h-139v-21h139v-80h-139v-24h139v-101h-248q-23 0 -40 16t-17 42v163h-584v115z" />
    <glyph glyph-name="cid7924" unicode="&#x98db;" 
d="M55 293h76v90h-57v115h282v-115h-60v-90h104v205h169v-205h181q14 0 26 -7t20 -18h148v-83h-139v-25h139v-83h-139v-24h139v-100h-248q-23 0 -40 16.5t-17 40.5v168h-70v-230h-169v230h-107q-3 -72 -13 -132.5t-28 -103.5l-170 40q14 33 26 84.5t18 111.5h-71v115z
M55 647h695q15 0 27.5 -8t19.5 -20h147v-82h-139v-21h139v-80h-139v-24h139v-101h-248q-23 0 -40 16t-17 42v163h-584v115z" />
    <glyph glyph-name="cid3402" unicode="&#x2fb7;" 
d="M200 -51q-20 0 -36 17t-16 40v405q-13 -2 -25.5 -3t-26.5 -2l-49 123q78 5 139.5 20t108 34.5t79.5 41.5t54 41h143q21 -19 54 -40.5t79.5 -40.5t108 -33.5t139.5 -19.5l-49 -122l-38 3q8 -13 8 -28v-271h-282q27 -14 58.5 -23.5t66.5 -17.5l13 26h155l-23 -42
q20 -2 42 -2h45l-67 -115q-66 -1 -130.5 7t-124.5 28t-114 54t-98 85h-101v-69h125v-96h-238zM418 489h163v-47h145q-75 23 -131.5 56.5t-94.5 75.5q-38 -40 -92 -74.5t-126 -57.5h136v47zM707 349h-394v-30h394v30zM707 208v29h-394v-29h394z" />
    <glyph glyph-name="cid3402" unicode="&#x98df;" 
d="M200 -51q-20 0 -36 17t-16 40v405q-13 -2 -25.5 -3t-26.5 -2l-49 123q78 5 139.5 20t108 34.5t79.5 41.5t54 41h143q21 -19 54 -40.5t79.5 -40.5t108 -33.5t139.5 -19.5l-49 -122l-38 3q8 -13 8 -28v-271h-282q27 -14 58.5 -23.5t66.5 -17.5l13 26h155l-23 -42
q20 -2 42 -2h45l-67 -115q-66 -1 -130.5 7t-124.5 28t-114 54t-98 85h-101v-69h125v-96h-238zM418 489h163v-47h145q-75 23 -131.5 56.5t-94.5 75.5q-38 -40 -92 -74.5t-126 -57.5h136v47zM707 349h-394v-30h394v30zM707 208v29h-394v-29h394z" />
    <glyph glyph-name="cid3438" unicode="&#x2fb8;" 
d="M938 618v-115h-356v-31h253q31 0 52.5 -24t21.5 -55v-435h-818v514h327v31h-356v115h121l-11 37h162l12 -37h307l13 37h162l-12 -37h122zM256 196h487v35h-487v-35zM743 72v33h-487v-33h487zM743 354h-487v-31h487v31z" />
    <glyph glyph-name="cid3438" unicode="&#x9996;" 
d="M938 618v-115h-356v-31h253q31 0 52.5 -24t21.5 -55v-435h-818v514h327v31h-356v115h121l-11 37h162l12 -37h307l13 37h162l-12 -37h122zM256 196h487v35h-487v-35zM743 72v33h-487v-33h487zM743 354h-487v-31h487v31z" />
    <glyph glyph-name="cid3920" unicode="&#x2fb9;" 
d="M932 528v-90h-209q95 -31 216 -35l-31 -118q-43 1 -88 8.5t-88 20.5t-82.5 30t-70.5 38v-88h-159v88q-32 -21 -71.5 -38t-82.5 -30t-87.5 -20.5t-87.5 -8.5l-31 118q62 2 115 11t100 24h-208v90h353v33h-321v87h801v-87h-321v-33h353zM834 277q24 0 40.5 -18t16.5 -41
v-260h-783v319h726zM724 46v32h-449v-32h449zM724 183h-449v-24h449v24z" />
    <glyph glyph-name="cid3920" unicode="&#x9999;" 
d="M932 528v-90h-209q95 -31 216 -35l-31 -118q-43 1 -88 8.5t-88 20.5t-82.5 30t-70.5 38v-88h-159v88q-32 -21 -71.5 -38t-82.5 -30t-87.5 -20.5t-87.5 -8.5l-31 118q62 2 115 11t100 24h-208v90h353v33h-321v87h801v-87h-321v-33h353zM834 277q24 0 40.5 -18t16.5 -41
v-260h-783v319h726zM724 46v32h-449v-32h449zM724 183h-449v-24h449v24z" />
    <glyph glyph-name="cid1824" unicode="&#x2fbb;" 
d="M151 -59v344h-94v154h89v212h655q22 0 37 -17t15 -37v-158h39q20 0 35 -15t15 -38v-101h-98q2 -5 3 -9.5t1 -9.5v-325h-284v69h109v25h-347v-94h-175zM768 356h-537v-38h537v38zM549 539q19 0 34 -15t15 -37v-48h81v125h-358v-25h228zM673 229h-347v-25h347v25zM326 108
h347v23h-347v-23zM433 465h-112v-26h112v26z" />
    <glyph glyph-name="cid1824" unicode="&#x9aa8;" 
d="M151 -59v344h-94v154h89v212h655q22 0 37 -17t15 -37v-158h39q20 0 35 -15t15 -38v-101h-98q2 -5 3 -9.5t1 -9.5v-325h-284v69h109v25h-347v-94h-175zM768 356h-537v-38h537v38zM549 539q19 0 34 -15t15 -37v-48h81v125h-358v-25h228zM673 229h-347v-25h347v25zM326 108
h347v23h-347v-23zM433 465h-112v-26h112v26z" />
    <glyph glyph-name="cid1754" unicode="&#x2fbc;" 
d="M77 -59v367h791q23 0 38.5 -17t15.5 -39v-311h-288v57h-350v188h382q20 0 34.5 -15t14.5 -38v-118h44v202h-519v-276h-163zM801 523q22 0 37 -14.5t15 -36.5v-142h-707v193h655zM55 545v91h363v20h163v-20h363v-91h-889zM689 414v28h-378v-28h378zM562 76v35h-125v-35
h125z" />
    <glyph glyph-name="cid1754" unicode="&#x9ad8;" 
d="M77 -59v367h791q23 0 38.5 -17t15.5 -39v-311h-288v57h-350v188h382q20 0 34.5 -15t14.5 -38v-118h44v202h-519v-276h-163zM801 523q22 0 37 -14.5t15 -36.5v-142h-707v193h655zM55 545v91h363v20h163v-20h363v-91h-889zM689 414v28h-378v-28h378zM562 76v35h-125v-35
h125z" />
    <glyph glyph-name="cid7660" unicode="&#x2fbd;" 
d="M493 422h-262v-30h262v-92h-262v-34h281v-101h-272l-26 -113h118l-12 79h168l18 -101q6 -35 -8 -59.5t-55 -24.5h-349q-35 0 -50.5 28t-4.5 66l29 125h-48v101h38v378h445v-101h-272v-29h262v-92zM539 73q55 11 100.5 25t84.5 30.5t73 35t66 36.5l117 -81
q-32 -31 -73 -58.5t-87.5 -50.5t-96 -40.5t-98.5 -28.5zM529 533q55 12 99.5 24t82.5 27t72 34t68 44l119 -80q-32 -30 -73 -57.5t-87.5 -51t-96.5 -41.5t-99 -28zM535 310q56 11 100 23.5t81.5 28t71.5 34t71 41.5l117 -79q-33 -28 -74 -55.5t-87 -51.5t-95 -43t-98 -29z
" />
    <glyph glyph-name="cid7660" unicode="&#x9adf;" 
d="M493 422h-262v-30h262v-92h-262v-34h281v-101h-272l-26 -113h118l-12 79h168l18 -101q6 -35 -8 -59.5t-55 -24.5h-349q-35 0 -50.5 28t-4.5 66l29 125h-48v101h38v378h445v-101h-272v-29h262v-92zM539 73q55 11 100.5 25t84.5 30.5t73 35t66 36.5l117 -81
q-32 -31 -73 -58.5t-87.5 -50.5t-96 -40.5t-98.5 -28.5zM529 533q55 12 99.5 24t82.5 27t72 34t68 44l119 -80q-32 -30 -73 -57.5t-87.5 -51t-96.5 -41.5t-99 -28zM535 310q56 11 100 23.5t81.5 28t71.5 34t71 41.5l117 -79q-33 -28 -74 -55.5t-87 -51.5t-95 -43t-98 -29z
" />
    <glyph glyph-name="cid7888" unicode="&#x2fbe;" 
d="M660 -60v108h119v609h155v-717h-274zM221 657v-717h-155v717h155zM487 362v-101h-247v101h53v42h-41v101h41v44h-47v100h236v-100h-48v-44h43v-101h-43v-42h53zM760 362v-101h-247v101h53v42h-43v101h43v44h-48v100h234v-100h-45v-44h41v-101h-41v-42h53z" />
    <glyph glyph-name="cid7888" unicode="&#x9b25;" 
d="M660 -60v108h119v609h155v-717h-274zM221 657v-717h-155v717h155zM487 362v-101h-247v101h53v42h-41v101h41v44h-47v100h236v-100h-48v-44h43v-101h-43v-42h53zM760 362v-101h-247v101h53v42h-43v101h43v44h-48v100h234v-100h-45v-44h41v-101h-41v-42h53z" />
    <glyph glyph-name="cid5019" unicode="&#x2fbf;" 
d="M924 58v-106h-785q-27 0 -45.5 20t-18.5 47v206h163v-26l686 15v-107l-686 -13v-36h686zM770 350v280h156v-386h-790q-27 0 -45 21.5t-18 47.5v317h156v-280h541zM665 362l-109 64l14 -58h-105l-12 49q-25 -13 -50.5 -25.5t-51.5 -23.5l-102 72l46 22t45 22h-79l-15 63
h104l-85 50l86 58l101 -56l-14 56h106l13 -52q20 13 39 25.5t38 26.5l100 -50q-18 -15 -36 -29.5t-37 -28.5h84l16 -63h-97l92 -50zM353 545l12 -49q18 8 38 20zM474 428h79l-38 22zM613 512l41 -23l-12 44zM468 591l36 -20q8 5 16.5 10t16.5 10h-69z" />
    <glyph glyph-name="cid5019" unicode="&#x9b2f;" 
d="M924 58v-106h-785q-27 0 -45.5 20t-18.5 47v206h163v-26l686 15v-107l-686 -13v-36h686zM770 350v280h156v-386h-790q-27 0 -45 21.5t-18 47.5v317h156v-280h541zM665 362l-109 64l14 -58h-105l-12 49q-25 -13 -50.5 -25.5t-51.5 -23.5l-102 72l46 22t45 22h-79l-15 63
h104l-85 50l86 58l101 -56l-14 56h106l13 -52q20 13 39 25.5t38 26.5l100 -50q-18 -15 -36 -29.5t-37 -28.5h84l16 -63h-97l92 -50zM353 545l12 -49q18 8 38 20zM474 428h79l-38 22zM613 512l41 -23l-12 44zM468 591l36 -20q8 5 16.5 10t16.5 10h-69z" />
    <glyph glyph-name="cid4704" unicode="&#x2fc0;" 
d="M77 -59v377h791q23 0 38.5 -17t15.5 -40v-320h-266v82h103v202h-519v-284h-163zM811 532q22 0 37 -14.5t15 -37.5v-141h-727v193h675zM55 557v89h889v-89h-889zM420 -48v117h-150v90h33l-9 41h163l8 -41h69l8 41h163l-9 -41h33v-90h-150v-117h-159zM699 419v35h-398v-35
h398z" />
    <glyph glyph-name="cid4704" unicode="&#x9b32;" 
d="M77 -59v377h791q23 0 38.5 -17t15.5 -40v-320h-266v82h103v202h-519v-284h-163zM811 532q22 0 37 -14.5t15 -37.5v-141h-727v193h675zM55 557v89h889v-89h-889zM420 -48v117h-150v90h33l-9 41h163l8 -41h69l8 41h163l-9 -41h33v-90h-150v-117h-159zM699 419v35h-398v-35
h398z" />
    <glyph glyph-name="cid1862" unicode="&#x2fc1;" 
d="M829 623q28 0 47 -19t19 -45v-341h-331q-6 -19 -15 -35h93v-127h294v-106h-387q-24 0 -43.5 19.5t-19.5 47.5v79q-32 -32 -70.5 -56.5t-81.5 -43.5t-89.5 -33t-92.5 -23l-88 143q40 7 84 17.5t86 26t79.5 38t63.5 53.5h-266v405h221l14 34h168l-15 -34h330zM822 141
l-4 33h87l11 -61q2 -15 -5.5 -27.5t-24.5 -12.5h-184q-20 0 -26.5 12.5t-2.5 27.5l28 87h97l-15 -59h39zM422 372h-144v-49h143q0 4 0.5 8t0.5 9v32zM727 323v49h-142v-32q0 -5 -0.5 -9t-0.5 -8h143zM278 471h144v48h-144v-48zM727 519h-142v-48h142v48z" />
    <glyph glyph-name="cid1862" unicode="&#x9b3c;" 
d="M829 623q28 0 47 -19t19 -45v-341h-331q-6 -19 -15 -35h93v-127h294v-106h-387q-24 0 -43.5 19.5t-19.5 47.5v79q-32 -32 -70.5 -56.5t-81.5 -43.5t-89.5 -33t-92.5 -23l-88 143q40 7 84 17.5t86 26t79.5 38t63.5 53.5h-266v405h221l14 34h168l-15 -34h330zM822 141
l-4 33h87l11 -61q2 -15 -5.5 -27.5t-24.5 -12.5h-184q-20 0 -26.5 12.5t-2.5 27.5l28 87h97l-15 -59h39zM422 372h-144v-49h143q0 4 0.5 8t0.5 9v32zM727 323v49h-142v-32q0 -5 -0.5 -9t-0.5 -8h143zM278 471h144v48h-144v-48zM727 519h-142v-48h142v48z" />
    <glyph glyph-name="cid2656" unicode="&#x2fc5;" 
d="M47 -23q23 46 31.5 99t8.5 95v451h365v36h165v-36h335v-104h-223v-44h166q22 0 38 -17.5t16 -39.5v-185h-700v-61q0 -60 -9 -118.5t-34 -112.5zM949 189v-95l-164 -8v-40h164v-94h-256q-25 0 -46 19.5t-21 47.5v197h159v-35zM602 189v-95h-168v-48h168v-94h-261
q-24 0 -43 19.5t-19 47.5v197h155v-27h168zM249 329h100v47h-100v-47zM249 474h100v44h-100v-44zM809 329v47h-80v-47h80zM500 329h79v47h-79v-47zM500 474h79v44h-79v-44z" />
    <glyph glyph-name="cid2656" unicode="&#x9e7f;" 
d="M47 -23q23 46 31.5 99t8.5 95v451h365v36h165v-36h335v-104h-223v-44h166q22 0 38 -17.5t16 -39.5v-185h-700v-61q0 -60 -9 -118.5t-34 -112.5zM949 189v-95l-164 -8v-40h164v-94h-256q-25 0 -46 19.5t-21 47.5v197h159v-35zM602 189v-95h-168v-48h168v-94h-261
q-24 0 -43 19.5t-19 47.5v197h155v-27h168zM249 329h100v47h-100v-47zM249 474h100v44h-100v-44zM809 329v47h-80v-47h80zM500 329h79v47h-79v-47zM500 474h79v44h-79v-44z" />
    <glyph glyph-name="cid8305" unicode="&#x2fc6;" 
d="M418 273v46q-39 -23 -90 -42l51 -2q-11 -19 -22 -34h396q21 0 33.5 -10t17.5 -24t1.5 -29t-14.5 -26q-36 -41 -104 -74l230 -35l-36 -101l-358 72q-94 -28 -201.5 -46.5t-216.5 -25.5l-61 100q69 4 127 9.5t109 12.5l-73 15l121 54l166 -26q29 8 57 17.5t58 20.5h-342
q-53 -44 -112 -72l-94 84q48 22 85 42.5t68 43.5q-34 -8 -68.5 -14.5t-68.5 -10.5l-33 115q57 8 111 18t104 24l-48 30q-14 -14 -27.5 -24.5t-25.5 -16.5l-106 56q36 17 61 42.5t37 46.5l123 -4q-4 -14 -12 -32l98 -47l-48 -37q62 20 107 42v92h-366v96h366v38h163v-38h366
v-96h-366v-92q54 -26 130 -48l-71 37q37 17 62 42.5t36 46.5l124 -4q-4 -14 -12 -32l97 -47l-81 -62l-66 40q-10 -11 -20.5 -19t-21.5 -15q46 -11 95.5 -20t101.5 -17l-33 -115q-47 6 -94 15.5t-91.5 22.5t-84.5 29t-71 34v-46h-163z" />
    <glyph glyph-name="cid8305" unicode="&#x9ea5;" 
d="M418 273v46q-39 -23 -90 -42l51 -2q-11 -19 -22 -34h396q21 0 33.5 -10t17.5 -24t1.5 -29t-14.5 -26q-36 -41 -104 -74l230 -35l-36 -101l-358 72q-94 -28 -201.5 -46.5t-216.5 -25.5l-61 100q69 4 127 9.5t109 12.5l-73 15l121 54l166 -26q29 8 57 17.5t58 20.5h-342
q-53 -44 -112 -72l-94 84q48 22 85 42.5t68 43.5q-34 -8 -68.5 -14.5t-68.5 -10.5l-33 115q57 8 111 18t104 24l-48 30q-14 -14 -27.5 -24.5t-25.5 -16.5l-106 56q36 17 61 42.5t37 46.5l123 -4q-4 -14 -12 -32l98 -47l-48 -37q62 20 107 42v92h-366v96h366v38h163v-38h366
v-96h-366v-92q54 -26 130 -48l-71 37q37 17 62 42.5t36 46.5l124 -4q-4 -14 -12 -32l97 -47l-81 -62l-66 40q-10 -11 -20.5 -19t-21.5 -15q46 -11 95.5 -20t101.5 -17l-33 -115q-47 6 -94 15.5t-91.5 22.5t-84.5 29t-71 34v-46h-163z" />
    <glyph glyph-name="cid2704" unicode="&#x2fc7;" 
d="M44 -30q15 18 25.5 41.5t17 49t10 51t3.5 46.5v464h374v33h162v-33h319v-104h-693l-1 -367q-1 -79 -9.5 -130.5t-24.5 -77.5zM377 -46v369h-93v99h87v78h149v-78h85v-99h-94v-369h-134zM720 -46v369h-96v99h87v78h152v-78h84v-99h-95v-369h-132zM530 -46
q-5 81 -5.5 165.5t-0.5 178.5l66 1q1 -33 2.5 -76.5t3 -88.5t4 -89t5.5 -78zM625 -33q3 34 5 78t3.5 89t3 88.5t2.5 76.5l66 -1q0 -94 -0.5 -178.5t-5.5 -165.5zM284 -33q2 34 3.5 78t3 89t2 88.5t1.5 76.5l68 -1q0 -94 -1 -178.5t-6 -165.5zM876 -46q-4 81 -5 165.5
t-1 178.5l65 1q0 -33 1 -76.5t2 -88.5t3 -89t5 -78z" />
    <glyph glyph-name="cid2704" unicode="&#x9ebb;" 
d="M44 -30q15 18 25.5 41.5t17 49t10 51t3.5 46.5v464h374v33h162v-33h319v-104h-693l-1 -367q-1 -79 -9.5 -130.5t-24.5 -77.5zM377 -46v369h-93v99h87v78h149v-78h85v-99h-94v-369h-134zM720 -46v369h-96v99h87v78h152v-78h84v-99h-95v-369h-132zM530 -46
q-5 81 -5.5 165.5t-0.5 178.5l66 1q1 -33 2.5 -76.5t3 -88.5t4 -89t5.5 -78zM625 -33q3 34 5 78t3.5 89t3 88.5t2.5 76.5l66 -1q0 -94 -0.5 -178.5t-5.5 -165.5zM284 -33q2 34 3.5 78t3 89t2 88.5t1.5 76.5l68 -1q0 -94 -1 -178.5t-6 -165.5zM876 -46q-4 81 -5 165.5
t-1 178.5l65 1q0 -33 1 -76.5t2 -88.5t3 -89t5 -78z" />
    <glyph glyph-name="cid3465" unicode="&#x2fc9;" 
d="M932 538v-79h-244q53 -20 115 -32t136 -14l-31 -105q-43 1 -88 8t-88 18.5t-82.5 27.5t-70.5 35v-25h-159v25q-32 -19 -71.5 -35t-82.5 -27.5t-87.5 -18.5t-87.5 -8l-31 105q74 2 135.5 14t115.5 32h-244v79h353v27h-321v80h801v-80h-321v-27h353zM569 358
q21 -17 52.5 -33.5t77.5 -29.5t109 -22.5t147 -12.5l-50 -118q-15 1 -29.5 2t-28.5 3l-7 -61h-166l12 94q-60 17 -105.5 40t-80.5 49q-36 -26 -82 -49t-106 -40l13 -94h-166l-7 61q-14 -2 -28.5 -3t-29.5 -2l-50 118q84 3 147 12.5t109 22.5t77.5 29.5t52.5 33.5h139z
M585 198v-255h-229v75h66v180h163zM730 -52q-16 9 -27 23.5t-17.5 32t-9 34.5t-2.5 31h170q0 -12 4 -26.5t12.5 -29.5t21.5 -28t31 -20zM86 -35q18 7 31 20t21.5 28t12.5 29.5t4 26.5h170q0 -14 -2.5 -31t-9 -34.5t-17.5 -32t-27 -23.5z" />
    <glyph glyph-name="cid3465" unicode="&#x9ecd;" 
d="M932 538v-79h-244q53 -20 115 -32t136 -14l-31 -105q-43 1 -88 8t-88 18.5t-82.5 27.5t-70.5 35v-25h-159v25q-32 -19 -71.5 -35t-82.5 -27.5t-87.5 -18.5t-87.5 -8l-31 105q74 2 135.5 14t115.5 32h-244v79h353v27h-321v80h801v-80h-321v-27h353zM569 358
q21 -17 52.5 -33.5t77.5 -29.5t109 -22.5t147 -12.5l-50 -118q-15 1 -29.5 2t-28.5 3l-7 -61h-166l12 94q-60 17 -105.5 40t-80.5 49q-36 -26 -82 -49t-106 -40l13 -94h-166l-7 61q-14 -2 -28.5 -3t-29.5 -2l-50 118q84 3 147 12.5t109 22.5t77.5 29.5t52.5 33.5h139z
M585 198v-255h-229v75h66v180h163zM730 -52q-16 9 -27 23.5t-17.5 32t-9 34.5t-2.5 31h170q0 -12 4 -26.5t12.5 -29.5t21.5 -28t31 -20zM86 -35q18 7 31 20t21.5 28t12.5 29.5t4 26.5h170q0 -14 -2.5 -31t-9 -34.5t-17.5 -32t-27 -23.5z" />
    <glyph glyph-name="cid1937" unicode="&#x2fca;" 
d="M935 167v-93h-871v93h354v32h-336v91h336v31h-330v324h768q23 0 39 -16.5t16 -39.5v-268h-330v-31h336v-91h-336v-32h354zM756 415v141h-175v-141h175zM243 415h175v141h-175v-141zM298 -56v104h169v-104h-169zM532 -56v104h169v-104h-169zM67 -56v104h165v-104h-165z
M767 -56v104h165v-104h-165zM611 431v105h113v-105h-113zM275 431v105h113v-105h-113z" />
    <glyph glyph-name="cid1937" unicode="&#x9ed1;" 
d="M935 167v-93h-871v93h354v32h-336v91h336v31h-330v324h768q23 0 39 -16.5t16 -39.5v-268h-330v-31h336v-91h-336v-32h354zM756 415v141h-175v-141h175zM243 415h175v141h-175v-141zM298 -56v104h169v-104h-169zM532 -56v104h169v-104h-169zM67 -56v104h165v-104h-165z
M767 -56v104h165v-104h-165zM611 431v105h113v-105h-113zM275 431v105h113v-105h-113z" />
    <glyph glyph-name="cid6741" unicode="&#x2fcb;" 
d="M675 -57v80h110v222h-204v-302h-163v302h-204v-302h-155v391h124q-14 35 -25 84l148 5q4 -23 9.5 -44.5t12.5 -43.5h90v114h-369v92h50q-9 19 -15 41.5t-11 47.5l142 9q3 -25 9.5 -49t14.5 -49h59v115h161v-115h81v115h161v-115h59q8 25 14 49t10 49l142 -9
q-5 -25 -11.5 -47.5t-14.5 -41.5h50v-92h-369v-113h90q7 22 12 43.5t10 43.5l148 -5q-5 -23 -11 -43t-14 -38h48q32 0 54 -23t22 -56v-315h-265zM638 39q-5 13 -10 31.5t-9.5 39t-7.5 40.5t-4 37l115 16q6 -30 17 -63t26 -61zM234 79q15 28 26 61t17 63l115 -16
q-1 -17 -4 -37t-7.5 -40.5t-9.5 -39t-10 -31.5z" />
    <glyph glyph-name="cid6741" unicode="&#x9ef9;" 
d="M675 -57v80h110v222h-204v-302h-163v302h-204v-302h-155v391h124q-14 35 -25 84l148 5q4 -23 9.5 -44.5t12.5 -43.5h90v114h-369v92h50q-9 19 -15 41.5t-11 47.5l142 9q3 -25 9.5 -49t14.5 -49h59v115h161v-115h81v115h161v-115h59q8 25 14 49t10 49l142 -9
q-5 -25 -11.5 -47.5t-14.5 -41.5h50v-92h-369v-113h90q7 22 12 43.5t10 43.5l148 -5q-5 -23 -11 -43t-14 -38h48q32 0 54 -23t22 -56v-315h-265zM638 39q-5 13 -10 31.5t-9.5 39t-7.5 40.5t-4 37l115 16q6 -30 17 -63t26 -61zM234 79q15 28 26 61t17 63l115 -16
q-1 -17 -4 -37t-7.5 -40.5t-9.5 -39t-10 -31.5z" />
    <glyph glyph-name="cid1509" unicode="&#x2fcd;" 
d="M693 651q23 0 39 -18t16 -40v-301h-479v359h424zM302 -58v121h-46q-24 -77 -61 -121l-141 40q15 16 28.5 37t24.5 44h-44v87h239v24h-232v406h164v-308h170q13 0 25 -6t21.5 -15.5t15.5 -22t6 -25.5v-261h-170zM546 -58v261q0 13 5 25.5t14 22t21 15.5t26 6h170v308h163
v-406h-233v-32h170q26 0 44.5 -18.5t18.5 -47.5v-134h-163v116h-70v-116h-166zM597 564h-177v-23h177v23zM420 378h177v21h-177v-21zM420 462h177v18h-177v-18z" />
    <glyph glyph-name="cid1509" unicode="&#x9f0e;" 
d="M693 651q23 0 39 -18t16 -40v-301h-479v359h424zM302 -58v121h-46q-24 -77 -61 -121l-141 40q15 16 28.5 37t24.5 44h-44v87h239v24h-232v406h164v-308h170q13 0 25 -6t21.5 -15.5t15.5 -22t6 -25.5v-261h-170zM546 -58v261q0 13 5 25.5t14 22t21 15.5t26 6h170v308h163
v-406h-233v-32h170q26 0 44.5 -18.5t18.5 -47.5v-134h-163v116h-70v-116h-166zM597 564h-177v-23h177v23zM420 378h177v21h-177v-21zM420 462h177v18h-177v-18z" />
    <glyph glyph-name="cid1821" unicode="&#x2fce;" 
d="M907 -60q-45 14 -86 36t-80 50q-37 -27 -78 -49t-88 -37l-79 137q33 10 64.5 23t60.5 30q-26 26 -49.5 54t-45.5 57l75 51h-93v116h138v72h-138v116h138v63h175v-63h159v-116h-159v-72h77q21 0 36 -9t22.5 -23.5t7.5 -33t-9 -37.5q-21 -46 -47.5 -90.5t-59.5 -85.5
q31 -18 64 -32t70 -24zM462 505v-106h-427v106h132v26h-150v106h150v22h163v-22h150v-106h-150v-26h132zM403 376q21 0 37.5 -15.5t16.5 -38.5v-188h-416v242h362zM480 77v-116l-463 -16v117l35 1l-8 52h165l7 -47l66 2l7 45h164l-7 -39zM654 292q19 -21 38 -40t39 -36
q35 35 60 76h-137zM307 236v38h-117v-38h117z" />
    <glyph glyph-name="cid1821" unicode="&#x9f13;" 
d="M907 -60q-45 14 -86 36t-80 50q-37 -27 -78 -49t-88 -37l-79 137q33 10 64.5 23t60.5 30q-26 26 -49.5 54t-45.5 57l75 51h-93v116h138v72h-138v116h138v63h175v-63h159v-116h-159v-72h77q21 0 36 -9t22.5 -23.5t7.5 -33t-9 -37.5q-21 -46 -47.5 -90.5t-59.5 -85.5
q31 -18 64 -32t70 -24zM462 505v-106h-427v106h132v26h-150v106h150v22h163v-22h150v-106h-150v-26h132zM403 376q21 0 37.5 -15.5t16.5 -38.5v-188h-416v242h362zM480 77v-116l-463 -16v117l35 1l-8 52h165l7 -47l66 2l7 45h164l-7 -39zM654 292q19 -21 38 -40t39 -36
q35 35 60 76h-137zM307 236v38h-117v-38h117z" />
    <glyph glyph-name="cid3466" unicode="&#x2fcf;" 
d="M522 524h206v32h-206v85h308q28 0 47 -20t19 -47v-249h-828v316h372v-85h-207v-32h207v-80h-207v-30h495v30h-206v80zM679 31v-89h-211q-50 0 -67 21.5t-17 56.5v287h169v-276h126zM362 31v-89h-214q-48 0 -64 21.5t-16 56.5v287h165v-276h129zM931 31v-89h-144
q-48 0 -64 21.5t-16 56.5v287h166v-276h58zM574 167h108v-93h-108v93zM254 167h108v-93h-108v93zM574 295h108v-89h-108v89zM254 295h108v-89h-108v89z" />
    <glyph glyph-name="cid3466" unicode="&#x9f20;" 
d="M522 524h206v32h-206v85h308q28 0 47 -20t19 -47v-249h-828v316h372v-85h-207v-32h207v-80h-207v-30h495v30h-206v80zM679 31v-89h-211q-50 0 -67 21.5t-17 56.5v287h169v-276h126zM362 31v-89h-214q-48 0 -64 21.5t-16 56.5v287h165v-276h129zM931 31v-89h-144
q-48 0 -64 21.5t-16 56.5v287h166v-276h58zM574 167h108v-93h-108v93zM254 167h108v-93h-108v93zM574 295h108v-89h-108v89zM254 295h108v-89h-108v89z" />
    <glyph glyph-name="cid1072" unicode="&#x2fd0;" 
d="M823 633q23 0 39.5 -16.5t16.5 -40.5v-207h-759v264h247l9 24h163l-8 -24h292zM856 352q23 0 39 -18t16 -41v-153h-823v212h768zM939 123v-65h-134v-106h-167v106h-276q-15 -45 -38.5 -70.5t-60.5 -47.5l-167 52q31 15 51 31.5t34 34.5h-121v65h879zM713 423v19h-427v-19
h427zM286 492h427v18h-427v-18zM713 576h-427v-17h427v17zM745 199v23h-164v-23h164zM254 199h164v23h-164v-23zM254 275h164v18h-164v-18zM745 293h-164v-18h164v18z" />
    <glyph glyph-name="cid1072" unicode="&#x9f3b;" 
d="M823 633q23 0 39.5 -16.5t16.5 -40.5v-207h-759v264h247l9 24h163l-8 -24h292zM856 352q23 0 39 -18t16 -41v-153h-823v212h768zM939 123v-65h-134v-106h-167v106h-276q-15 -45 -38.5 -70.5t-60.5 -47.5l-167 52q31 15 51 31.5t34 34.5h-121v65h879zM713 423v19h-427v-19
h427zM286 492h427v18h-427v-18zM713 576h-427v-17h427v17zM745 199v23h-164v-23h164zM254 199h164v23h-164v-23zM254 275h164v18h-164v-18zM745 293h-164v-18h164v18z" />
    <glyph glyph-name="cid8247" unicode="&#x2fd3;" 
d="M943 539v-204h-267v-20h271v-73h-271v-19h271v-71h-271v-23h271v-70h-271v-27h271v-87h-368q-27 0 -44.5 21t-17.5 48v409h266v32h-212q-24 0 -39 16t-15 40v145h159v-21h271v-74h-271v-22h267zM63 -55v423h362q23 0 38 -18t15 -41v-364h-201v76h50v22h-111v-98h-153z
M488 483v-96h-436v96h33l-9 38h156l9 -38h57l10 38h157l-11 -38h34zM480 635v-96h-421v96h129v21h166v-21h126zM327 274h-111v-36h111v36zM216 126h111v33h-111v-33z" />
    <glyph glyph-name="cid8247" unicode="&#x9f8d;" 
d="M943 539v-204h-267v-20h271v-73h-271v-19h271v-71h-271v-23h271v-70h-271v-27h271v-87h-368q-27 0 -44.5 21t-17.5 48v409h266v32h-212q-24 0 -39 16t-15 40v145h159v-21h271v-74h-271v-22h267zM63 -55v423h362q23 0 38 -18t15 -41v-364h-201v76h50v22h-111v-98h-153z
M488 483v-96h-436v96h33l-9 38h156l9 -38h57l10 38h157l-11 -38h34zM480 635v-96h-421v96h129v21h166v-21h126zM327 274h-111v-36h111v36zM216 126h111v33h-111v-33z" />
    <glyph glyph-name="cid4851" unicode="&#x2fd5;" 
d="M528 -46v93h-57v-93h-153v93h-62v-103h-164v317h751q26 0 45 -20t19 -47v-250h-202v78h38v25h-62v-93h-153zM568 653q21 -15 52 -28t77 -23.5t108 -17.5t145 -11l-49 -102q-55 3 -102.5 8.5t-89.5 13.5v-28h-419v29q-42 -8 -89.5 -14t-102.5 -9l-49 102q83 4 145 11
t108 17.5t77 23.5t52 28h137zM294 445q22 0 35 -15.5t13 -38.5v-112h-254v166h206zM863 445q20 0 34 -15.5t14 -38.5v-112h-254v166h206zM577 445q22 0 35 -15.5t13 -38.5v-112h-251v166h203zM500 572q-37 -24 -82 -42h163q-47 18 -81 42zM256 132h62v44h-62v-44zM743 176
h-62v-44h62v44zM471 132h57v44h-57v-44zM519 350v26h-39v-26h39zM801 350v26h-36v-26h36zM234 350v26h-36v-26h36z" />
    <glyph glyph-name="cid4851" unicode="&#x9fa0;" 
d="M528 -46v93h-57v-93h-153v93h-62v-103h-164v317h751q26 0 45 -20t19 -47v-250h-202v78h38v25h-62v-93h-153zM568 653q21 -15 52 -28t77 -23.5t108 -17.5t145 -11l-49 -102q-55 3 -102.5 8.5t-89.5 13.5v-28h-419v29q-42 -8 -89.5 -14t-102.5 -9l-49 102q83 4 145 11
t108 17.5t77 23.5t52 28h137zM294 445q22 0 35 -15.5t13 -38.5v-112h-254v166h206zM863 445q20 0 34 -15.5t14 -38.5v-112h-254v166h206zM577 445q22 0 35 -15.5t13 -38.5v-112h-251v166h203zM500 572q-37 -24 -82 -42h163q-47 18 -81 42zM256 132h62v44h-62v-44zM743 176
h-62v-44h62v44zM471 132h57v44h-57v-44zM519 350v26h-39v-26h39zM801 350v26h-36v-26h36zM234 350v26h-36v-26h36z" />
    <glyph glyph-name="cid96" unicode="&#x3000;" 
 />
    <glyph glyph-name="cid97" unicode="&#x3001;" 
d="M211 -2h-146l-15 153h126z" />
    <glyph glyph-name="cid98" unicode="&#x3002;" 
d="M255 -2h-158q-20 0 -33.5 13t-13.5 33v107h156q20 0 34.5 -14.5t14.5 -34.5v-104zM120 44h65v60h-65v-60z" />
    <glyph glyph-name="cid104" unicode="&#x3005;" 
d="M65 386q66 57 109 123t69 142l132 -29q-5 -24 -14 -51.5t-22 -56.5h507q24 0 39.5 -14.5t23 -35t5 -42t-14.5 -36.5l-310 -326l119 -112h-203l-306 298h194l85 -81l224 236h-422q-23 -36 -48.5 -68.5t-52.5 -55.5z" />
    <glyph glyph-name="cid7703" unicode="&#x3007;" 
d="M511 700q82 0 154 -31t126 -85t85 -126.5t31 -154.5q0 -83 -31 -155t-84.5 -125.5t-126 -84.5t-154.5 -31q-83 0 -155 31t-125.5 84.5t-84.5 125.5t-31 155q0 82 31 154.5t84.5 126.5t125.5 85t155 31zM510 612q-65 0 -122 -24.5t-99 -66.5t-66.5 -99t-24.5 -121
q0 -65 24.5 -122t67 -99t99 -66.5t121.5 -24.5t121.5 24.5t98.5 67t66.5 99t24.5 121.5q0 64 -24.5 121t-66.5 99t-99 66.5t-121 24.5z" />
    <glyph glyph-name="cid115" unicode="&#x3008;" 
d="M909 607h91l-155 -305l155 -304h-91l-155 304z" />
    <glyph glyph-name="cid116" unicode="&#x3009;" 
d="M131 -2h-91l155 305l-155 304h91l155 -304z" />
    <glyph glyph-name="cid117" unicode="&#x300a;" 
d="M752 607h72l-155 -305l155 -304h-72l-154 304zM889 607h71l-154 -305l154 -304h-71l-155 304z" />
    <glyph glyph-name="cid118" unicode="&#x300b;" 
d="M402 302l-154 -304h-72l155 304l-155 305h72zM266 302l-155 -304h-71l154 304l-154 305h71z" />
    <glyph glyph-name="cid119" unicode="&#x300c;" 
d="M753 155v457h207v-98h-70v-359h-137z" />
    <glyph glyph-name="cid120" unicode="&#x300d;" 
d="M248 449v-457h-208v98h70v359h138z" />
    <glyph glyph-name="cid121" unicode="&#x300e;" 
d="M722 125v487h238v-128h-70v-359h-168zM836 181v349h81v36h-136v-385h55z" />
    <glyph glyph-name="cid122" unicode="&#x300f;" 
d="M278 479v-487h-238v128h70v359h168zM164 423v-349h-81v-36h136v385h-55z" />
    <glyph glyph-name="cid125" unicode="&#x3010;" 
d="M811 23v558h149q-32 -59 -50 -129.5t-18 -149.5q0 -78 18 -149t50 -130h-149z" />
    <glyph glyph-name="cid126" unicode="&#x3011;" 
d="M40 23q32 59 50 130t18 149q0 79 -18 149.5t-50 129.5h149v-558h-149z" />
    <glyph glyph-name="cid123" unicode="&#x3016;" 
d="M731 23v558h229q-32 -59 -50 -129.5t-18 -149.5q0 -78 18 -149t50 -130h-229zM875 71q-20 54 -30.5 112.5t-10.5 118.5t10.5 118.5t30.5 112.5h-83v-462h83z" />
    <glyph glyph-name="cid124" unicode="&#x3017;" 
d="M40 23q32 59 50 130t18 149q0 79 -18 149.5t-50 129.5h229v-558h-229zM209 71v462h-84q20 -54 30 -112.5t10 -118.5t-10 -118.5t-30 -112.5h84z" />
    <glyph glyph-name="cid401" unicode="&#x306e;" 
d="M75 626h800q43 0 69 -26.5t18 -68.5l-112 -527h-161l110 513h-218v-513h-506v622zM238 112h180v405h-180v-405z" />
    <glyph glyph-name="cid1504" unicode="&#x4e01;" 
d="M955 619v-115h-366v-555h-324v114h160v441h-381v115h911z" />
    <glyph glyph-name="cid3070" unicode="&#x4e03;" 
d="M936 488v-112l-429 -48v-264h425v-117h-501q-18 0 -35 7.5t-29.5 20.5t-20 30.5t-7.5 36.5v267l-276 -31v114l276 30v235h168v-216z" />
    <glyph glyph-name="cid3747" unicode="&#x4e07;" 
d="M960 628v-116h-587v-128h469q33 0 53 -20.5t20 -54.5v-365h-304v115h139v210h-386q-9 -55 -26.5 -105.5t-40 -92.5t-49 -75t-54.5 -53l-155 74q35 28 66.5 65t55 82.5t37.5 98t14 111.5v138h-153v116h901z" />
    <glyph glyph-name="cid4458" unicode="&#x4e08;" 
d="M956 548v-114h-156q-17 -71 -62.5 -133t-108.5 -116q45 -19 90.5 -35.5t88.5 -29.5t82 -21t72 -9l-71 -147q-94 6 -201.5 42.5t-213.5 90.5q-88 -51 -173 -85.5t-149 -49.5l-116 121q64 14 135 41.5t141 63.5q-70 45 -126.5 89t-90.5 82l132 66q10 -11 32 -26.5t53 -34.5
t69.5 -40t82.5 -43q58 42 102 86t65 88h-586v114h604v108h159v-108h146z" />
    <glyph glyph-name="cid3288" unicode="&#x4e09;" 
d="M836 370v-113h-673v113h673zM911 628v-113h-823v113h823zM946 74v-113h-893v113h893z" />
    <glyph glyph-name="cid3336" unicode="&#x4e0a;" 
d="M946 70v-114h-893v114h336v582h167v-184h358v-118h-358v-280h390z" />
    <glyph glyph-name="cid3887" unicode="&#x4e0b;" 
d="M373 -50v565h-310v116h873v-116h-393v-565h-170zM749 84q-17 27 -33 68t-30 87t-25 91.5t-16 82.5l147 10q6 -27 18.5 -63t29 -73.5t35.5 -73.5t37 -63z" />
    <glyph glyph-name="cid4696" unicode="&#x4e0c;" 
d="M946 631v-116h-141v-563h-166v563h-257v-153q0 -66 -13 -130.5t-33.5 -120t-47 -99.5t-53.5 -69l-166 61q38 41 66 88t46 95t27 94.5t9 85.5v148h-164v116h893z" />
    <glyph glyph-name="cid1154" unicode="&#x4e0d;" 
d="M413 -56v356q-54 -64 -121.5 -120.5t-148.5 -94.5l-96 132q57 25 107.5 61.5t92.5 77t75.5 82t57.5 77.5h-326v116h896v-116h-400q-13 -29 -30 -59.5t-38 -62.5h104v-449h-173zM823 86q-26 15 -57.5 50.5t-60.5 78.5t-52.5 86.5t-33.5 74.5l126 57q14 -25 38.5 -59
t53 -68t58.5 -63.5t57 -46.5z" />
    <glyph glyph-name="cid4304" unicode="&#x4e0e;" 
d="M292 656v-67h644v-113h-644v-93h562q31 0 52 -23t21 -53v-362h-317v105h154v221h-637v385h165zM63 208h644v-112h-644v112z" />
    <glyph glyph-name="cid4698" unicode="&#x4e10;" 
d="M253 471v-192h168v241h-367v116h891v-116h-361v-54h342v-114h-342v-73h267q32 0 53 -21.5t21 -53.5v-255h-377v111h214v108h-675v303h166z" />
    <glyph glyph-name="cid1304" unicode="&#x4e11;" 
d="M86 636h692q32 0 52 -20t20 -55v-491h105v-115h-911v115h162l29 183h-139v116h157l23 151h-190v116zM374 70h310v183h-282zM684 520h-240l-23 -151h263v151z" />
    <glyph glyph-name="cid4613" unicode="&#x4e13;" 
d="M441 137l64 -54l116 93h-437q-17 0 -29.5 8t-19.5 20.5t-7 27.5t8 30l42 73h-113v112h178l34 60h-201v110h265l24 41h168l-23 -41h413v-110h-474l-34 -60h519v-112h-581l-29 -53h482q29 0 46.5 -12t22.5 -29.5t-3 -37t-30 -35.5l-232 -172l60 -51h-208l-229 192h208z" />
    <glyph glyph-name="cid3151" unicode="&#x4e14;" 
d="M949 73v-115h-899v115h80v569h661q32 0 55 -23t23 -56v-490h80zM294 263h411v75h-411v-75zM705 529h-411v-73h411v73zM294 73h411v72h-411v-72z" />
    <glyph glyph-name="cid4701" unicode="&#x4e15;" 
d="M416 105v270q-60 -60 -129.5 -112.5t-142.5 -86.5l-98 126q45 19 89.5 44.5t86 54.5t78 61t66.5 64h-309v116h896v-116h-416q-13 -21 -28.5 -42t-32.5 -42h103v-337h-163zM953 73v-115h-896v115h896zM834 166q-26 15 -56 43.5t-58.5 63t-53 71.5t-37.5 69l119 57
q15 -24 38.5 -51.5t51.5 -53.5t57.5 -48t56.5 -37z" />
    <glyph glyph-name="cid3415" unicode="&#x4e16;" 
d="M951 544v-114h-111v-257h-389q-27 0 -47 19t-20 46v192h-101v-358h659v-114h-760q-28 0 -46.5 19.5t-18.5 47.5v405h-69v114h69v86h166v-86h101v110h165v-110h124v110h167v-110h111zM673 286v144h-124v-144h124z" />
    <glyph glyph-name="cid3181" unicode="&#x4e18;" 
d="M951 73v-115h-903v115h76v569h781v-113h-614v-118h641v-115h-152v-223h171zM291 73h325v223h-325v-223z" />
    <glyph glyph-name="cid1124" unicode="&#x4e19;" 
d="M948 645v-115h-374v-64h277q34 0 56.5 -24.5t22.5 -57.5v-435h-280v102h116v305h-196q-2 -10 -3.5 -19t-3.5 -19l188 -131l-97 -117l-138 125q-30 -51 -76 -88t-109 -55l-83 128q62 17 106.5 62t61.5 114h-183v-407h-164v517h356v64h-374v115h897z" />
    <glyph glyph-name="cid4156" unicode="&#x4e1a;" 
d="M948 72v-114h-897v114h241v585h168v-585h79v585h168v-585h241zM948 565q-9 -115 -25 -218.5t-44 -191.5l-125 27q18 97 31.5 196t19.5 203zM194 581q6 -104 19.5 -203t31.5 -196l-125 -27q-28 88 -44 191.5t-25 218.5z" />
    <glyph glyph-name="cid1367" unicode="&#x4e1b;" 
d="M757 652q2 -51 0 -97t-8 -88q22 -78 76.5 -138.5t127.5 -104.5l-121 -116q-87 67 -144 163q-53 -101 -144 -168l-119 116q55 33 92.5 76t60 96.5t31.5 118t8 142.5h140zM368 652q3 -93 -6 -172l162 -149l-123 -92l-73 90q-49 -136 -161 -221l-121 116q55 34 90.5 76.5
t56 95.5t28 116.5t6.5 139.5h141zM947 72v-114h-898v114h898z" />
    <glyph glyph-name="cid1514" unicode="&#x4e1c;" 
d="M939 594v-116h-592l-63 -147h145v101h167v-101h319v-113h-319v-274h-247v115h80v159h-289q-15 0 -26.5 8t-18.5 20.5t-7.5 27.5t5.5 29l77 175h-111v116h163l28 63h174l-27 -63h542zM34 75q56 11 114 39.5t111 73.5l80 -79q-12 -22 -35 -46.5t-52 -47t-63.5 -41.5
t-70.5 -30zM881 -56q-36 11 -70.5 30t-64 41.5t-52 47t-34.5 46.5l80 79q52 -45 110 -73.5t115 -39.5z" />
    <glyph glyph-name="cid3508" unicode="&#x4e1d;" 
d="M575 106q-17 0 -26.5 9.5t-13.5 22.5t-2.5 26t7.5 20l101 149h-115q-11 0 -20 7t-14 18t-5.5 23t5.5 23l129 252h157l-116 -216h51l57 83h169l-203 -305h183v-112h-344zM148 106q-17 0 -27 9.5t-14.5 22.5t-3 26t9.5 20l99 149h-112q-12 0 -20.5 7t-13.5 18t-5.5 23
t4.5 23l129 252h157l-120 -216h52l56 83h174l-205 -305h183v-112h-343zM950 69v-115h-901v115h901z" />
    <glyph glyph-name="cid4703" unicode="&#x4e1e;" 
d="M932 415q-21 -10 -39 -17.5t-35.5 -15.5t-35.5 -17.5t-39 -21.5q17 -24 34 -44t36.5 -37t43 -31.5t53.5 -27.5l-132 -106q-47 45 -88.5 98t-72.5 129q-13 23 -5.5 46t27.5 37q43 27 85 48t81 41zM63 465h248q19 0 32 -7.5t19.5 -20t7.5 -29t-5 -33.5q-25 -68 -76 -140.5
t-126 -132.5l-114 104q50 26 94.5 69.5t75.5 89.5h-156v100zM84 543v104h711q21 0 34.5 -13t17.5 -30.5t-3 -36t-26 -29.5l-232 -125v-317h-256v95h94v276l147 76h-487zM950 69v-115h-901v115h901z" />
    <glyph glyph-name="cid1513" unicode="&#x4e22;" 
d="M874 468v-109h-293v-72h367v-109h-618l-53 -117h479l-28 68h163l35 -90q6 -14 5.5 -29.5t-7.5 -28.5t-20.5 -21.5t-32.5 -8.5h-732q-17 0 -29 8.5t-18 21.5t-6 28.5t6 29.5l64 139h-105v109h367v72h-293v109h293v69h-338v110h839v-110h-338v-69h293z" />
    <glyph glyph-name="cid2566" unicode="&#x4e24;" 
d="M948 632v-115h-242v-59h163q32 0 50 -19.5t18 -52.5v-441h-277v85h116v75l-92 -49l-36 85q-14 -33 -32 -58t-41 -39l-130 68q21 13 39.5 37t34 54.5t27 67.5t17.5 76h-132q-2 -17 -4.5 -34.5t-6.5 -34.5l92 -60l-83 -94l-40 36q-15 -39 -34.5 -69.5t-44.5 -46.5l-87 46
v-145h-161v513h240v59h-251v115h897zM776 162v185h-76q-2 -14 -4 -27.5t-4 -27.5zM223 347v-195q26 35 44.5 86t27.5 109h-72zM437 458h133v59h-133v-59z" />
    <glyph glyph-name="cid4088" unicode="&#x4e25;" 
d="M39 -30q15 16 25.5 40t16.5 50.5t8.5 52t2.5 46.5v184h219v190h-225v111h874v-111h-227v-190h227v-109h-704v-79q0 -35 -2.5 -67t-7 -60t-10.5 -49.5t-13 -33.5zM105 373l-17 131h161l18 -131h-162zM779 373l18 131h160l-18 -131h-160zM475 343h95v190h-95v-190z" />
    <glyph glyph-name="cid3294" unicode="&#x4e27;" 
d="M919 624v-114h-343v-137h363v-116h-328q45 -55 115 -98l35 65h151l-62 -118q23 -7 48 -12t51 -7l-64 -146q-72 6 -140 35.5t-127 73.5t-107 98t-80 109h-129v-196h137v-117h-219q-36 0 -59.5 23.5t-23.5 61.5v228h-87v116h363v137h-342v114h342v34h163v-34h343zM140 392
l-27 100h162l25 -100h-160zM688 392l27 100h161l-28 -100h-160z" />
    <glyph glyph-name="cid1777" unicode="&#x4e2a;" 
d="M420 -56v453h163v-453h-163zM569 657q25 -32 63 -62t87.5 -56.5t108.5 -47t125 -33.5l-49 -157q-62 11 -122 33t-112.5 51.5t-96 66t-73.5 76.5q-30 -40 -73.5 -76.5t-96 -66t-112.5 -51.5t-122 -33l-49 157q66 13 125 33.5t108.5 47t87.5 56.5t63 62h138z" />
    <glyph glyph-name="cid4071" unicode="&#x4e2b;" 
d="M567 493q32 3 72.5 20t81 40t76 50.5t57.5 51.5l83 -108q-22 -28 -60 -54t-82 -47.5t-89.5 -37t-82.5 -23.5zM376 385q-38 8 -83 23.5t-89 37t-82 47.5t-60 54l83 108q22 -24 57.5 -51.5t76 -50.5t81 -40t72.5 -20zM418 -56v416h163v-416h-163z" />
    <glyph glyph-name="cid5788" unicode="&#x4e2c;" 
d="M468 520v-114h-207v114h207zM261 168l207 63v-123l-207 -78v138zM572 -57v710h166v-710h-166z" />
    <glyph glyph-name="cid4559" unicode="&#x4e2d;" 
d="M855 518q31 0 51 -21.5t20 -51.5v-352h-345v-152h-163v152h-345v425h345v135h163v-135h274zM764 209v195h-183v-195h183zM235 209h183v195h-183v-195z" />
    <glyph glyph-name="cid1662" unicode="&#x4e30;" 
d="M950 153v-118h-366v-94h-163v94h-367l-4 118h371v99h-302v115h302v97h-339v112h339v77h163v-77h339v-112h-339v-97h296v-115h-296v-99h366z" />
    <glyph glyph-name="cid1329" unicode="&#x4e32;" 
d="M883 285q20 0 35 -14.5t15 -39.5v-223h-352v-67h-163v67h-352v277h352v43h-329v271h329v54h163v-54h279q21 0 35.5 -16t14.5 -39v-216h-329v-43h302zM230 114h188v66h-188v-66zM769 114v66h-188v-66h188zM254 434h164v60h-164v-60zM745 434v60h-164v-60h164z" />
    <glyph glyph-name="cid2594" unicode="&#x4e34;" 
d="M895 337q20 0 35 -14.5t15 -37.5v-338h-515v390h465zM234 -59v706h157v-706h-157zM403 419q12 18 26 48.5t26.5 64t22 66t12.5 55.5l132 -14l-3 -41h329v-111h-98l29 -116h-157l-29 116h-95q-11 -40 -24.5 -74t-29.5 -51zM51 -15v619h145v-619h-145zM794 61v161h-43v-161
h43zM584 61h41v161h-41v-161z" />
    <glyph glyph-name="cid3737" unicode="&#x4e38;" 
d="M47 78q81 37 135 132l-102 30v127l149 -40q15 55 21 120h-175v117h177v95h166v-95h355q14 0 27 -6.5t22.5 -17t15.5 -24t6 -28.5v-425h108v-117h-188q-18 0 -33.5 7t-27 18.5t-18 27t-6.5 33.5v415h-263q-2 -43 -7.5 -84.5t-14.5 -79.5l132 -35v-136l-173 49
q-35 -80 -86.5 -136t-116.5 -79z" />
    <glyph glyph-name="cid1413" unicode="&#x4e39;" 
d="M83 -20q27 35 45 90t25 127h-101v114h105v320h633q29 0 51 -21t22 -53v-246h84v-114h-84v-250h-291v115h125v135h-382q-5 -81 -19.5 -147t-42.5 -108zM697 515h-380v-204h380v204zM427 345l-18 141h163l18 -141h-163z" />
    <glyph glyph-name="cid3769" unicode="&#x4e3a;" 
d="M88 488h256q12 76 12 165h167q0 -43 -2.5 -84t-7.5 -81h357q33 0 51.5 -20.5t18.5 -51.5v-469h-276v114h111v312h-283q-18 -79 -47 -147t-68 -123.5t-87.5 -96.5t-105.5 -65l-125 127q98 42 162 119t98 186h-231v115zM721 109h-162l-39 216h163zM310 517h-171l-15 118
h169z" />
    <glyph glyph-name="cid4598" unicode="&#x4e3b;" 
d="M921 579v-114h-340v-134h312v-112h-312v-148h358l-1 -114h-877v114h357v148h-312v112h312v134h-341v114h341v73h163v-73h340z" />
    <glyph glyph-name="cid2529" unicode="&#x4e3d;" 
d="M521 -53v537h347q29 0 49.5 -21t20.5 -53v-463h-207v105h47v107h-71v113h71v96h-103v-421h-154zM61 -53v537h349q27 0 47.5 -21t20.5 -53v-463h-203v105h44v107h-69v113h69v96h-103v-421h-155zM947 634v-116h-895v116h895z" />
    <glyph glyph-name="cid2312" unicode="&#x4e3e;" 
d="M933 539v-109h-178q30 -35 75.5 -59t114.5 -24l-39 -127q-34 2 -63.5 8t-55.5 17v-45h-206v-78h352v-111h-352v-67h-163v67h-353v111h353v78h-206v45q-26 -11 -55.5 -17t-63.5 -8l-39 127q69 0 114 24t75 59h-178v109h89l-63 93l155 27l70 -120h110l-61 103l156 28
l62 -131h64l67 120l156 -27l-61 -93h124zM418 379h163v-69h108q-26 25 -48 55t-41 65h-201q-20 -35 -41.5 -65t-47.5 -55h108v69z" />
    <glyph glyph-name="cid2862" unicode="&#x4e43;" 
d="M108 506v115h652q15 0 27 -9t20 -22.5t9.5 -29t-4.5 -29.5l-68 -140h129q30 0 51 -22t21 -57v-362h-320v102h156v224h-165q-15 0 -27.5 7t-20 18t-9 25t6.5 28l70 152h-232v-76q0 -63 -12.5 -130t-38.5 -131t-65 -120.5t-93 -98.5l-141 102q40 25 73.5 65t58 91.5
t38 113.5t13.5 133v51h-129z" />
    <glyph glyph-name="cid2290" unicode="&#x4e45;" 
d="M44 410q25 22 50.5 56.5t47 71.5t36.5 70.5t18 53.5l133 -15q-1 -12 -2.5 -25.5t-5.5 -28.5h463q20 0 35 -8.5t23 -22.5t8 -32.5t-10 -39.5q-21 -50 -64.5 -111t-105.5 -124q33 -30 69.5 -58t74 -51t73.5 -40t68 -25l-110 -132q-34 16 -70.5 37t-73.5 47.5t-72.5 57
t-66.5 65.5q-87 -72 -188.5 -127.5t-210.5 -79.5l-119 122q59 13 121 39t123 60t117.5 73.5t105 80.5t85.5 79.5t58 71.5h-376q-19 -40 -41.5 -74t-46.5 -53z" />
    <glyph glyph-name="cid4711" unicode="&#x4e47;" 
d="M936 374v-116h-382v-178h391v-115h-468q-37 0 -63.5 27t-26.5 69v197h-333v116h333v147h-302v115h820v-115h-351v-147h382z" />
    <glyph glyph-name="cid2745" unicode="&#x4e48;" 
d="M58 267q37 32 77.5 81.5t78 105.5t68.5 112.5t49 102.5l148 -33q-10 -33 -29 -73t-42.5 -82.5t-51 -85.5t-55 -81.5t-53 -70t-46.5 -51.5zM282 -52q-15 0 -26.5 7.5t-18 19t-8 25t4.5 26.5l352 565h197l-327 -526h319l-42 214h165l42 -257q5 -31 -10 -52.5t-42 -21.5
h-606z" />
    <glyph glyph-name="cid4204" unicode="&#x4e49;" 
d="M869 580q-24 -121 -85.5 -215.5t-144.5 -167.5q84 -43 166 -70t148 -38l-83 -139q-84 19 -180.5 54t-190.5 92q-94 -57 -190 -92t-180 -54l-83 139q66 11 147.5 38t165.5 70q-83 73 -144 167.5t-85 215.5l138 25q11 -50 33 -94.5t52 -85t67 -76t79 -66.5q85 62 147 142
t85 180zM474 423q-31 52 -51.5 101t-31.5 106l124 37q13 -47 35.5 -92.5t48.5 -80.5z" />
    <glyph glyph-name="cid4525" unicode="&#x4e4b;" 
d="M127 -52q-29 0 -46.5 14.5t-22 35t4 43.5t32.5 40l521 358h-529v118h324v94h163v-94h265q26 0 40.5 -13.5t18 -32.5t-3 -39t-23.5 -32l-549 -378h621v-114h-816z" />
    <glyph glyph-name="cid3817" unicode="&#x4e4c;" 
d="M814 622q34 0 53.5 -20t19.5 -49v-212h-306v105h140v61h-454v-193h609q30 0 49.5 -20t19.5 -52v-293h-226v109h61v141h-680v423h235l15 40h174l-15 -40h305zM687 133v-110h-633v110h633z" />
    <glyph glyph-name="cid4424" unicode="&#x4e4d;" 
d="M366 -51v522h-86q-19 -39 -41 -72t-45 -51l-145 62q24 22 49.5 56.5t47 71.5t36 70.5t17.5 53.5l133 -15q-1 -26 -11 -64h629v-112h-419v-95h392v-110h-392v-94h392v-110h-392v-113h-165z" />
    <glyph glyph-name="cid1964" unicode="&#x4e4e;" 
d="M947 296v-116h-366v-230h-299v115h136v115h-366v116h366v225h-344v116h851v-116h-344v-225h366zM259 481q7 -35 14.5 -68.5t17.5 -65.5l-152 -21q-12 31 -22.5 67.5t-16.5 79.5zM899 473q-6 -43 -16.5 -79.5t-22.5 -67.5l-152 21q10 32 17.5 65.5t14.5 68.5z" />
    <glyph glyph-name="cid1603" unicode="&#x4e4f;" 
d="M127 -43q-29 0 -46.5 16.5t-22 38t5.5 44t36 34.5l462 213h-476v112h330v63h167v-63h259q24 0 38 -14.5t18 -33.5t-3 -37.5t-23 -25.5l-491 -233h561v-114h-815zM933 626v-114h-866v114h866z" />
    <glyph glyph-name="cid2497" unicode="&#x4e50;" 
d="M590 467v-117h320v-118h-320v-290h-260v114h95v176h-267q-27 0 -46 20t-19 49v327h806v-116h-640v-162h166v117h165zM39 66q54 19 111.5 56.5t105.5 87.5l86 -67q-10 -25 -30 -54t-46.5 -56.5t-58.5 -51t-67 -36.5zM860 -55q-35 13 -67 36.5t-59 51t-46.5 56.5t-29.5 54
l86 67q48 -50 105 -87.5t111 -56.5z" />
    <glyph glyph-name="cid3032" unicode="&#x4e52;" 
d="M887 515h-595v-66h622v-118h-170v-98h193v-115h-643l64 -62q-17 -20 -43 -38t-55.5 -33t-59 -26t-53.5 -17l-85 118q17 1 39 6t45.5 13t47 18t44.5 21h-176v115h64v395h761v-113zM292 233h286v98h-286v-98z" />
    <glyph glyph-name="cid2963" unicode="&#x4e53;" 
d="M887 515h-595v-66h622v-118h-170v-98h193v-115h-176q20 -11 43.5 -21t47 -18t46 -13t40.5 -6l-85 -118q-24 6 -53.5 17t-59 26t-55.5 33t-43 38l64 62h-644v115h64v395h761v-113zM292 233h286v98h-286v-98z" />
    <glyph glyph-name="cid3140" unicode="&#x4e54;" 
d="M610 -53v270h96q-79 49 -139 138h-125q-61 -82 -146 -132l81 -6q-9 -108 -48 -173t-91 -97l-163 68q55 34 92 73t54 99q-29 -11 -60 -20t-65 -14l-48 134q63 8 111 25t86 43h-192v109h290q19 31 33 64h-284v110h821v-110h-385q-5 -17 -11 -33t-13 -31h448v-109h-219
q94 -69 219 -72l-35 -130q-75 1 -142 29v-235h-165z" />
    <glyph glyph-name="cid1837" unicode="&#x4e56;" 
d="M420 -58v430h-357v111h357v45h-324v110h807v-110h-324v-45h357v-111h-357v-430h-159zM82 131l138 16v52h-138v103h138v35h152v-335h-152v42l-138 -16v103zM779 337v-55l137 16v-105l-137 -16v-66h137v-109h-211q-15 0 -29 5t-25 15t-17.5 24.5t-6.5 32.5v258h152z" />
    <glyph glyph-name="cid1264" unicode="&#x4e58;" 
d="M420 -58v96q-135 -59 -321 -91l-55 124q107 11 205.5 32.5t170.5 53.5v254h-366v99h366v27h-333v101h825v-101h-333v-27h366v-99h-366v-254q71 -32 170 -53.5t206 -32.5l-55 -124q-187 32 -321 91v-96h-159zM794 387v-28l139 5v-89l-139 -6v-33h139v-90h-224
q-28 0 -48 16t-20 48v177h153zM65 364h140v23h153v-241h-153v21l-140 -4v85l140 6v25h-140v85z" />
    <glyph glyph-name="cid4725" unicode="&#x4e5c;" 
d="M47 540l100 5v115h164v-106l526 28q31 2 52.5 -18.5t21.5 -51.5v-347h-328v114h162v187l-434 -25v-374h641v-117h-717q-18 0 -34 7.5t-28 20.5t-19 30.5t-7 36.5v386l-100 -5v114z" />
    <glyph glyph-name="cid2292" unicode="&#x4e5d;" 
d="M75 564h177v95h166v-95h355q14 0 27 -6.5t22.5 -17t15.5 -24t6 -28.5v-425h108v-117h-188q-18 0 -33.5 7t-27 18.5t-18 27t-6.5 33.5v415h-263q-4 -91 -24.5 -173t-55 -148.5t-82 -113t-104.5 -66.5l-103 132q40 18 75 52.5t61.5 82t44 107t22.5 127.5h-175v117z" />
    <glyph glyph-name="cid3089" unicode="&#x4e5e;" 
d="M162 -49q-30 0 -46.5 14.5t-20 34.5t7 42t36.5 36l427 225h-433v115h51l-128 56q18 15 36.5 37t34.5 46.5t29.5 51t22.5 51.5l147 -17l-11 -36h620v-116h-668q-12 -22 -25 -40.5t-27 -32.5h598q25 0 39 -14t16.5 -33t-5.5 -38t-26 -28l-426 -238h533v-116h-782z" />
    <glyph glyph-name="cid4153" unicode="&#x4e5f;" 
d="M434 157v268l-153 -7v-350h669v-117h-743q-19 0 -35.5 7.5t-29 20.5t-20 30.5t-7.5 36.5v365l-66 -3v114l66 3v104h166v-95l153 7v119h169v-110l242 12q18 1 32 -5t24 -16t15.5 -24t5.5 -30v-330h-255v113h92v170l-156 -7v-276h-169z" />
    <glyph glyph-name="cid3869" unicode="&#x4e60;" 
d="M111 147l460 62v-117l-460 -64v119zM121 430h442v-113h-442v113zM89 641h748q34 0 54 -20.5t20 -55.5v-618h-304v115h138v464h-656v115z" />
    <glyph glyph-name="cid3924" unicode="&#x4e61;" 
d="M48 77q72 7 143.5 14t139.5 17.5t131.5 26t119.5 39.5l-372 -12q-22 -1 -36 10t-18 27t1.5 33.5t22.5 30.5l163 122h-219q-20 0 -33 10t-18 25t-0.5 32t19.5 29l221 179h203l-213 -164h189l106 79h213l-390 -298l322 6q28 31 48.5 68.5t31.5 84.5l128 -27
q-12 -88 -54 -156t-105 -118.5t-142.5 -85t-166.5 -57t-177 -34t-174 -15.5z" />
    <glyph glyph-name="cid3456" unicode="&#x4e66;" 
d="M373 -54v268h-316v113h316v124h-295v117h295v91h160v-91h212l-39 75h164l73 -138h-76q0 -4 0.5 -7.5t0.5 -7.5v-163q31 -1 50.5 -21.5t19.5 -55.5v-264h-274v111h110v117h-241v-268h-160zM704 451h-171v-124h171v124z" />
    <glyph glyph-name="cid4726" unicode="&#x4e69;" 
d="M509 580v-116h-156v-99h102q23 0 38 -16.5t15 -38.5v-359h-487v414h157v297h175v-82h156zM727 662v-596h252v-117h-357q-28 0 -47.5 20t-19.5 48v645h172zM334 68v179h-139v-179h139z" />
    <glyph glyph-name="cid2713" unicode="&#x4e70;" 
d="M615 505v-194q0 -7 -0.5 -13.5t-1.5 -13.5h339v-110h-264q58 -35 129 -60.5t140 -33.5l-89 -133q-49 3 -96.5 17.5t-91 37t-81.5 52t-69 63.5q-35 -37 -81.5 -67.5t-100 -52t-112 -34.5t-118.5 -16l-75 139q42 2 85.5 9t84.5 18t77.5 26t66.5 35h-304v110h391q3 13 3 28
v193h168zM62 643h808q34 0 53.5 -20.5t19.5 -52.5v-197h-164v160h-717v110zM401 393v-81h-316v81h316zM401 502v-81h-316v81h316z" />
    <glyph glyph-name="cid2681" unicode="&#x4e71;" 
d="M511 650v-106h-154v-69h161v-106h-161v-72h75q31 0 52 -20.5t21 -51.5v-280h-472v352h149v72h-162v106h162v69h-155v106h484zM729 658v-594h251v-117h-356q-28 0 -47.5 20t-19.5 48v643h172zM336 53v139h-134v-139h134z" />
    <glyph glyph-name="cid3268" unicode="&#x4e73;" 
d="M563 218v-111l-188 -5v-156h-261v100h86v52l-179 -4v111l222 5l74 63h-281v111h459q17 0 28.5 -11.5t16 -27t1 -32.5t-16.5 -27l-79 -71zM769 659v-594h209v-117h-314q-29 0 -49 20t-20 48v643h174zM563 651v-111h-542v111h542zM221 404l-13 115h145l13 -115h-145z
M42 404l-15 115h146l13 -115h-144zM397 404l14 115h145l-15 -115h-144z" />
    <glyph glyph-name="cid3113" unicode="&#x4e7e;" 
d="M502 92v-97h-153v-54h-174v54h-154v97h154v39h-149v355h149v36h-154v97h154v37h174v-37h153v-97h-153v-36h87q26 0 43 -17t17 -42v-296h-147v-39h153zM496 455q33 39 59 92.5t43 110.5l151 -16q-2 -11 -4.5 -23t-5.5 -24l240 2v-116l-278 -2q-17 -39 -33 -66l228 2
q24 0 39 -10.5t21 -27t3.5 -35.5t-14.5 -35l-184 -249l216 2v-116l-381 -2q-25 0 -40.5 12t-21 30t-2 39.5t17.5 39.5l178 237l-191 -2v115h68zM348 224v44h-170v-44h170zM348 393h-170v-44h170v44z" />
    <glyph glyph-name="cid2580" unicode="&#x4e86;" 
d="M86 641h765q25 0 40.5 -11.5t20 -28.5t-2 -35.5t-24.5 -33.5l-291 -225v-360h-325v115h161v309l213 155h-557v115z" />
    <glyph glyph-name="cid4301" unicode="&#x4e88;" 
d="M68 380h180l-68 105h184l70 -105h95l137 146h-565v115h733q24 0 39 -11.5t21 -28.5t2.5 -35.5t-17.5 -33.5l-145 -152h126q32 0 51.5 -20t19.5 -56v-212h-164v178h-195v-323h-298v115h132v208h-338v110z" />
    <glyph glyph-name="cid4506" unicode="&#x4e89;" 
d="M92 472h60l-104 49q35 35 57 67t38 71l139 -13l-6 -25h517q34 0 49 -24t6 -53l-22 -72h17q29 0 47.5 -18.5t18.5 -47.5v-78h46v-112h-46v-140h-334v-130h-294v95h130v35h-319v103h319v37h-367v112h367v39h-319v105zM670 472l15 45h-449q-7 -14 -15 -25t-16 -20h465z
M744 367h-169v-39h169v39zM744 179v37h-169v-37h169z" />
    <glyph glyph-name="cid3417" unicode="&#x4e8b;" 
d="M860 525q25 0 39.5 -16t14.5 -39v-129h-331v-19h288q21 0 36 -16t15 -36v-48h30v-87h-30v-98h-339v-91h-275v73h109v18h-340v77h340v21h-370v87h370v21h-340v79h340v19h-332v184h332v21h-370v90h370v23h166v-23h369v-90h-369v-21h277zM251 420h166v28h-166v-28zM748 420
v28h-165v-28h165zM759 243h-176v-21h176v21zM759 114v21h-176v-21h176z" />
    <glyph glyph-name="cid4695" unicode="&#x4e8d;" 
d="M943 370v-113h-356v-307h-305v115h142v192h-368v113h887zM917 625v-115h-835v115h835z" />
    <glyph glyph-name="cid4287" unicode="&#x4e8e;" 
d="M934 353v-118h-348v-285h-309v115h146v170h-358v118h358v157h-332v115h817v-115h-322v-157h348z" />
    <glyph glyph-name="cid2436" unicode="&#x4e8f;" 
d="M943 444v-118h-619l-9 -63h509q32 0 53.5 -23t21.5 -54v-236h-361v103h194v96h-535q-32 0 -45.5 19.5t-8.5 49.5l18 108h-105v118h887zM917 625v-115h-835v115h835z" />
    <glyph glyph-name="cid4361" unicode="&#x4e91;" 
d="M934 377v-114h-582l-66 -198h429l-49 154h169l64 -189q5 -15 3 -29t-9.5 -25.5t-20 -18.5t-28.5 -7h-688q-16 0 -28 7t-19.5 18.5t-10 25.5t2.5 29l77 233h-113v114h869zM907 625v-115h-817v115h817z" />
    <glyph glyph-name="cid1978" unicode="&#x4e92;" 
d="M943 70v-115h-887v115h600l6 56h-540l39 389h-98v115h873v-115h-612l-5 -56h474q31 0 47 -21.5t12 -47.5l-32 -320h123zM688 345h-380l-10 -101h378z" />
    <glyph glyph-name="cid4727" unicode="&#x4e93;" 
d="M946 400v-116h-150v-330h-168v330h-256v-28q0 -41 -13.5 -90.5t-35.5 -94.5t-50.5 -79.5t-58.5 -46.5l-159 69q32 22 59.5 51t47 61t30.5 66.5t11 69.5v22h-150v116h893zM917 630v-116h-835v116h835z" />
    <glyph glyph-name="cid3828" unicode="&#x4e94;" 
d="M935 69v-114h-871v114h139l25 217h-137v110h150l13 114h-181v115h853v-115h-511l-12 -114h381q32 0 53.5 -21.5t21.5 -57.5v-248h76zM691 286h-300l-22 -217h322v217z" />
    <glyph glyph-name="cid2269" unicode="&#x4e95;" 
d="M933 546v-115h-142v-174h147v-118h-147v-189h-167v189h-271q-18 -66 -45.5 -115.5t-62.5 -73.5l-163 61q31 26 53 59t38 69h-112v118h145q6 40 6 78v96h-146v115h146v105h166v-105h246v105h167v-105h142zM624 257v174h-246v-101q0 -19 -1 -37t-3 -36h250z" />
    <glyph glyph-name="cid4702" unicode="&#x4e98;" 
d="M841 500q21 0 36 -15.5t15 -38.5v-346h-785v400h734zM946 71v-116h-893v116h893zM933 645v-116h-867v116h867zM725 389h-451v-39h451v39zM725 210v38h-451v-38h451z" />
    <glyph glyph-name="cid4080" unicode="&#x4e9a;" 
d="M940 646v-116h-223v-455h231v-116h-897v116h230v455h-224v116h883zM445 75h109v455h-109v-455zM943 467q-7 -97 -18.5 -181.5t-37.5 -156.5l-131 14q16 85 27.5 167t16.5 166zM199 476q5 -84 16 -166t28 -167l-131 -14q-26 72 -37.5 156.5t-18.5 181.5z" />
    <glyph glyph-name="cid3956" unicode="&#x4e9b;" 
d="M531 372v-110h-462v110h26v253h148v-253h36v286h162v-73h90v-109h-90v-104h90zM930 372v-110h-307q-26 0 -43 18.5t-17 47.5v330h161v-79l206 12v-109l-206 -13v-97h206zM938 70v-111h-877v111h877zM895 223v-111h-791v111h791z" />
    <glyph glyph-name="cid4723" unicode="&#x4e9f;" 
d="M115 534v103h709q24 0 38.5 -15t17.5 -34.5t-6.5 -38.5t-33.5 -28l-158 -59h210q13 0 23 -6t16.5 -15.5t8.5 -22t-2 -25.5q-12 -42 -34 -82.5t-51 -77.5q47 -23 98 -38l-64 -101q-31 7 -61.5 21t-60.5 34q-59 -42 -121 -55l-66 101q24 7 47 16.5t44 20.5q-40 43 -67 91
l104 31q10 -15 22.5 -31.5t28.5 -30.5q16 16 28 34.5t20 35.5h-206v69l-27 -10v-346h-182v95h22v305l161 59h-458zM324 475q23 0 37.5 -15t14.5 -39v-322h-318v376h266zM946 62v-103h-897v103h897zM236 204v167h-42v-167h42z" />
    <glyph glyph-name="cid3751" unicode="&#x4ea1;" 
d="M955 574v-114h-684v-382h643v-116h-745q-28 0 -47 19t-19 48v431h-59v114h374v79h163v-79h374z" />
    <glyph glyph-name="cid2375" unicode="&#x4ea2;" 
d="M52 -14q60 43 91.5 117t33.5 168v160h583q30 0 49.5 -21t19.5 -51v-297h116v-117h-218q-26 0 -43.5 20.5t-17.5 48.5v304h-332v-66q0 -48 -6.5 -93.5t-20 -85.5t-34 -73t-49.5 -55zM948 602v-115h-886v115h362v53h163v-53h361z" />
    <glyph glyph-name="cid2188" unicode="&#x4ea4;" 
d="M46 424q76 8 142 26.5t112 45.5h-244v115h362v44h163v-44h362v-115h-244q45 -27 111 -45.5t143 -26.5l-37 -129q-100 17 -177.5 50.5t-132.5 88.5l50 62h-313l50 -62q-55 -55 -132.5 -88.5t-177.5 -50.5zM791 287q-52 -90 -141 -157q74 -25 152 -39t154 -15l-65 -131
q-100 7 -200.5 30t-191.5 65q-91 -42 -191 -65t-200 -30l-65 131q76 1 154 15t151 39q-43 33 -78.5 72.5t-61.5 84.5l112 61q24 -42 70.5 -81t108.5 -72q63 33 109.5 72t70.5 81z" />
    <glyph glyph-name="cid1884" unicode="&#x4ea5;" 
d="M947 607v-106h-540l-68 -71h273q13 11 25 23t25 28l139 -48q-47 -68 -116 -121.5t-157.5 -91.5t-194 -60t-224.5 -26l-62 123q117 7 215.5 20.5t187.5 45.5l-284 -4q-21 0 -35 9t-20 23t-3 29.5t16 28.5l94 92h-156v106h356v48h173v-48h356zM65 71q107 6 219.5 25.5
t215 54t187.5 83.5t137 114l119 -55q-32 -48 -74.5 -88.5t-93.5 -74.5l177 -48l-51 -136l-291 97q-110 -45 -232 -68.5t-246 -29.5z" />
    <glyph glyph-name="cid4199" unicode="&#x4ea6;" 
d="M173 -6q33 39 54.5 86.5t35 97t19 97t5.5 87.5v102h-224v113h360v80h163v-80h359v-113h-227v-525h-232v112h77v413h-120v-99q0 -67 -7 -131t-20.5 -120.5t-33.5 -103.5t-47 -78zM859 90q-18 25 -33.5 57.5t-28 69.5t-21 76t-12.5 77l107 29q8 -29 18.5 -60t23.5 -60.5
t28.5 -57t34.5 -48.5zM24 173q18 21 34 48.5t28.5 57t23 60.5t18.5 60l107 -29q-4 -38 -12.5 -77t-21 -76t-27.5 -69.5t-33 -57.5z" />
    <glyph glyph-name="cid1217" unicode="&#x4ea7;" 
d="M42 -27q15 16 24.5 39.5t15.5 49.5t8.5 52t2.5 47v180h865v-110h-700v-74q0 -70 -10.5 -124.5t-28.5 -86.5zM958 621v-108h-870v108h348v38h169v-38h353zM195 367l-41 123h169l43 -123h-171zM681 367l41 123h170l-42 -123h-169z" />
    <glyph glyph-name="cid1943" unicode="&#x4ea8;" 
d="M848 516q22 0 37 -15.5t15 -35.5v-160h-800v211h748zM77 278h803q21 0 34.5 -14t16.5 -32t-5.5 -35.5t-30.5 -25.5l-295 -111v-114h-264v91h96v86l160 59h-515v96zM947 633v-94h-894v94h365v26h163v-26h366zM732 395v30h-466v-30h466z" />
    <glyph glyph-name="cid2841" unicode="&#x4ea9;" 
d="M874 452q20 0 35 -15t15 -36v-444h-849v495h799zM955 612v-116h-911v116h374v43h163v-43h374zM761 72v74h-180v-74h180zM238 72h180v74h-180v-74zM761 337h-180v-74h180v74zM238 263h180v74h-180v-74z" />
    <glyph glyph-name="cid3930" unicode="&#x4eab;" 
d="M86 280h743q24 0 37 -12.5t15 -29t-7 -33t-30 -25.5l-93 -37h195v-89h-346v-110h-366v77h197v33h-378v89h414l131 47h-512v90zM840 514q21 0 36 -15t15 -37v-155h-783v207h732zM946 626v-90h-893v90h365v30h163v-30h365zM724 392v33h-449v-33h449z" />
    <glyph glyph-name="cid2264" unicode="&#x4eac;" 
d="M855 477q21 0 36 -15t15 -39v-233h-320v-246h-230v106h67v140h-330v287h762zM944 618v-110h-889v110h363v38h163v-38h363zM39 93q57 4 121 22t121 51l73 -86q-17 -21 -44.5 -41.5t-61 -38t-71.5 -29.5t-74 -16zM895 -45q-36 4 -73.5 16t-71 29.5t-61.5 38t-44 41.5l73 86
q57 -33 121 -51t121 -22zM741 305v59h-483v-59h483z" />
    <glyph glyph-name="cid3669" unicode="&#x4ead;" 
d="M844 516q21 0 36 -15t15 -37v-148h-791v200h740zM913 159v-91h-332v-124h-229v77h66v47h-332v91h827zM54 176v118h841q23 0 36.5 -15t13.5 -39v-64h-165v27h-561v-27h-165zM946 626v-90h-893v90h365v30h163v-30h365zM727 401v27h-455v-27h455z" />
    <glyph glyph-name="cid2570" unicode="&#x4eae;" 
d="M50 145v144h853q19 0 34 -15t15 -39v-90h-129q11 -16 11 -34v-77h117v-90h-226q-23 0 -38 17.5t-15 40.5v76h-363q0 -30 -14 -55t-36.5 -42.5t-51.5 -27t-59 -9.5l-103 118q23 0 43.5 3t36 11.5t25.5 25t12 43.5h-112zM851 514q20 0 36.5 -16t16.5 -36v-150h-804v202h751
zM954 626v-90h-906v90h372v30h163v-30h371zM780 168q4 0 7 -1v31h-571v-30h564zM734 398v26h-465v-26h465z" />
    <glyph glyph-name="cid3156" unicode="&#x4eb2;" 
d="M947 436v-112h-363v-51h344v-114h-344v-215h-229v98h60v117h-335v114h335v51h-363v112h133l-19 50h167l21 -50h309l21 50h167l-20 -50h116zM928 623v-114h-848v114h335v33h169v-33h344zM895 -56q-36 4 -73.5 16t-71 28.5t-61.5 36t-44 39.5l73 76q57 -29 121 -45t121 -18
zM39 77q57 2 121 18t121 45l73 -76q-17 -20 -44.5 -39.5t-61 -36t-71 -28.5t-73.5 -16z" />
    <glyph glyph-name="cid4869" unicode="&#x4eb3;" 
d="M915 220v-79h-334v-22h365v-79h-365v-19h365v-77h-482q-26 0 -36.5 13.5t-10.5 33.5v49h-364v79h364v22h-333v79h831zM845 528q22 0 37 -14t15 -37v-112h-795v163h743zM54 231v110h840q21 0 36 -14.5t15 -37.5v-58h-165v26h-561v-26h-165zM946 631v-81h-893v81h365v25
h163v-25h365zM730 433v28h-461v-28h461z" />
    <glyph glyph-name="cid4872" unicode="&#x4eb5;" 
d="M569 213q-7 -8 -13.5 -16t-14.5 -16q34 -19 79 -37t96 -32l34 65h135l-49 -94q32 -5 63.5 -9t60.5 -5l-61 -119q-63 4 -125.5 18.5t-120.5 36t-109.5 49t-93.5 58.5l-18 -10l-18 -10v-66h110v-82h-210q-23 0 -39.5 17t-16.5 40v29q-83 -25 -168 -36l-51 124q42 2 96 11.5
t109 25t104.5 35t83.5 42.5l-53 31q17 8 33 22t30 31l-33 3v76l76 -6q3 8 6 15.5t5 15.5h-81v86h104q2 7 3 14t2 15l136 -11q-1 -5 -1.5 -9t-2.5 -9h189q23 0 38.5 -18t15.5 -38v-102q0 -46 50 -46v-107q-61 0 -99.5 7.5t-60 23.5t-29 40.5t-7.5 58.5v95h-118
q-3 -11 -6 -20.5t-7 -20.5l100 -7v-78l-129 10q-22 -48 -50 -81zM292 529v-23h96v-86h-96v-32h96v-85h-96v-108h-222v81h71v27h-89v85h89v32h-89v86h89v23h151zM945 634v-92h-893v92h365v22h163v-22h365z" />
    <glyph glyph-name="cid4767" unicode="&#x4ebb;" 
d="M143 -62v395q-14 -13 -28.5 -24t-28.5 -20l-66 168q58 38 101.5 86t75.5 117l144 -27q-9 -43 -35.5 -93t-63.5 -98h74v-504h-173z" />
    <glyph glyph-name="cid4193" unicode="&#x4ebf;" 
d="M446 -52q-25 0 -41 13t-23.5 32t-5 41t15.5 40l333 450h-321v116h474q23 0 39 -11t22.5 -28t4.5 -37t-15 -38l-342 -463h389v-115h-530zM144 -59v389q-14 -13 -28 -24t-28 -19l-65 168q58 38 101 86t75 118l142 -28q-8 -42 -34 -91.5t-62 -97.5h73v-501h-174z" />
    <glyph glyph-name="cid3401" unicode="&#x4ec0;" 
d="M590 -61v340h-216v116h216v243h174v-243h215v-116h-215v-340h-174zM152 -58v394q-17 -14 -33.5 -26.5t-33.5 -22.5l-65 168q58 38 111 86t85 117l143 -27q-9 -42 -37 -91.5t-67 -97.5h70v-500h-173z" />
    <glyph glyph-name="cid3237" unicode="&#x4ec1;" 
d="M141 -62v393q-30 -26 -55 -42l-65 168q58 38 101.5 86t75.5 117l141 -27q-8 -43 -34.5 -93t-62.5 -98h74v-504h-175zM365 71h614v-116h-614v116zM404 609h534v-116h-534v116z" />
    <glyph glyph-name="cid4770" unicode="&#x4ec2;" 
d="M378 539h110v95h175v-95h232q34 0 56 -20.5t22 -54.5v-512h-261v100h86v376h-135v-57q0 -52 -6 -109.5t-18.5 -114.5t-33.5 -109.5t-51 -94.5l-187 45q64 91 92.5 197t28.5 208v35h-110v111zM149 -62v395q-14 -13 -28.5 -24t-28.5 -20l-66 168q58 38 101.5 86t75.5 117
l142 -27q-8 -43 -34.5 -93t-62.5 -98h74v-504h-173z" />
    <glyph glyph-name="cid4768" unicode="&#x4ec3;" 
d="M508 -61v117h97v455h-205v116h574v-116h-194v-572h-272zM149 -62v395q-14 -13 -28.5 -24t-28.5 -20l-66 168q58 38 101.5 86t75.5 117l142 -27q-8 -43 -34.5 -93t-62.5 -98h74v-504h-173z" />
    <glyph glyph-name="cid4732" unicode="&#x4ec4;" 
d="M44 -29q15 16 27 42t20.5 56t13 62t4.5 61v457h836v-111h-670v-351q0 -38 -4.5 -74.5t-12 -68t-17 -57.5t-18.5 -43zM284 77q72 19 120.5 61t78.5 99t44.5 124.5t18.5 136.5l154 -9q-1 -32 -3.5 -62t-6.5 -59q20 -44 50 -91.5t65.5 -88.5t74 -71t75.5 -40l-101 -133
q-38 11 -70.5 32.5t-59.5 50t-50 62t-41 69.5q-41 -87 -103.5 -142t-148.5 -72z" />
    <glyph glyph-name="cid2247" unicode="&#x4ec5;" 
d="M562 484q25 -55 53 -101.5t59 -87.5q74 92 110 211h-393v116h488q44 0 59 -27t6 -70q-21 -103 -60.5 -188.5t-96.5 -156.5q44 -35 91.5 -59.5t100.5 -41.5l-99 -140q-53 26 -103.5 58.5t-98.5 72.5q-48 -38 -102 -70.5t-116 -60.5l-98 140q115 41 200 107
q-46 55 -82.5 118.5t-62.5 138.5zM141 -62v393q-30 -26 -55 -42l-65 168q58 38 101.5 86t75.5 117l141 -27q-8 -43 -34.5 -93t-62.5 -98h74v-504h-175z" />
    <glyph glyph-name="cid3052" unicode="&#x4ec6;" 
d="M164 -58v386q-39 -25 -77 -41l-65 168q32 13 67 34t67.5 47.5t59 57.5t41.5 64l141 -27q-13 -55 -41.5 -105t-68.5 -94h49v-490h-173zM513 -61v700h175v-700h-175zM825 112q-14 27 -28.5 62t-28 74t-25.5 79.5t-19 78.5l145 47q20 -68 45.5 -136t63.5 -145z" />
    <glyph glyph-name="cid1301" unicode="&#x4ec7;" 
d="M334 -6q28 35 52.5 82.5t43.5 103t30.5 117.5t13.5 128h-100v116h101v104h173v-104h199q32 0 54 -21.5t22 -51.5v-414h59v-109h-136q-42 0 -69.5 28t-27.5 68v384h-101q-1 -85 -10 -154.5t-25 -128t-39.5 -108.5t-54.5 -95zM139 -62v393q-14 -12 -28 -23t-28 -19l-65 168
q58 38 101.5 86t75.5 117l141 -27q-8 -43 -34 -93t-62 -98h74v-504h-175z" />
    <glyph glyph-name="cid4769" unicode="&#x4ec9;" 
d="M354 -1q22 22 35 52t20 64t9 71.5t3 76.5v367h424q32 0 53.5 -21.5t21.5 -52.5v-497h59v-116h-165q-27 0 -48 20t-21 47v504h-149v-249q0 -48 -1.5 -92.5t-9 -85.5t-22 -78t-39.5 -69zM140 -62v393q-30 -26 -55 -42l-65 168q58 38 101.5 86t75.5 117l141 -27
q-8 -43 -34.5 -93t-62.5 -98h74v-504h-175z" />
    <glyph glyph-name="cid2242" unicode="&#x4eca;" 
d="M378 -1l268 218h-531v113h300v82h169v-82h258q23 0 38 -11.5t20 -28t-0.5 -35t-22.5 -33.5l-323 -281zM571 654q21 -25 54 -48.5t79.5 -43t108 -33t139.5 -18.5l-49 -140q-143 12 -243.5 52.5t-160.5 115.5q-118 -147 -403 -173l-49 139q78 6 139.5 20.5t108 34.5
t79.5 44.5t54 49.5h143z" />
    <glyph glyph-name="cid2234" unicode="&#x4ecb;" 
d="M571 654q21 -25 54 -48.5t79.5 -43t108 -33t139.5 -18.5l-49 -140q-142 12 -243 48t-160 116q-60 -80 -161 -118t-243 -51l-49 139q78 6 139.5 20.5t108 34.5t79.5 44.5t54 49.5h143zM64 22q29 17 56 41.5t48 54.5t33.5 65t12.5 74v100h165v-101q0 -112 -42 -192.5
t-113 -122.5zM622 -59v416h165v-416h-165z" />
    <glyph glyph-name="cid3247" unicode="&#x4ecd;" 
d="M354 0q26 27 46.5 77.5t34.5 113t21 130.5t7 131v64h-79v116h460q40 0 54 -24t3 -68l-35 -152h42q28 0 48 -19.5t20 -48.5v-381h-281v100h117v234h-69q-15 0 -26 6.5t-17 17.5t-7.5 24t2.5 27l39 168h-113v-88q0 -56 -5.5 -125t-18.5 -137.5t-34.5 -128.5t-52.5 -98z
M145 -62v394q-14 -13 -28 -24t-28 -19l-65 168q58 38 101 86t75 117l142 -27q-8 -43 -34.5 -93t-62.5 -98h74v-504h-174z" />
    <glyph glyph-name="cid1366" unicode="&#x4ece;" 
d="M771 654q0 -64 -3.5 -123t-9.5 -113q14 -58 38 -115.5t53 -106.5t59.5 -85.5t57.5 -52.5l-122 -117q-88 69 -147 200q-54 -151 -136 -200l-125 117q91 53 138.5 206.5t47.5 389.5h149zM361 654q0 -56 -2 -107t-6 -99l163 -282l-128 -83l-68 151q-26 -110 -67.5 -184
t-96.5 -109l-123 117q88 69 133 215t45 381h150z" />
    <glyph glyph-name="cid2687" unicode="&#x4ed1;" 
d="M571 653q41 -50 133.5 -86t247.5 -47l-49 -142q-143 15 -243 52t-160 115q-60 -78 -160.5 -117.5t-243.5 -51.5l-49 140q155 10 247.5 48.5t133.5 88.5h143zM333 276l586 41v-116l-586 -41v116zM289 351v-284h630v-115h-703q-18 0 -35 7.5t-29.5 20t-20 29.5t-7.5 36v306
h165z" />
    <glyph glyph-name="cid1181" unicode="&#x4ed3;" 
d="M301 67h615v-115h-710q-23 0 -40.5 18t-17.5 44v353q-26 -5 -52 -6l-49 140q78 6 139.5 21.5t108 36t79.5 45t54 49.5h143q21 -25 54 -48.5t79.5 -43.5t108 -35t139.5 -21l-49 -139l-34 4t-33 4q20 -17 20 -45v-206h-357v94h204v55h-402v-205zM500 545
q-45 -60 -110 -99.5t-153 -61.5h542q-94 20 -164 59t-115 102z" />
    <glyph glyph-name="cid4653" unicode="&#x4ed4;" 
d="M366 365h219l139 156h-344v116h523q22 0 36.5 -10t20 -25t2.5 -32t-15 -31l-158 -174h190v-118h-224v-302h-283v117h109v185h-215v118zM141 -62v393q-30 -26 -55 -42l-65 168q58 38 101.5 86t75.5 117l141 -27q-8 -43 -34.5 -93t-62.5 -98h74v-504h-175z" />
    <glyph glyph-name="cid3426" unicode="&#x4ed5;" 
d="M396 59h192v304h-214v116h214v159h174v-159h214v-116h-214v-304h190v-116h-556v116zM145 -62v394q-14 -13 -28 -24t-28 -19l-65 168q58 38 101 86t75 117l142 -27q-8 -43 -34.5 -93t-62.5 -98h74v-504h-174z" />
    <glyph glyph-name="cid3568" unicode="&#x4ed6;" 
d="M343 473l41 4v122h165v-104l54 6v146h164v-129l129 14q35 4 59 -17.5t24 -59.5v-305h-183v86h23v179l-52 -6v-307h-164v289l-54 -6v-328h430v-109h-522q-31 0 -52 20t-21 49v349l-41 -4v111zM141 -62v393q-30 -26 -55 -42l-65 168q58 38 101.5 86t75.5 117l141 -27
q-8 -43 -34.5 -93t-62.5 -98h74v-504h-175z" />
    <glyph glyph-name="cid4461" unicode="&#x4ed7;" 
d="M346 63q41 16 84.5 42.5t85.5 62.5q-48 47 -84 98t-56 103l142 36q13 -32 38.5 -64t60.5 -62q51 71 73 151h-329v115h342v98h175v-98h98v-115h-107q-13 -73 -41 -136.5t-66 -117.5q59 -34 116 -57.5t102 -31.5l-75 -144q-60 13 -123.5 41.5t-126.5 70.5
q-48 -44 -95 -72.5t-83 -41.5zM140 -62v393q-30 -26 -55 -42l-65 168q58 38 101.5 86t75.5 117l141 -27q-8 -43 -34.5 -93t-62.5 -98h74v-504h-175z" />
    <glyph glyph-name="cid1713" unicode="&#x4ed8;" 
d="M657 -61v101h87v376h-379v116h379v108h175v-108h59v-116h-59v-477h-262zM142 -62v393q-30 -26 -55 -42l-65 168q58 38 101.5 86t75.5 117l141 -27q-8 -43 -34.5 -93t-62.5 -98h74v-504h-175zM521 78q-17 25 -33.5 57.5t-30 67t-24 67t-15.5 58.5l146 45q15 -62 42 -127
t59 -116z" />
    <glyph glyph-name="cid3894" unicode="&#x4ed9;" 
d="M817 63v465h158v-581h-514q-35 0 -59 23.5t-24 57.5v500h156v-465h54v583h175v-583h54zM147 -62v395q-14 -13 -28.5 -24t-28.5 -20l-66 168q59 38 102 86t75 117l142 -27q-8 -43 -34.5 -93t-62.5 -98h74v-504h-173z" />
    <glyph glyph-name="cid4846" unicode="&#x4edd;" 
d="M930 67v-115h-861v115h344v168h-301v115h775v-115h-301v-168h344zM571 653q21 -23 54 -45.5t79.5 -42t108 -33t139.5 -18.5l-49 -133q-142 13 -243 50t-160 113q-60 -76 -160.5 -114.5t-243.5 -51.5l-49 132q78 5 139.5 19.5t108 34t79.5 43t54 46.5h143z" />
    <glyph glyph-name="cid4774" unicode="&#x4ede;" 
d="M395 631h502q34 0 56 -21t22 -56v-602h-274v110h99v453h-83v-145q0 -53 -8 -113t-23 -118.5t-37 -111t-50 -88.5l-190 46q28 35 52.5 80t42.5 96.5t28 109t10 117.5v127h-147v116zM147 -62v395q-14 -13 -28.5 -24t-28.5 -20l-66 168q59 38 102 86t75 117l142 -27
q-8 -43 -34.5 -93t-62.5 -98h74v-504h-173zM355 217q7 26 14 60t12.5 68t9.5 64.5t6 49.5l111 -16q0 -21 -3 -55t-7.5 -70.5t-10 -70t-11.5 -52.5z" />
    <glyph glyph-name="cid3111" unicode="&#x4edf;" 
d="M588 -62v298h-214v118h214v136q-54 -2 -102 -3.5t-87 -0.5l-10 121q37 0 83 1t96 2.5t102 4t100.5 5.5t91.5 7t76 8l26 -113q-44 -5 -95 -10t-106 -10v-148h216v-118h-216v-298h-175zM141 -62v393q-30 -26 -55 -42l-65 168q58 38 101.5 86t75.5 117l141 -27
q-8 -43 -34.5 -93t-62.5 -98h74v-504h-175z" />
    <glyph glyph-name="cid4772" unicode="&#x4ee1;" 
d="M354 452q32 40 57.5 93.5t44.5 110.5l147 -16q-2 -11 -4.5 -22t-5.5 -22h382v-116h-419q-8 -20 -16.5 -36.5t-16.5 -30.5h340q24 0 38.5 -13t20 -31t1.5 -37.5t-18 -32.5l-270 -239h341v-116h-514q-26 0 -41.5 14t-20 34t1.5 41.5t23 37.5l262 227h-278v115h45zM144 -62
v394q-14 -13 -28 -24t-28 -19l-65 168q58 38 101 86t75 117l142 -27q-8 -43 -34.5 -93t-62.5 -98h74v-504h-174z" />
    <glyph glyph-name="cid1405" unicode="&#x4ee3;" 
d="M919 -61q-74 10 -136.5 36t-112 73t-86 118.5t-57.5 173.5h-183v117h166q-9 84 -9 187h161q0 -102 9 -187h308v-117h-287q14 -51 36.5 -93.5t57 -75.5t82.5 -56t112 -35zM142 -61v387q-29 -26 -57 -43l-65 171q62 39 108 87t78 119l132 -27q-8 -42 -32 -90t-58 -96h60
v-508h-166zM748 496l-24 148h161l24 -148h-161z" />
    <glyph glyph-name="cid2615" unicode="&#x4ee4;" 
d="M443 -59l-230 233h208l56 -58l156 113h-518v115h303v76h163v-76h262q22 0 36 -12.5t18.5 -30t-0.5 -36.5t-20 -31l-297 -222l70 -71h-207zM571 654q21 -23 54 -45t79.5 -40.5t108 -31.5t139.5 -19l-49 -133q-71 7 -131.5 18t-111 30t-90.5 46.5t-70 66.5
q-60 -78 -161 -114.5t-243 -49.5l-49 133q78 4 139.5 18t108 33t79.5 42t54 46h143z" />
    <glyph glyph-name="cid4187" unicode="&#x4ee5;" 
d="M815 654q0 -91 -8 -167t-24 -142q29 -89 72 -162t91 -125l-121 -117q-41 45 -71.5 92.5t-53.5 107.5q-37 -60 -83 -108.5t-103 -91.5l-120 117q131 87 198.5 235.5t66.5 360.5h156zM218 633v-546h147v-115h-230q-37 0 -59.5 23.5t-22.5 62.5v575h165zM369 282l-59 334
h155l58 -334h-154z" />
    <glyph glyph-name="cid4771" unicode="&#x4ee8;" 
d="M141 -62v393q-30 -26 -55 -42l-65 168q58 38 101.5 86t75.5 117l141 -27q-8 -43 -34.5 -93t-62.5 -98h74v-504h-175zM359 63h620v-116h-620v116zM381 620h573v-116h-573v116zM397 341h541v-116h-541v116z" />
    <glyph glyph-name="cid4174" unicode="&#x4eea;" 
d="M509 602q14 -100 58 -178t102 -138q57 60 101 138t58 178l133 -23q-15 -125 -62 -222t-111 -171q52 -35 101 -57t86 -32l-62 -156q-53 19 -116.5 51.5t-128.5 81.5q-65 -49 -128.5 -81.5t-115.5 -51.5l-60 156q37 10 85 32t100 57q-63 74 -110 171t-61 222zM147 -62v395
q-14 -13 -28.5 -24t-28.5 -20l-66 168q59 38 102 86t75 117l142 -27q-8 -43 -34.5 -93t-62.5 -98h74v-504h-173zM617 451q-18 45 -30 88.5t-20 97.5l134 26q10 -47 25.5 -91t35.5 -79z" />
    <glyph glyph-name="cid4773" unicode="&#x4eeb;" 
d="M145 -62v393q-30 -26 -55 -42l-65 168q57 38 101 86.5t76 116.5l141 -27q-8 -43 -34.5 -93t-62.5 -98h74v-100q30 31 60 69.5t58.5 80.5t53.5 85t44 83l148 -27q-14 -47 -42.5 -106t-64 -117t-74.5 -107.5t-73 -77.5l-110 58v-345h-175zM455 -57q-25 0 -39 10t-19.5 25
t-2.5 32.5t12 32.5l341 540h178l-323 -524h204l-41 180h166l41 -198q3 -19 1 -36.5t-11 -31t-24.5 -22t-38.5 -8.5h-444z" />
    <glyph glyph-name="cid2764" unicode="&#x4eec;" 
d="M724 -61v104h80v487h-197v113h291q36 0 58.5 -20.5t22.5 -56.5v-627h-255zM142 -62v402q-14 -12 -27.5 -22.5t-27.5 -18.5l-66 168q58 38 101.5 86t75.5 117l142 -27q-8 -42 -33.5 -91t-60.5 -97h71v-517h-175zM553 481v-542h-175v542h175zM378 529v125h175v-125h-175z
" />
    <glyph glyph-name="cid10167" unicode="&#x4eee;" 
d="M890 -61q-73 23 -148 83q-42 -29 -83.5 -50t-79.5 -33l-55 75q-11 -38 -30 -75l-157 50q16 24 26 55.5t16 68t8.5 76t2.5 79.5v356h580v-105h-426v-86h357q42 0 58 -25.5t7 -67.5q-14 -66 -44.5 -120.5t-71.5 -100.5q62 -40 130 -55zM140 -62v393q-30 -26 -55 -42
l-65 168q58 38 101.5 86t75.5 117l141 -27q-8 -43 -34.5 -93t-62.5 -98h74v-504h-175zM667 328q15 -32 35 -62t44 -57q54 55 79 119h-158zM544 271q0 -57 -1 -104t-7 -89q54 18 103 47q-29 36 -53 76.5t-42 85.5v-16z" />
    <glyph glyph-name="cid4127" unicode="&#x4ef0;" 
d="M764 -61h-155v696h288q32 0 55 -22.5t23 -53.5v-541h-192v106h37v399h-56v-584zM113 -61v353l-24 -23l-65 155q45 41 84.5 103.5t63.5 132.5l123 -26q-8 -48 -28.5 -98t-47.5 -98h54v-499h-160zM486 124h90v-106h-186q-28 0 -48.5 22t-20.5 50v545h255v-112h-90v-399z
" />
    <glyph glyph-name="cid4568" unicode="&#x4ef2;" 
d="M594 -61v157h-209v423h209v125h174v-125h140q28 0 48 -19.5t20 -48.5v-355h-208v-157h-174zM157 -58v397q-38 -33 -69 -53l-65 171q58 37 110.5 84.5t84.5 116.5l144 -27q-9 -42 -38 -91.5t-68 -97.5h74v-500h-173zM534 208h60v199h-60v-199zM825 208v199h-57v-199h57z
" />
    <glyph glyph-name="cid4776" unicode="&#x4ef3;" 
d="M566 641v-157h97v-106h-97v-327h97v-108h-204q-33 0 -55.5 23t-22.5 54v621h185zM874 641v-167l106 30v-116l-106 -30v-307h106v-108h-203q-33 0 -55.5 23t-22.5 54v621h175zM140 -62v393q-30 -26 -55 -42l-65 168q58 38 101.5 86t75.5 117l141 -27q-8 -43 -34.5 -93
t-62.5 -98h74v-504h-175z" />
    <glyph glyph-name="cid4779" unicode="&#x4ef5;" 
d="M596 -61v226h-237v111h237v202h-48q-21 -66 -51 -113l-154 54q33 52 55 117t35 124l149 -10q-3 -32 -9 -62h371v-110h-173v-202h207v-111h-207v-226h-175zM142 -62v393q-30 -26 -55 -42l-65 168q58 38 101.5 86t75.5 117l141 -27q-8 -43 -34.5 -93t-62.5 -98h74v-504
h-175z" />
    <glyph glyph-name="cid2161" unicode="&#x4ef6;" 
d="M979 269v-115h-212v-215h-174v215h-247v115h247v164h-69q-6 -32 -14 -63t-20 -60l-154 55q12 25 22.5 57t18 66.5t13 69t8.5 65.5l145 -11q-1 -16 -1.5 -31.5t-2.5 -31.5h54v97h174v-97h186v-116h-186v-164h212zM141 -62v393q-30 -26 -55 -42l-65 168q58 38 101.5 86
t75.5 117l141 -27q-8 -43 -34.5 -93t-62.5 -98h74v-504h-175z" />
    <glyph glyph-name="cid2126" unicode="&#x4ef7;" 
d="M141 -62v393q-30 -26 -55 -42l-65 168q58 38 101.5 86t75.5 117l141 -27q-8 -43 -34.5 -93t-62.5 -98h74v-504h-175zM734 650q17 -29 43 -57.5t58 -53.5t68.5 -46t75.5 -35l-84 -133q-35 13 -69 32.5t-64.5 43.5t-55.5 51.5t-41 57.5q-17 -30 -41.5 -57.5t-55 -51.5
t-64.5 -43.5t-69 -32.5l-82 133q39 14 75.5 35t68 46t57 53.5t42.5 57.5h138zM887 -52h-175v351h175v-351zM624 293q-3 -47 -6.5 -95.5t-10 -95t-17 -88t-26.5 -75.5l-184 57q33 60 52 141t19 168z" />
    <glyph glyph-name="cid3241" unicode="&#x4efb;" 
d="M966 66v-116h-577v116h201v168h-216v116h216v168h-194v115h561v-115h-192v-168h214v-116h-214v-168h201zM153 -59v397q-17 -15 -34 -28t-33 -23l-65 168q29 19 57 40t53.5 46t47.5 54t38 64l143 -28q-9 -42 -38 -91.5t-69 -97.5h73v-501h-173z" />
    <glyph glyph-name="cid1658" unicode="&#x4efd;" 
d="M829 659q6 -23 18 -55.5t30.5 -67.5t44 -69.5t58.5 -61.5l-84 -61q13 -16 13 -36v-365h-248v96h83v217h-92q-6 -42 -19.5 -87.5t-32.5 -88.5t-42.5 -80t-49.5 -62l-141 94q21 19 40 45.5t35.5 56t29.5 61t22 61.5h-87v91l-81 58q33 27 58.5 61.5t44.5 69.5t31.5 67.5
t19.5 55.5l139 -20q-6 -31 -16 -66t-23.5 -71t-31 -70.5t-39.5 -64.5h289q-22 30 -40 64.5t-32 70.5t-24 71t-16 66zM140 -62v393q-30 -26 -55 -42l-65 168q58 38 101.5 86t75.5 117l141 -27q-8 -43 -34.5 -93t-62.5 -98h74v-504h-175z" />
    <glyph glyph-name="cid1631" unicode="&#x4eff;" 
d="M362 -28q23 41 41.5 99.5t32 125t21.5 137.5t11 136h-92v116h228v64h175v-64h198v-116h-336q-1 -23 -1.5 -44.5t-2.5 -43.5h242q31 0 52 -21.5t21 -53.5v-368h-252v109h79v218h-151q-11 -96 -30.5 -179.5t-50.5 -147.5zM144 -62v394q-14 -13 -28 -24t-28 -19l-65 168
q58 38 101 86t75 117l142 -27q-8 -43 -34.5 -93t-62.5 -98h74v-504h-174z" />
    <glyph glyph-name="cid3090" unicode="&#x4f01;" 
d="M935 67v-115h-871v115h79v267h164v-267h146v357h165v-110h285v-116h-285v-131h317zM571 653q21 -23 54 -45t79.5 -40t108 -31t139.5 -18l-49 -135q-71 7 -130.5 18t-109 29t-90 45t-73.5 66q-34 -39 -74.5 -66.5t-90 -46.5t-109 -30.5t-130.5 -18.5l-49 136
q78 4 139.5 17.5t108 32.5t79.5 41.5t54 45.5h143z" />
    <glyph glyph-name="cid4782" unicode="&#x4f09;" 
d="M351 8q40 55 53.5 122t13.5 145v159h411q32 0 53.5 -21.5t21.5 -52.5v-295h75v-116h-181q-27 0 -48 19.5t-21 47.5v302h-137v-61q0 -48 -2 -90.5t-9 -81.5t-22 -75.5t-40 -71.5zM140 -62v393q-30 -26 -55 -42l-65 168q58 38 101.5 86t75.5 117l141 -27q-8 -43 -34.5 -93
t-62.5 -98h74v-504h-175zM364 595h220v53h175v-53h220v-115h-615v115z" />
    <glyph glyph-name="cid4168" unicode="&#x4f0a;" 
d="M979 458v-118h-43v-179h-292q-28 -96 -77.5 -149t-125.5 -73l-108 126q43 14 72.5 37t49.5 59h-90v116h127q2 14 4 30t4 33h-165v118h173l2 63h-145v116h489q37 0 59.5 -23t22.5 -60v-96h43zM127 -53v371q-11 -11 -22.5 -19.5t-22.5 -16.5l-62 170q29 20 52.5 41.5
t43 46.5t36.5 54.5t32 64.5l134 -27q-8 -39 -29 -85.5t-50 -91.5h58v-508h-170zM769 277v63h-94q-2 -17 -3.5 -32.5t-3.5 -30.5h101zM769 521h-86q0 -17 -0.5 -32.5t-0.5 -30.5h87v63z" />
    <glyph glyph-name="cid3832" unicode="&#x4f0d;" 
d="M382 405h100l13 115h-123v115h603v-115h-306l-13 -115h199q35 0 56 -21t21 -57v-261h47v-115h-612v115h76l26 228h-87v111zM141 -62v393q-30 -26 -55 -42l-65 168q58 38 101.5 86t75.5 117l141 -27q-8 -43 -34.5 -93t-62.5 -98h74v-504h-175zM759 294h-115l-26 -228h141
v228z" />
    <glyph glyph-name="cid2098" unicode="&#x4f0e;" 
d="M903 -60q-52 13 -112.5 35.5t-121.5 52.5q-57 -27 -116 -49t-119 -39l-78 147q35 7 73 17t76 24q-33 25 -61 51t-49 54l68 45h-82v116h202v76h-217v116h217v62h174v-62h217v-116h-217v-76h141q21 0 35.5 -12t22 -29.5t7.5 -38t-9 -36.5q-21 -43 -53 -80.5t-73 -69.5
q38 -13 75.5 -23t74.5 -18zM145 -59v390q-29 -25 -58 -44l-65 168q58 38 106 86t80 118l144 -28q-9 -42 -36.5 -91.5t-65.5 -97.5h69v-501h-174zM539 278q26 -24 57 -44.5t65 -38.5q80 42 120 83h-242z" />
    <glyph glyph-name="cid1689" unicode="&#x4f0f;" 
d="M361 490h213q6 70 6 161h161q1 -88 -3 -161h235v-111h-189q14 -59 31.5 -106.5t41 -86.5t53 -71.5t68.5 -61.5l-129 -113q-54 41 -96 98.5t-74 146.5q-18 -47 -40.5 -83t-47.5 -65t-52 -52.5t-55 -44.5l-131 113q39 31 71.5 62.5t58 69t45 85t31.5 109.5h-198v111z
M141 -62v393q-30 -26 -55 -42l-65 168q58 38 101.5 86t75.5 117l141 -27q-8 -43 -34.5 -93t-62.5 -98h74v-504h-175zM804 521l-9 113h144l10 -113h-145z" />
    <glyph glyph-name="cid1602" unicode="&#x4f10;" 
d="M966 299v-116l-138 -18q67 -63 151 -73l-81 -152q-86 13 -157.5 62.5t-125.5 134.5l-256 -33v116l203 26q-26 68 -41 146h-162v111h147q-3 34 -4 69t0 73h177q-1 -38 1 -73.5t6 -68.5h280v-111h-259q17 -68 44 -121zM141 -62v393q-30 -26 -55 -42l-65 168q58 38 101.5 86
t75.5 117l141 -27q-8 -43 -34.5 -93t-62.5 -98h74v-504h-175zM902 646l29 -114h-139l-31 114h141z" />
    <glyph glyph-name="cid4008" unicode="&#x4f11;" 
d="M966 545v-107h-227v-495h-149v495h-226v107h216v104h169v-104h217zM151 -62v395q-14 -13 -28.5 -24t-28.5 -20l-66 168q58 38 101.5 86t75.5 117l144 -27q-9 -43 -35.5 -93t-63.5 -98h74v-504h-173zM557 405q0 -54 -4 -115.5t-10 -123t-14.5 -118.5t-17.5 -101l-151 30
q11 44 21.5 101.5t19 117t14.5 116.5t9 101zM905 413q3 -44 9 -101t14.5 -116.5t19.5 -117t23 -101.5l-153 -30q-9 44 -17 101t-14 118.5t-9.5 123t-3.5 115.5z" />
    <glyph glyph-name="cid4569" unicode="&#x4f17;" 
d="M366 393q2 -35 0 -67.5t-7 -64.5l165 -155l-125 -91l-77 102q-26 -63 -63 -107.5t-82 -67.5l-139 78q44 31 79 66.5t59 78.5t36.5 95.5t12.5 117.5q-30 -8 -62 -13.5t-67 -8.5l-49 130q78 6 139.5 24.5t108 43.5t79.5 51.5t54 48.5h143q21 -22 54 -48t79.5 -50t108 -42
t139.5 -24l-49 -130q-32 3 -62 8t-59 12q2 -62 -6 -119q13 -39 33 -74.5t45 -66.5t52.5 -56t54.5 -44l-139 -78q-29 16 -56.5 48.5t-50.5 76.5q-24 -44 -54.5 -76t-66.5 -49l-138 78q45 32 80 69t59 81.5t35.5 99.5t10.5 123h95q-78 25 -137 63t-99 86q-40 -47 -96 -85
t-131 -64h93z" />
    <glyph glyph-name="cid4266" unicode="&#x4f18;" 
d="M978 -51h-238q-28 0 -47.5 19.5t-19.5 47.5v252q-25 -107 -66 -185.5t-101 -143.5l-160 96q74 72 119 166t65 206h-173v114h188q2 32 3 64t1 66h166q-2 -35 -3.5 -67t-3.5 -63h267v-114h-278q-1 -11 -2 -20.5t-3 -19.5h145v-306h141v-112zM142 -62v393q-30 -26 -55 -42
l-65 168q58 38 101.5 86t75.5 117l141 -27q-8 -43 -34.5 -93t-62.5 -98h74v-504h-175zM922 544h-143l-10 99h144z" />
    <glyph glyph-name="cid2052" unicode="&#x4f19;" 
d="M760 648q0 -84 -4 -153t-11 -128q37 -123 98 -200.5t136 -122.5l-144 -106q-49 35 -87 79.5t-69 102.5q-17 -34 -37 -60.5t-42.5 -48t-47.5 -39.5t-52 -34l-143 117q44 26 78.5 52.5t61 59.5t45 75t30 99t17 132.5t5.5 174.5h166zM162 -58v402q-20 -17 -39 -31.5
t-37 -25.5l-65 168q58 38 111 86t85 117l143 -27q-10 -47 -37.5 -95.5t-65.5 -93.5h78v-500h-173zM798 334q9 53 13.5 110t4.5 117l151 -5q-2 -130 -23 -237zM392 319q-11 53 -16 113t-6 124l149 5q0 -60 5 -117t13 -110z" />
    <glyph glyph-name="cid2038" unicode="&#x4f1a;" 
d="M937 280v-110h-563l-61 -103h394l-29 66h160l36 -88q6 -15 5 -30.5t-8 -28.5t-20.5 -21.5t-33.5 -8.5h-642q-17 0 -29 8.5t-18.5 22t-6.5 29t6 29.5l74 125h-140v110h876zM571 657q42 -42 133.5 -74t247.5 -47l-49 -125q-30 2 -58.5 5t-54.5 8v-91h-581v87
q-26 -5 -54.5 -8t-58.5 -6l-49 125q156 16 247.5 50t133.5 76h143zM499 551q-36 -40 -83.5 -66.5t-109.5 -43.5h397q-65 16 -115.5 42t-88.5 68z" />
    <glyph glyph-name="cid4775" unicode="&#x4f1b;" 
d="M977 523h-430v-463h430v-111h-536q-27 0 -47 19.5t-20 47.5v619h603v-112zM143 -62v394q-14 -13 -28 -24t-28 -19l-65 168q58 38 101.5 86t75.5 117l141 -27q-8 -43 -34.5 -93t-62.5 -98h74v-504h-174zM572 147q33 34 63.5 68t59.5 70l-110 190l116 32l72 -109
q15 26 29 53t27 56l123 -16q-39 -122 -96 -219l96 -145l-138 -46l-41 70q-17 -20 -33.5 -38.5t-34.5 -36.5z" />
    <glyph glyph-name="cid3290" unicode="&#x4f1e;" 
d="M936 185v-112h-355v-128h-163v128h-355v112h355v244h163v-244h355zM571 658q42 -46 133.5 -81.5t247.5 -50.5l-49 -125q-143 14 -243.5 51.5t-160.5 110.5q-60 -73 -160 -113t-243 -54l-49 126q155 15 247.5 52.5t133.5 83.5h143zM151 215l-43 160h164l40 -160h-161z
M687 215l40 160h164l-43 -160h-161z" />
    <glyph glyph-name="cid3775" unicode="&#x4f1f;" 
d="M546 -60v222h-183v116h183v49h-145v116h145v50h-166v116h166v43h174v-43h236v-116h-236v-50h215v-116h-215v-49h177q31 0 54.5 -23t23.5 -55v-224h-213v111h42v75h-84v-222h-174zM148 -62v395q-14 -13 -28.5 -24t-28.5 -20l-66 168q58 38 101.5 86t75.5 117l142 -27
q-8 -43 -34.5 -93t-62.5 -98h74v-504h-173z" />
    <glyph glyph-name="cid1326" unicode="&#x4f20;" 
d="M627 153l31 -37l82 76h-283q-15 0 -27.5 6.5t-20 17t-10 24.5t1.5 29l20 73h-54v112h84l12 45h-87v110h117l11 38h173l-10 -38h300v-110h-330l-12 -45h352v-112h-382l-10 -40h325q17 0 30 -9.5t19 -23.5t4 -31t-14 -32l-200 -198l60 -70h-181l-182 215h181zM142 -62v393
q-30 -26 -55 -42l-65 168q58 38 101.5 86t75.5 117l141 -27q-8 -43 -34.5 -93t-62.5 -98h74v-504h-175z" />
    <glyph glyph-name="cid4777" unicode="&#x4f22;" 
d="M979 373v-116h-74v-318h-243v112h68v206h-49q-18 -60 -38 -108t-43 -86.5t-50 -68.5t-59 -55l-137 95q43 32 88.5 91t80.5 132h-71q-29 0 -48.5 19.5t-19.5 47.5v163h170v-114h176v151h-354v116h597v-116h-68v-151h74zM140 -62v393q-30 -26 -55 -42l-65 168
q58 38 101.5 86t75.5 117l141 -27q-8 -43 -34.5 -93t-62.5 -98h74v-504h-175z" />
    <glyph glyph-name="cid3332" unicode="&#x4f24;" 
d="M386 355h151q3 40 3 87l175 -5q0 -40 -3 -82h172q35 0 56.5 -21.5t21.5 -56.5v-335h-255v101h80v198h-87q-7 -43 -19 -85.5t-29.5 -81.5t-41.5 -73t-56 -61l-186 56q60 59 96 116t54 129h-132v114zM142 -58v392q-30 -26 -55 -42l-65 168q58 38 101.5 86t75.5 117l141 -27
q-9 -44 -35.5 -94.5t-63.5 -99.5h76v-500h-175zM340 438q14 23 26.5 51t23 57t18.5 58t13 54l149 -9q-1 -13 -2 -25t-3 -23h413v-106h-436q-18 -55 -47 -98z" />
    <glyph glyph-name="cid4780" unicode="&#x4f25;" 
d="M439 645h175v-275h365v-115h-129q29 -70 63 -128t66 -91l-138 -95q-98 122 -147 314h-80v-205h99v-109h-205q-28 0 -48.5 20.5t-20.5 48.5v245h-80v115h80v275zM141 -62v393q-30 -26 -55 -42l-65 168q58 38 101.5 86t75.5 117l141 -27q-8 -43 -34.5 -93t-62.5 -98h74
v-504h-175zM659 521q22 7 54.5 21t67.5 32t67 37t52 36l65 -105q-20 -22 -49 -43.5t-62.5 -40.5t-68 -34.5t-63.5 -25.5z" />
    <glyph glyph-name="cid2686" unicode="&#x4f26;" 
d="M613 353v-80l305 18v-116l-305 -18v-99h305v-118h-411q-28 0 -48.5 20.5t-20.5 48.5v313q-7 -3 -13 -6t-13 -5l-74 132q88 42 154 97t96 110h138q15 -27 40 -55t58 -55t72.5 -51.5t82.5 -45.5l-73 -132q-87 35 -149.5 83.5t-96.5 105.5q-53 -85 -162 -147h115zM140 -62
v393q-30 -26 -55 -42l-65 168q58 38 101.5 86t75.5 117l141 -27q-8 -43 -34.5 -93t-62.5 -98h74v-504h-175z" />
    <glyph glyph-name="cid4781" unicode="&#x4f27;" 
d="M606 58h351v-109h-451q-26 0 -45 18t-19 44v318q-10 -5 -19.5 -9.5t-20.5 -9.5l-54 148q50 19 88 41.5t67 47.5t50 51t37 52h148q16 -26 37 -52t50 -51t67 -47.5t88 -41.5l-52 -148l-37 17v-225h-223v90h58v89h-120v-223zM152 -59v397q-17 -15 -34 -28t-33 -23l-65 168
q58 38 108 86t82 118l144 -28q-9 -42 -37.5 -91.5t-66.5 -97.5h75v-501h-173zM665 525q-46 -78 -122 -134h243q-39 29 -69 61.5t-52 72.5z" />
    <glyph glyph-name="cid3776" unicode="&#x4f2a;" 
d="M791 139h-136l-12 115q-25 -87 -64 -165.5t-96 -139.5l-143 96q75 76 119.5 165t67.5 201h-172v111h191q4 29 6.5 60.5t4.5 64.5h144q-1 -29 -3 -60.5t-5 -64.5h205q35 0 56.5 -21t21.5 -56v-488h-251v95h90v359h-137q-8 -53 -21 -103h119zM160 -49v393
q-17 -18 -35 -33.5t-36 -26.5l-66 169q31 21 56.5 42.5t47 46.5t39.5 54.5t34 64.5l122 -27q-8 -40 -28 -86.5t-49 -92.5h73v-504h-158zM517 551h-139l-11 96h139z" />
    <glyph glyph-name="cid4783" unicode="&#x4f2b;" 
d="M144 -62v394q-14 -13 -28 -24t-28 -19l-65 168q58 38 101 86t75 117l142 -27q-8 -43 -34.5 -93t-62.5 -98h74v-504h-174zM374 393v191h214v64h175v-64h160q22 0 38 -15.5t16 -39.5v-136h-174v75h-256v-75h-173zM374 -42v116h603v-116h-603z" />
    <glyph glyph-name="cid1141" unicode="&#x4f2f;" 
d="M754 644l-12 -57h164q28 0 48.5 -19.5t20.5 -48.5v-569h-591v637h177l12 57h181zM148 -62v395q-14 -13 -28.5 -24t-28.5 -20l-66 168q58 38 101.5 86t75.5 117l142 -27q-8 -43 -34.5 -93t-62.5 -98h74v-504h-173zM800 478h-241v-156h241v156zM800 59v154h-241v-154h241z
" />
    <glyph glyph-name="cid1817" unicode="&#x4f30;" 
d="M887 328q28 0 47 -19.5t19 -47.5v-311h-551v378h192v112h-211v118h211v89h169v-89h216v-118h-216v-112h124zM153 -59v389q-17 -13 -33.5 -24t-33.5 -19l-65 157q28 16 57.5 38.5t56.5 50.5t50.5 59.5t40.5 66.5l144 -28q-9 -42 -37 -91.5t-68 -97.5h61v-501h-173zM785 66
v146h-214v-146h214z" />
    <glyph glyph-name="cid4791" unicode="&#x4f32;" 
d="M339 -13q22 35 34 82.5t12 98.5v466h504q28 0 47.5 -19.5t19.5 -46.5v-213h-413v-204q0 -63 -12 -120.5t-31 -92.5zM140 -62v394q-14 -13 -28 -24t-28 -19l-65 168q58 38 101.5 86t75.5 117l141 -27q-8 -43 -34.5 -93t-62.5 -98h75v-504h-175zM980 51v-102h-314
q-29 0 -48 19.5t-19 47.5v309h163v-62l218 17v-102l-218 -17v-110h218zM788 458v74h-234v-74h234z" />
    <glyph glyph-name="cid1012" unicode="&#x4f34;" 
d="M587 -59v155h-218v116h218v93h-212v116h212v222h175v-222h211v-116h-211v-93h217v-116h-217v-155h-175zM140 -62v393q-30 -26 -55 -42l-65 168q58 38 101.5 86t75.5 117l141 -27q-8 -43 -34.5 -93t-62.5 -98h74v-504h-175zM405 456l-10 163h145l9 -163h-144zM797 456
l9 163h144l-10 -163h-143z" />
    <glyph glyph-name="cid2607" unicode="&#x4f36;" 
d="M618 -62l-218 227h199l44 -47l99 95h-353v116h187v79h173v-79h139q22 0 37.5 -12.5t22 -31t4 -39t-17.5 -36.5l-193 -194l75 -78h-198zM151 -58v392q-17 -14 -33.5 -26t-32.5 -21l-65 168q59 32 111.5 83t84.5 120l143 -27q-9 -42 -37 -91.5t-67 -97.5h69v-500h-173z
M732 659q16 -29 43.5 -55t60.5 -47.5t70 -38.5t73 -26l-65 -131q-47 16 -87.5 38t-72.5 45.5t-55 47.5t-35 45q-13 -21 -38.5 -47t-59 -51t-73.5 -46t-81 -32l-65 131q36 9 73 26t70.5 38.5t60.5 47.5t42 55h139z" />
    <glyph glyph-name="cid3365" unicode="&#x4f38;" 
d="M766 -59h-183v95h-211v518h211v87h183v-87h157q22 0 38 -16t16 -37v-465h-211v-95zM144 -62v394q-14 -13 -28 -24t-28 -19l-65 168q58 38 101 86t75 117l142 -27q-8 -43 -34.5 -93t-62.5 -98h74v-504h-174zM519 145h64v94h-64v-94zM519 349h64v94h-64v-94zM828 443h-62
v-94h62v94zM828 145v94h-62v-94h62z" />
    <glyph glyph-name="cid3514" unicode="&#x4f3a;" 
d="M709 318q23 0 38.5 -15.5t15.5 -36.5v-236h38v491h-418v116h515q35 0 56.5 -21t21.5 -55v-623h-263v73h-338v307h334zM145 -62v394q-14 -13 -28 -24t-28 -19l-65 168q58 38 101 86t75 117l142 -27q-8 -43 -34.5 -93t-62.5 -98h74v-504h-174zM776 475v-111h-412v111h412z
M604 122v85h-70v-85h70z" />
    <glyph glyph-name="cid3515" unicode="&#x4f3c;" 
d="M907 642q0 -104 -10 -191.5t-27 -162.5l116 -232l-121 -118l-61 152q-24 -51 -50.5 -88.5t-53.5 -63.5l-115 113q30 27 60 78t54 126t39 172t15 215h154zM121 -58v377q-11 -9 -21 -17t-21 -15l-66 168q48 31 88.5 85.5t69.5 117.5l142 -27q-8 -42 -31.5 -91.5
t-55.5 -97.5h60v-500h-165zM505 626v-551h64v-107h-163q-27 0 -48 19.5t-21 47.5v591h168zM557 313l-19 288h133l17 -288h-131z" />
    <glyph glyph-name="cid4792" unicode="&#x4f3d;" 
d="M927 614q20 0 34.5 -14t14.5 -34v-613h-296v661h247zM304 571h36v77h143v-77h88q35 0 55.5 -21.5t20.5 -56.5v-542h-167v89h35v419h-32v-90q0 -132 -11.5 -242.5t-41.5 -185.5l-140 32q50 144 50 415v71h-36v112zM121 -59v394q-11 -11 -23 -21t-23 -18l-52 162
q53 38 92 85t69 118l113 -28q-8 -45 -31.5 -94t-55.5 -97h66v-501h-155zM843 59v448h-36v-448h36z" />
    <glyph glyph-name="cid1481" unicode="&#x4f43;" 
d="M891 631q36 0 59.5 -22.5t23.5 -60.5v-595h-598v678h515zM148 -62v395q-14 -13 -28.5 -24t-28.5 -20l-66 168q58 38 101.5 86t75.5 117l142 -27q-8 -43 -34.5 -93t-62.5 -98h74v-504h-173zM529 345h61v175h-61v-175zM529 64h61v174h-61v-174zM819 520h-59v-175h59v175z
M819 64v174h-59v-174h59z" />
    <glyph glyph-name="cid1420" unicode="&#x4f46;" 
d="M887 634q27 0 47 -20t20 -47v-453h-565v520h498zM141 -62v393q-30 -26 -55 -42l-65 168q58 38 101.5 86t75.5 117l141 -27q-8 -43 -34.5 -93t-62.5 -98h74v-504h-175zM365 61h614v-117h-614v117zM781 518h-218v-89h218v89zM781 230v88h-218v-88h218z" />
    <glyph glyph-name="cid3786" unicode="&#x4f4d;" 
d="M149 -59v396q-34 -31 -65 -50l-65 168q58 38 107 86t81 118l144 -28q-9 -42 -37 -91.5t-66 -97.5h74v-501h-173zM381 594h208v54h175v-54h207v-115h-590v115zM372 65h608v-116h-608v116zM489 94q-24 63 -45.5 150.5t-34.5 180.5l164 16q3 -36 9.5 -77t15.5 -83
t19.5 -82.5t21.5 -74.5zM711 124q10 34 21 74.5t20.5 82.5t16 83t9.5 77l162 -16q-12 -93 -33 -180.5t-44 -150.5z" />
    <glyph glyph-name="cid1454" unicode="&#x4f4e;" 
d="M675 182v-102h-244q-27 0 -46.5 20t-19.5 49v488h602v-111h-112v-63t2 -56h112v-106h-103q7 -48 17.5 -81t24.5 -56.5t32.5 -39.5t40.5 -29l-72 -151q-22 4 -47 15t-50 31t-47.5 49t-38.5 69q-14 35 -22 82t-13 111h-153v-119h137zM140 -62v394q-14 -13 -28 -24t-28 -19
l-65 168q58 38 101.5 86t75.5 117l141 -27q-8 -43 -34.5 -93t-62.5 -98h75v-504h-175zM365 52h310v-108h-310v108zM538 526v-119h148q-1 27 -1.5 56.5t-0.5 62.5h-146z" />
    <glyph glyph-name="cid4606" unicode="&#x4f4f;" 
d="M964 571v-111h-207v-147h184v-111h-184v-145h222v-112h-621v112h224v145h-188v111h188v147h-208v111h208v87h175v-87h207zM140 -62v393q-30 -26 -55 -42l-65 168q58 38 101.5 86t75.5 117l141 -27q-8 -43 -34.5 -93t-62.5 -98h74v-504h-175z" />
    <glyph glyph-name="cid4689" unicode="&#x4f50;" 
d="M347 61h269v186h-84q-15 -40 -32.5 -77.5t-40.5 -74.5l-147 89q35 55 65 129.5t54 156.5h-84v116h114l15 73l157 -11q-4 -16 -7 -31.5t-6 -30.5h359v-116h-383q-7 -28 -13 -54t-13 -51h396v-118h-176v-186h189v-117h-632v117zM125 -61v374q-10 -9 -20 -16.5t-20 -13.5
l-65 171q58 36 96 85.5t71 120.5l132 -27q-8 -42 -30 -92t-54 -98h61v-504h-171z" />
    <glyph glyph-name="cid4280" unicode="&#x4f51;" 
d="M901 342q24 0 41 -17t17 -40v-341h-457v161l-35 -49l-133 97q20 23 41 54t41.5 68t40 77.5t37.5 82.5h-114v116h158q9 28 17 54.5t13 50.5l149 -16q-5 -23 -9.5 -45t-10.5 -44h282v-116h-316q-8 -24 -16.5 -47t-18.5 -46h273zM141 -62v393q-30 -26 -55 -42l-65 168
q58 38 101.5 86t75.5 117l141 -27q-8 -43 -34.5 -93t-62.5 -98h74v-504h-175zM790 57v174h-117v-174h117z" />
    <glyph glyph-name="cid3640" unicode="&#x4f53;" 
d="M780 10h-33v-71h-168v71h-34v106h34v308h-26q-2 -60 -7.5 -122.5t-13 -123t-16.5 -116.5t-18 -102l-153 35q10 44 21 98t20.5 110.5t17 113.5t12.5 107h-47v108h208v112h172v-112h219v-108h-59q4 -50 11.5 -107t17 -113.5t20.5 -110.5t22 -98l-152 -35q-9 46 -18.5 102
t-17 116.5t-12.5 123t-7 122.5h-26v-308h33v-106zM140 -62v393q-30 -26 -55 -42l-65 168q58 38 101.5 86t75.5 117l141 -27q-8 -43 -34.5 -93t-62.5 -98h74v-504h-175z" />
    <glyph glyph-name="cid1925" unicode="&#x4f55;" 
d="M365 639h614v-115h-36v-583h-309v102h136v481h-405v115zM138 -62v391q-14 -11 -27 -21.5t-26 -18.5l-65 168q58 38 101.5 86t75.5 117l141 -27q-9 -45 -37.5 -97.5t-66.5 -103.5h79v-494h-175zM665 463q22 0 37 -16.5t15 -37.5v-317h-342v371h290zM576 198v159h-54v-159
h54z" />
    <glyph glyph-name="cid4790" unicode="&#x4f57;" 
d="M952 231l-389 -35v-139h389v-112h-481q-33 0 -55.5 22.5t-22.5 54.5v379h170v-94l389 36v-112zM144 -62v394q-14 -13 -28 -24t-28 -19l-65 168q58 38 101 86t75 117l142 -27q-8 -43 -34.5 -93t-62.5 -98h74v-504h-174zM367 425v176h218v48h174v-48h163q23 0 38.5 -15.5
t15.5 -38.5v-122h-169v65h-273v-65h-167z" />
    <glyph glyph-name="cid4848" unicode="&#x4f58;" 
d="M571 658q42 -43 133.5 -73.5t247.5 -47.5l-49 -127q-28 2 -53.5 4.5t-49.5 6.5v-92h-601v89q-47 -7 -103 -12l-49 125q156 16 247.5 50t133.5 77h143zM936 275v-111h-350v-219h-216v95h53v124h-360v111h873zM54 80q57 2 123 18.5t122 45.5l71 -81q-17 -19 -45 -38
t-61.5 -35t-71 -28t-74.5 -17zM881 -55q-37 5 -74.5 17t-71 28t-61.5 35t-45 38l71 81q56 -29 122 -45.5t123 -18.5zM500 552q-38 -40 -86 -67t-110 -44h397q-64 17 -113.5 43.5t-87.5 67.5z" />
    <glyph glyph-name="cid4293" unicode="&#x4f59;" 
d="M571 658q42 -43 133.5 -73.5t247.5 -47.5l-49 -127q-60 5 -110 12v-87h-207v-60h350v-111h-350v-219h-216v95h53v124h-360v111h360v60h-217v84q-26 -4 -53.5 -7.5t-56.5 -5.5l-49 125q156 16 247.5 50t133.5 77h143zM54 81q57 2 123 17.5t122 42.5l71 -77
q-17 -18 -45 -36.5t-61.5 -34t-71 -27t-74.5 -15.5zM881 -49q-37 4 -74.5 15.5t-71 27t-61.5 34t-45 36.5l71 77q56 -27 122 -42.5t123 -17.5zM500 550q-34 -37 -78.5 -62.5t-100.5 -42.5h363q-59 17 -104.5 42t-79.5 63z" />
    <glyph glyph-name="cid4787" unicode="&#x4f5a;" 
d="M961 568v-113h-197v-103h211v-115h-182q32 -66 80 -102.5t108 -49.5l-58 -145q-81 27 -139.5 70t-98.5 114q-40 -77 -103.5 -120t-160.5 -64l-56 145q60 13 115 48.5t89 103.5h-201v115h229v103h-73q-10 -46 -23 -73l-141 29q21 50 33 107.5t17 111.5l131 -5
q0 -14 -0.5 -28t-1.5 -29h58v76h167v-76h197zM140 -62v394q-14 -13 -28 -24t-28 -19l-65 168q58 38 101.5 86t75.5 117l141 -27q-8 -43 -34.5 -93t-62.5 -98h75v-504h-175z" />
    <glyph glyph-name="cid1677" unicode="&#x4f5b;" 
d="M687 -56v211h-57q-14 -66 -38 -120t-66 -91l-135 62q35 32 58 69t37 80h-125v275h152v79h-152v97h152v43h135v-43h39v43h134v-43h100q20 0 35 -13.5t15 -33.5v-225h-150v-82h109q20 0 34.5 -14.5t14.5 -34.5v-210h-141v87h22v75h-39v-211h-134zM141 -62v393
q-30 -26 -55 -42l-65 168q58 38 101.5 86t75.5 117l141 -27q-8 -43 -34.5 -93t-62.5 -98h74v-504h-175zM687 252v82h-40q0 -21 -1 -41.5t-3 -40.5h44zM648 430h39v79h-39v-79zM481 252h25q5 39 6 82h-31v-82zM850 430v79h-29v-79h29z" />
    <glyph glyph-name="cid4692" unicode="&#x4f5c;" 
d="M585 -60v527h-12q-22 -45 -48 -83t-52 -58l-140 80q26 22 53.5 57t50 72.5t38 71.5t18.5 54l139 -15q-2 -14 -6 -30.5t-9 -33.5h361v-115h-218v-96h205v-111h-205v-95h205v-111h-205v-114h-175zM141 -62v393q-30 -26 -55 -42l-65 168q58 38 101.5 86t75.5 117l141 -27
q-8 -43 -34.5 -93t-62.5 -98h74v-504h-175z" />
    <glyph glyph-name="cid4788" unicode="&#x4f5d;" 
d="M684 420q28 0 45 -17t17 -45v-282h-357v322l-55 31q21 21 39 49.5t34 59t28.5 62t21.5 59.5l138 -15q-2 -14 -4 -28.5t-6 -30.5h312q34 0 56 -21.5t22 -56.5v-569h-291v92h120v439h-259q-5 -13 -11.5 -25.5t-13.5 -23.5h164zM147 -62v395q-14 -13 -28.5 -24t-28.5 -20
l-66 168q59 38 102 86t75 117l142 -27q-8 -43 -34.5 -93t-62.5 -98h74v-504h-173zM600 179v138h-64v-138h64z" />
    <glyph glyph-name="cid4784" unicode="&#x4f5e;" 
d="M977 331v-109h-61q-31 -59 -81 -109l144 -41l-76 -131l-204 77q-63 -31 -138 -50.5t-163 -26.5l-49 137q82 3 150 15l-123 47l46 82h-79v109h139l29 52h-168v108h634v-108h-426l121 -20l-20 -32h325zM147 -59v396q-31 -31 -62 -50l-65 171q58 37 94.5 86t69.5 120
l135 -27q-8 -39 -27.5 -85t-47.5 -91h62v-520h-159zM957 638v-109h-592v109h592zM586 222l-19 -31l111 -32q40 24 77 63h-169z" />
    </font>
</defs>
</svg>
